<?xml version="1.0" encoding="iso-8859-1"?>
<!-- Generator: Adobe Illustrator 19.0.0, SVG Export Plug-In . SVG Version: 6.00 Build 0)  -->
<svg version="1.1" id="Capa_1" xmlns="http://www.w3.org/2000/svg" xmlns:xlink="http://www.w3.org/1999/xlink" x="0px" y="0px"
	 viewBox="0 0 512 512" style="enable-background:new 0 0 512 512;" xml:space="preserve">
<linearGradient id="SVGID_1_" gradientUnits="userSpaceOnUse" x1="20" y1="258" x2="492" y2="258" gradientTransform="matrix(1 0 0 -1 0 514)">
	<stop  offset="0" style="stop-color:#00F2FE"/>
	<stop  offset="0.021" style="stop-color:#03EFFE"/>
	<stop  offset="0.293" style="stop-color:#24D2FE"/>
	<stop  offset="0.554" style="stop-color:#3CBDFE"/>
	<stop  offset="0.796" style="stop-color:#4AB0FE"/>
	<stop  offset="1" style="stop-color:#4FACFE"/>
</linearGradient>
<path style="fill:url(#SVGID_1_);" d="M492,256c0-26.446-17.199-48.952-41-56.917v-82.166c23.801-7.965,41-30.471,41-56.917
	c0-33.084-26.916-60-60-60H80C46.916,0,20,26.916,20,60c0,26.446,17.199,48.952,41,56.917v82.166C37.199,207.048,20,229.554,20,256
	c0,26.446,17.199,48.952,41,56.917v82.166C37.199,403.048,20,425.554,20,452c0,33.084,26.916,60,60,60h352c33.084,0,60-26.916,60-60
	c0-26.446-17.199-48.952-41-56.917v-82.166C474.801,304.952,492,282.446,492,256z M431,432h1c11.028,0,20,8.972,20,20
	s-8.972,20-20,20H80c-11.028,0-20-8.972-20-20s8.972-20,20-20h1h250c11.046,0,20-8.954,20-20s-8.954-20-20-20H101v-96
	c0-11.046-8.954-20-20-20h-1c-11.028,0-20-8.972-20-20s8.972-20,20-20h1c11.046,0,20-8.954,20-20v-96h230c11.046,0,20-8.954,20-20
	s-8.954-20-20-20H81h-1c-11.028,0-20-8.972-20-20s8.972-20,20-20h352c11.028,0,20,8.972,20,20s-8.972,20-20,20h-1
	c-11.046,0-20,8.954-20,20v116c0,11.046,8.954,20,20,20h1c11.028,0,20,8.972,20,20s-8.972,20-20,20h-1c-11.046,0-20,8.954-20,20v116
	C411,423.046,419.954,432,431,432z M270.761,168.505C266.972,164.36,261.615,162,256,162s-10.972,2.36-14.761,6.505
	c-0.591,0.646-14.626,16.04-28.84,35.326C184.255,242.021,181,260.515,181,271.103v1.691C181,314.263,214.645,348,256,348
	s75-33.737,75-75.206v-1.691c0-10.588-3.255-29.081-31.399-67.271C285.387,184.545,271.352,169.15,270.761,168.505z M291,272.794
	C291,292.207,275.299,308,256,308s-35-15.793-35-35.206v-1.691c0-1.173,0.657-12.349,23.406-43.277
	c3.966-5.392,7.958-10.495,11.594-14.987c3.636,4.492,7.628,9.596,11.594,14.987C290.343,258.754,291,269.93,291,271.103V272.794z"
	/>
<g>
</g>
<g>
</g>
<g>
</g>
<g>
</g>
<g>
</g>
<g>
</g>
<g>
</g>
<g>
</g>
<g>
</g>
<g>
</g>
<g>
</g>
<g>
</g>
<g>
</g>
<g>
</g>
<g>
</g>
</svg>
