<?xml version="1.0" encoding="iso-8859-1"?>
<!-- Generator: Adobe Illustrator 19.0.0, SVG Export Plug-In . SVG Version: 6.00 Build 0)  -->
<svg version="1.1" id="Capa_1" xmlns="http://www.w3.org/2000/svg" xmlns:xlink="http://www.w3.org/1999/xlink" x="0px" y="0px"
	 viewBox="0 0 512 512" style="enable-background:new 0 0 512 512;" xml:space="preserve">
<linearGradient id="SVGID_1_" gradientUnits="userSpaceOnUse" x1="0" y1="258" x2="512" y2="258" gradientTransform="matrix(1 0 0 -1 0 514)">
	<stop  offset="0" style="stop-color:#00F2FE"/>
	<stop  offset="0.021" style="stop-color:#03EFFE"/>
	<stop  offset="0.293" style="stop-color:#24D2FE"/>
	<stop  offset="0.554" style="stop-color:#3CBDFE"/>
	<stop  offset="0.796" style="stop-color:#4AB0FE"/>
	<stop  offset="1" style="stop-color:#4FACFE"/>
</linearGradient>
<path style="fill:url(#SVGID_1_);" d="M256,512c-68.38,0-132.667-26.629-181.02-74.98C26.629,388.667,0,324.38,0,256
	S26.629,123.333,74.98,74.98C123.333,26.629,187.62,0,256,0s132.667,26.629,181.02,74.98C485.371,123.333,512,187.62,512,256
	c0,50.53-14.998,99.674-43.374,142.116c-6.138,9.182-18.559,11.65-27.742,5.51c-9.182-6.139-11.649-18.56-5.51-27.742
	C459.335,340.044,472,298.589,472,256c0-119.103-96.897-216-216-216S40,136.897,40,256s96.897,216,216,216
	c39.505,0,78.144-10.756,111.737-31.106c9.447-5.724,21.745-2.705,27.469,6.744c5.723,9.447,2.703,21.745-6.744,27.469
	C348.617,499.242,302.813,512,256,512z M351,313c0-11.046-8.954-20-20-20s-20,8.954-20,20c0,30.327-24.673,55-55,55
	s-55-24.673-55-55c0-11.046-8.954-20-20-20s-20,8.954-20,20c0,52.383,42.617,95,95,95S351,365.383,351,313z M395,201
	c0-27.57-22.43-50-50-50s-50,22.43-50,50c0,11.046,8.954,20,20,20s20-8.954,20-20c0-5.514,4.486-10,10-10s10,4.486,10,10
	c0,11.046,8.954,20,20,20S395,212.046,395,201z M218,201c0-27.57-22.43-50-50-50s-50,22.43-50,50c0,11.046,8.954,20,20,20
	s20-8.954,20-20c0-5.514,4.486-10,10-10s10,4.486,10,10c0,11.046,8.954,20,20,20S218,212.046,218,201z"/>
<g>
</g>
<g>
</g>
<g>
</g>
<g>
</g>
<g>
</g>
<g>
</g>
<g>
</g>
<g>
</g>
<g>
</g>
<g>
</g>
<g>
</g>
<g>
</g>
<g>
</g>
<g>
</g>
<g>
</g>
</svg>
