<?xml version="1.0" encoding="iso-8859-1"?>
<!-- Generator: Adobe Illustrator 19.0.0, SVG Export Plug-In . SVG Version: 6.00 Build 0)  -->
<svg version="1.1" id="Capa_1" xmlns="http://www.w3.org/2000/svg" xmlns:xlink="http://www.w3.org/1999/xlink" x="0px" y="0px"
	 viewBox="0 0 512 512" style="enable-background:new 0 0 512 512;" xml:space="preserve">
<linearGradient id="SVGID_1_" gradientUnits="userSpaceOnUse" x1="51" y1="258" x2="461" y2="258" gradientTransform="matrix(1 0 0 -1 0 514)">
	<stop  offset="0" style="stop-color:#00F2FE"/>
	<stop  offset="0.021" style="stop-color:#03EFFE"/>
	<stop  offset="0.293" style="stop-color:#24D2FE"/>
	<stop  offset="0.554" style="stop-color:#3CBDFE"/>
	<stop  offset="0.796" style="stop-color:#4AB0FE"/>
	<stop  offset="1" style="stop-color:#4FACFE"/>
</linearGradient>
<path style="fill:url(#SVGID_1_);" d="M381,0H131C86.888,0,51,35.888,51,80v352c0,44.112,35.888,80,80,80h250
	c44.112,0,80-35.888,80-80v-46c0-11.046-8.954-20-20-20h-60v-10c0-11.046-8.954-20-20-20s-20,8.954-20,20v10h-30v-10
	c0-11.046-8.954-20-20-20s-20,8.954-20,20v10H91v-90h41v10c0,11.046,8.954,20,20,20s20-8.954,20-20v-10h30v10
	c0,11.046,8.954,20,20,20s20-8.954,20-20v-10h99v10c0,11.046,8.954,20,20,20s20-8.954,20-20v-10h40v10c0,11.046,8.954,20,20,20
	s20-8.954,20-20V80C461,35.888,425.112,0,381,0z M131,40h250c22.056,0,40,17.944,40,40v25h-40V95c0-11.046-8.954-20-20-20
	s-20,8.954-20,20v10h-30V95c0-11.046-8.954-20-20-20s-20,8.954-20,20v10h-99V95c0-11.046-8.954-20-20-20s-20,8.954-20,20v10H91V80
	C91,57.944,108.944,40,131,40z M271,406v10c0,11.046,8.954,20,20,20s20-8.954,20-20v-10h30v10c0,11.046,8.954,20,20,20
	s20-8.954,20-20v-10h40v26c0,22.056-17.944,40-40,40H131c-22.056,0-40-17.944-40-40v-26H271z M381,236v-10c0-11.046-8.954-20-20-20
	s-20,8.954-20,20v10h-99v-10c0-11.046-8.954-20-20-20s-20,8.954-20,20v10h-30v-10c0-11.046-8.954-20-20-20s-20,8.954-20,20v10H91
	v-91h41v10c0,11.046,8.954,20,20,20s20-8.954,20-20v-10h99v10c0,11.046,8.954,20,20,20s20-8.954,20-20v-10h30v10
	c0,11.046,8.954,20,20,20s20-8.954,20-20v-10h40v91H381z"/>
<g>
</g>
<g>
</g>
<g>
</g>
<g>
</g>
<g>
</g>
<g>
</g>
<g>
</g>
<g>
</g>
<g>
</g>
<g>
</g>
<g>
</g>
<g>
</g>
<g>
</g>
<g>
</g>
<g>
</g>
</svg>
