<?xml version="1.0" encoding="iso-8859-1"?>
<!-- Generator: Adobe Illustrator 19.0.0, SVG Export Plug-In . SVG Version: 6.00 Build 0)  -->
<svg version="1.1" id="Capa_1" xmlns="http://www.w3.org/2000/svg" xmlns:xlink="http://www.w3.org/1999/xlink" x="0px" y="0px"
	 viewBox="0 0 512 512" style="enable-background:new 0 0 512 512;" xml:space="preserve">
<linearGradient id="SVGID_1_" gradientUnits="userSpaceOnUse" x1="40.5" y1="258" x2="471.5" y2="258" gradientTransform="matrix(1 0 0 -1 0 514)">
	<stop  offset="0" style="stop-color:#00F2FE"/>
	<stop  offset="0.021" style="stop-color:#03EFFE"/>
	<stop  offset="0.293" style="stop-color:#24D2FE"/>
	<stop  offset="0.554" style="stop-color:#3CBDFE"/>
	<stop  offset="0.796" style="stop-color:#4AB0FE"/>
	<stop  offset="1" style="stop-color:#4FACFE"/>
</linearGradient>
<path style="fill:url(#SVGID_1_);" d="M275.5,342.917V328h-0.766c-29.905,0-54.234-24.225-54.234-54c0-11.046,8.954-20,20-20
	s20,8.954,20,20c0,7.851,6.253,14,14.234,14h34.114c12.141,0,21.651-9.208,21.651-20.964v-10.882
	c0-12.009-9.915-22.154-21.651-22.154h-20.991c-16.464,0-31.886-6.333-43.423-17.831c-11.565-11.526-17.935-26.954-17.935-43.442
	v-3.096c0-29.733,21.07-54.615,49-60.375V92.083c0-11.046,8.954-20,20-20s20,8.954,20,20v16.472
	c11.524,1.641,22.112,6.913,30.392,15.258C355.957,133.958,361.5,147.52,361.5,162c0,11.046-8.954,20-20,20s-20-8.954-20-20
	c0-7.981-5.93-14-13.793-14h-19.85c-11.977,0-21.357,9.501-21.357,21.631v3.096c0,11.929,9.381,21.273,21.357,21.273h20.991
	c33.995,0,61.651,27.882,61.651,62.154v10.882c0,16.528-6.473,31.951-18.226,43.43c-10,9.765-22.87,15.731-36.774,17.179v15.272
	c0,11.046-8.954,20-20,20S275.5,353.963,275.5,342.917z M451.5,272c11.046,0,20-8.954,20-20V20c0-11.046-8.954-20-20-20h-351
	c-33.084,0-60,26.916-60,60v392c0,33.084,26.916,60,60,60h351c11.046,0,20-8.954,20-20s-8.954-20-20-20h-351
	c-11.028,0-20-8.972-20-20s8.972-20,20-20h351c11.046,0,20-8.954,20-20v-60c0-11.046-8.954-20-20-20s-20,8.954-20,20v40h-271V100
	c0-11.046-8.954-20-20-20s-20,8.954-20,20v292h-20c-7.011,0-13.74,1.22-20,3.44V60c0-11.028,8.972-20,20-20h331v212
	C431.5,263.046,440.454,272,451.5,272z"/>
<g>
</g>
<g>
</g>
<g>
</g>
<g>
</g>
<g>
</g>
<g>
</g>
<g>
</g>
<g>
</g>
<g>
</g>
<g>
</g>
<g>
</g>
<g>
</g>
<g>
</g>
<g>
</g>
<g>
</g>
</svg>
