<?xml version="1.0" encoding="iso-8859-1"?>
<!-- Generator: Adobe Illustrator 19.0.0, SVG Export Plug-In . SVG Version: 6.00 Build 0)  -->
<svg version="1.1" id="Capa_1" xmlns="http://www.w3.org/2000/svg" xmlns:xlink="http://www.w3.org/1999/xlink" x="0px" y="0px"
	 viewBox="0 0 512 512" style="enable-background:new 0 0 512 512;" xml:space="preserve">
<linearGradient id="SVGID_1_" gradientUnits="userSpaceOnUse" x1="0.5" y1="258" x2="511.5" y2="258" gradientTransform="matrix(1 0 0 -1 0 514)">
	<stop  offset="0" style="stop-color:#00F2FE"/>
	<stop  offset="0.021" style="stop-color:#03EFFE"/>
	<stop  offset="0.293" style="stop-color:#24D2FE"/>
	<stop  offset="0.554" style="stop-color:#3CBDFE"/>
	<stop  offset="0.796" style="stop-color:#4AB0FE"/>
	<stop  offset="1" style="stop-color:#4FACFE"/>
</linearGradient>
<path style="fill:url(#SVGID_1_);" d="M491.5,352c11.046,0,20-8.954,20-20V80c0-44.112-35.888-80-80-80h-75
	c-44.112,0-80,35.888-80,80v352c0,44.112,35.888,80,80,80h75c44.112,0,80-35.888,80-80c0-11.046-8.954-20-20-20s-20,8.954-20,20
	c0,22.056-17.944,40-40,40h-75c-22.056,0-40-17.944-40-40V312h155v20C471.5,343.046,480.454,352,491.5,352z M316.5,272V80
	c0-22.056,17.944-40,40-40h75c22.056,0,40,17.944,40,40v192H316.5z M414.5,100v112c0,11.046-8.954,20-20,20s-20-8.954-20-20V100
	c0-11.046,8.954-20,20-20S414.5,88.954,414.5,100z M394.5,352c22.091,0,40,17.909,40,40s-17.909,40-40,40s-40-17.909-40-40
	S372.409,352,394.5,352z M155.5,0h-75c-44.112,0-80,35.888-80,80v352c0,44.112,35.888,80,80,80h75c44.112,0,80-35.888,80-80
	c0-11.046-8.954-20-20-20s-20,8.954-20,20c0,22.056-17.944,40-40,40h-75c-22.056,0-40-17.944-40-40V312h155v20
	c0,11.046,8.954,20,20,20s20-8.954,20-20V80C235.5,35.888,199.612,0,155.5,0z M40.5,272V80c0-22.056,17.944-40,40-40h75
	c22.056,0,40,17.944,40,40v192H40.5z M138.5,100v112c0,11.046-8.954,20-20,20s-20-8.954-20-20V100c0-11.046,8.954-20,20-20
	S138.5,88.954,138.5,100z M118.5,352c22.091,0,40,17.909,40,40s-17.909,40-40,40s-40-17.909-40-40S96.409,352,118.5,352z"/>
<g>
</g>
<g>
</g>
<g>
</g>
<g>
</g>
<g>
</g>
<g>
</g>
<g>
</g>
<g>
</g>
<g>
</g>
<g>
</g>
<g>
</g>
<g>
</g>
<g>
</g>
<g>
</g>
<g>
</g>
</svg>
