<?xml version="1.0" encoding="iso-8859-1"?>
<!-- Generator: Adobe Illustrator 19.0.0, SVG Export Plug-In . SVG Version: 6.00 Build 0)  -->
<svg version="1.1" id="Capa_1" xmlns="http://www.w3.org/2000/svg" xmlns:xlink="http://www.w3.org/1999/xlink" x="0px" y="0px"
	 viewBox="0 0 512 512" style="enable-background:new 0 0 512 512;" xml:space="preserve">
<linearGradient id="SVGID_1_" gradientUnits="userSpaceOnUse" x1="0.5" y1="258" x2="511.5" y2="258" gradientTransform="matrix(1 0 0 -1 0 514)">
	<stop  offset="0" style="stop-color:#00F2FE"/>
	<stop  offset="0.021" style="stop-color:#03EFFE"/>
	<stop  offset="0.293" style="stop-color:#24D2FE"/>
	<stop  offset="0.554" style="stop-color:#3CBDFE"/>
	<stop  offset="0.796" style="stop-color:#4AB0FE"/>
	<stop  offset="1" style="stop-color:#4FACFE"/>
</linearGradient>
<path style="fill:url(#SVGID_1_);" d="M216.5,426.122V492c0,11.046-8.954,20-20,20s-20-8.954-20-20v-65.878c0-11.046,8.954-20,20-20
	S216.5,415.076,216.5,426.122z M236.5,326h-20V20c0-11.046-8.954-20-20-20s-20,8.954-20,20v306h-20c-11.046,0-20,8.954-20,20
	s8.954,20,20,20h80c11.046,0,20-8.954,20-20S247.546,326,236.5,326z M60.5,144.122c-11.046,0-20,8.954-20,20V492
	c0,11.046,8.954,20,20,20s20-8.954,20-20V164.122C80.5,153.076,71.546,144.122,60.5,144.122z M100.5,64.244h-20V20
	c0-11.046-8.954-20-20-20s-20,8.954-20,20v44.244h-20c-11.046,0-20,8.954-20,20s8.954,20,20,20h80c11.046,0,20-8.954,20-20
	S111.546,64.244,100.5,64.244z M451.5,171.168c-11.046,0-20,8.954-20,20V492c0,11.046,8.954,20,20,20s20-8.954,20-20V191.168
	C471.5,180.122,462.546,171.168,451.5,171.168z M491.5,91.122h-20V20c0-11.046-8.954-20-20-20s-20,8.954-20,20v71.122h-20
	c-11.046,0-20,8.954-20,20s8.954,20,20,20h80c11.046,0,20-8.954,20-20S502.546,91.122,491.5,91.122z M321.5,318.122
	c-11.046,0-20,8.954-20,20V492c0,11.046,8.954,20,20,20s20-8.954,20-20V338.122C341.5,327.076,332.546,318.122,321.5,318.122z
	 M361.5,238.244h-20V20c0-11.046-8.954-20-20-20s-20,8.954-20,20v218.244h-20c-11.046,0-20,8.954-20,20s8.954,20,20,20h80
	c11.046,0,20-8.954,20-20S372.546,238.244,361.5,238.244z"/>
<g>
</g>
<g>
</g>
<g>
</g>
<g>
</g>
<g>
</g>
<g>
</g>
<g>
</g>
<g>
</g>
<g>
</g>
<g>
</g>
<g>
</g>
<g>
</g>
<g>
</g>
<g>
</g>
<g>
</g>
</svg>
