<?xml version="1.0" encoding="iso-8859-1"?>
<!-- Generator: Adobe Illustrator 19.0.0, SVG Export Plug-In . SVG Version: 6.00 Build 0)  -->
<svg version="1.1" id="Capa_1" xmlns="http://www.w3.org/2000/svg" xmlns:xlink="http://www.w3.org/1999/xlink" x="0px" y="0px"
	 viewBox="0 0 512 512" style="enable-background:new 0 0 512 512;" xml:space="preserve">
<linearGradient id="SVGID_1_" gradientUnits="userSpaceOnUse" x1="0.0046" y1="257.9628" x2="512.0522" y2="257.9628" gradientTransform="matrix(0.9999 0 0 -0.9999 -0.0046 513.9384)">
	<stop  offset="0" style="stop-color:#00F2FE"/>
	<stop  offset="0.021" style="stop-color:#03EFFE"/>
	<stop  offset="0.293" style="stop-color:#24D2FE"/>
	<stop  offset="0.554" style="stop-color:#3CBDFE"/>
	<stop  offset="0.796" style="stop-color:#4AB0FE"/>
	<stop  offset="1" style="stop-color:#4FACFE"/>
</linearGradient>
<path style="fill:url(#SVGID_1_);" d="M506.956,396.963c-0.603-1.38-1.359-2.687-2.255-3.896l-44.247-59.734
	c-3.007-7.242-10.142-12.338-18.472-12.338H90.015v-209.98c0-22.054,17.942-39.996,39.996-39.996h251.976
	c22.054,0,39.996,17.942,39.996,39.996v129.988c0,11.045,8.953,19.998,19.998,19.998s19.998-8.953,19.998-19.998V111.014
	c0-44.108-35.885-79.993-79.992-79.993H130.012c-44.108,0-79.992,35.885-79.992,79.993v224.379L7.298,393.066
	c-0.896,1.21-1.653,2.517-2.255,3.896c-8.133,18.613-6.349,39.873,4.773,56.871c11.122,16.998,29.889,27.145,50.202,27.145h391.963
	c20.313,0,39.08-10.147,50.202-27.145C513.306,436.835,515.09,415.576,506.956,396.963z M468.716,431.933
	c-3.763,5.751-9.862,9.049-16.734,9.049H325.993c0-11.045-8.953-19.998-19.998-19.998h-99.991c-11.045,0-19.998,8.953-19.998,19.998
	H60.018c-6.872,0-12.972-3.298-16.734-9.049c-3.413-5.216-4.208-11.385-2.272-17.186l39.079-52.758h351.818l39.079,52.758
	C472.923,420.548,472.129,426.718,468.716,431.933z M152.01,160.009c11.045,0,19.998,8.953,19.998,19.998v1v78.993v1
	c0,11.045-8.953,19.998-19.998,19.998c-11.045,0-19.998-8.953-19.998-19.998v-1v-78.993v-1
	C132.011,168.962,140.965,160.009,152.01,160.009z M222.003,180.007c11.045,0,19.998,8.953,19.998,19.998v1v58.994v1
	c0,11.045-8.953,19.998-19.998,19.998c-11.045,0-19.998-8.953-19.998-19.998v-1v-58.994v-1
	C202.005,188.96,210.958,180.007,222.003,180.007z M361.99,211.004c11.045,0,19.998,8.953,19.998,19.998v1v27.997v1
	c0,11.045-8.953,19.998-19.998,19.998s-19.998-8.953-19.998-19.998v-1v-27.997v-1C341.992,219.957,350.945,211.004,361.99,211.004z
	 M291.996,110.014c11.045,0,19.998,8.953,19.998,19.998v1v128.988v1c0,11.045-8.953,19.998-19.998,19.998
	s-19.998-8.953-19.998-19.998v-1V131.012v-1C271.998,118.967,280.952,110.014,291.996,110.014z"/>
<g>
</g>
<g>
</g>
<g>
</g>
<g>
</g>
<g>
</g>
<g>
</g>
<g>
</g>
<g>
</g>
<g>
</g>
<g>
</g>
<g>
</g>
<g>
</g>
<g>
</g>
<g>
</g>
<g>
</g>
</svg>
