<?xml version="1.0" encoding="iso-8859-1"?>
<!-- Generator: Adobe Illustrator 19.0.0, SVG Export Plug-In . SVG Version: 6.00 Build 0)  -->
<svg version="1.1" id="Capa_1" xmlns="http://www.w3.org/2000/svg" xmlns:xlink="http://www.w3.org/1999/xlink" x="0px" y="0px"
	 viewBox="0 0 512 512" style="enable-background:new 0 0 512 512;" xml:space="preserve">
<linearGradient id="SVGID_1_" gradientUnits="userSpaceOnUse" x1="0.0075" y1="258" x2="511.9926" y2="258" gradientTransform="matrix(1 0 0 -1 0 514)">
	<stop  offset="0" style="stop-color:#00F2FE"/>
	<stop  offset="0.021" style="stop-color:#03EFFE"/>
	<stop  offset="0.293" style="stop-color:#24D2FE"/>
	<stop  offset="0.554" style="stop-color:#3CBDFE"/>
	<stop  offset="0.796" style="stop-color:#4AB0FE"/>
	<stop  offset="1" style="stop-color:#4FACFE"/>
</linearGradient>
<path style="fill:url(#SVGID_1_);" d="M510.583,393.362c-6.785,17.137-18.296,31.593-33.288,41.803
	C462.084,445.524,443.996,451,424.987,451h-8v41c0,11.046-8.954,20-20,20s-20-8.954-20-20v-41h-21c-44.112,0-80-35.888-80-80
	c0-11.046,8.954-20,20-20s20,8.954,20,20c0,22.056,17.944,40,40,40h69c21.954,0,40.501-12.4,48.404-32.362
	c4.066-10.27,15.687-15.301,25.958-11.233C509.62,371.471,514.649,383.092,510.583,393.362z M378.987,267h46
	c21.776,0,40.345,12.455,48.461,32.505c3.149,7.779,10.638,12.501,18.545,12.5c2.499,0,5.039-0.471,7.498-1.466
	c10.239-4.145,15.179-15.805,11.034-26.044C496.388,249.568,462.811,227,424.987,227h-46c-29.224,0-53-23.775-53-53v-20
	c0-29.225,23.776-53,53-53h44c22.056,0,40,17.944,40,40c0,11.046,8.954,20,20,20s20-8.954,20-20c0-44.112-35.888-80-80-80h-6V20
	c0-11.046-8.954-20-20-20s-20,8.954-20,20v41.025c-50.36,1.068-91,42.363-91,92.975v20C285.987,225.28,327.707,267,378.987,267z
	 M236.905,319.523c6.193,14.924,2.825,31.956-8.58,43.391l-73.312,73.498C145.631,445.819,133.152,451,119.876,451
	s-25.756-5.181-35.139-14.588l-73.13-73.541l0,0c-11.378-11.443-14.724-28.469-8.525-43.375C9.269,304.615,23.67,295,39.77,295
	h160.435C216.317,295,230.723,304.626,236.905,319.523z M199.672,335H40.302l72.777,73.186c2.44,2.446,5.307,2.814,6.797,2.814
	s4.356-0.368,6.817-2.836L199.672,335z M3.081,196.504c-6.199-14.906-2.853-31.932,8.525-43.375l0,0l73.109-73.52
	C94.12,70.181,106.599,65,119.875,65l0,0c13.276,0,25.755,5.181,35.138,14.588l73.311,73.498
	c11.405,11.435,14.773,28.467,8.58,43.391c-6.181,14.897-20.587,24.523-36.7,24.523H39.77C23.67,221,9.269,211.385,3.081,196.504z
	 M40.302,181h159.37l-72.979-73.164c-2.461-2.468-5.328-2.836-6.818-2.836s-4.357,0.368-6.818,2.836L40.302,181z"/>
<g>
</g>
<g>
</g>
<g>
</g>
<g>
</g>
<g>
</g>
<g>
</g>
<g>
</g>
<g>
</g>
<g>
</g>
<g>
</g>
<g>
</g>
<g>
</g>
<g>
</g>
<g>
</g>
<g>
</g>
</svg>
