<?xml version="1.0" encoding="iso-8859-1"?>
<!-- Generator: Adobe Illustrator 19.0.0, SVG Export Plug-In . SVG Version: 6.00 Build 0)  -->
<svg version="1.1" id="Capa_1" xmlns="http://www.w3.org/2000/svg" xmlns:xlink="http://www.w3.org/1999/xlink" x="0px" y="0px"
	 viewBox="0 0 512 512" style="enable-background:new 0 0 512 512;" xml:space="preserve">
<linearGradient id="SVGID_1_" gradientUnits="userSpaceOnUse" x1="0" y1="258" x2="512" y2="258" gradientTransform="matrix(1 0 0 -1 0 514)">
	<stop  offset="0" style="stop-color:#00F2FE"/>
	<stop  offset="0.021" style="stop-color:#03EFFE"/>
	<stop  offset="0.293" style="stop-color:#24D2FE"/>
	<stop  offset="0.554" style="stop-color:#3CBDFE"/>
	<stop  offset="0.796" style="stop-color:#4AB0FE"/>
	<stop  offset="1" style="stop-color:#4FACFE"/>
</linearGradient>
<path style="fill:url(#SVGID_1_);" d="M426,340c-26.583,0-50.387,12.124-66.174,31.131l-66.919-33.283
	c-9.889-4.916-21.895-0.89-26.813,9.001c-4.919,9.89-0.889,21.895,9.001,26.813l67.022,33.333C340.731,413.112,340,419.472,340,426
	c0,47.421,38.58,86,86,86s86-38.579,86-86S473.42,340,426,340z M426,472c-25.364,0-46-20.636-46-46
	c0-6.29,1.269-12.288,3.565-17.754c0.491-0.728,0.941-1.496,1.343-2.304c0.427-0.858,0.786-1.733,1.081-2.618
	C393.906,389.407,408.875,380,426,380c25.364,0,46,20.636,46,46S451.364,472,426,472z M202.071,292.298l-32.377-16.477
	C171.202,269.456,172,262.819,172,256c0-6.709-0.772-13.241-2.233-19.511l190.241-95.401C375.796,159.97,399.52,172,426,172
	c47.42,0,86-38.579,86-86S473.42,0,426,0s-86,38.579-86,86c0,6.627,0.754,13.081,2.179,19.281l-190.339,95.45
	C136.052,181.954,112.396,170,86,170c-47.42,0-86,38.579-86,86s38.58,86,86,86c26.282,0,49.848-11.851,65.635-30.488l32.293,16.435
	c2.906,1.479,6.003,2.18,9.055,2.18c7.286,0,14.31-3.995,17.841-10.933C215.834,309.349,211.916,297.308,202.071,292.298z M426,40
	c25.364,0,46,20.636,46,46s-20.636,46-46,46s-46-20.636-46-46S400.636,40,426,40z M86,302c-25.364,0-46-20.636-46-46
	s20.636-46,46-46s46,20.636,46,46S111.364,302,86,302z"/>
<g>
</g>
<g>
</g>
<g>
</g>
<g>
</g>
<g>
</g>
<g>
</g>
<g>
</g>
<g>
</g>
<g>
</g>
<g>
</g>
<g>
</g>
<g>
</g>
<g>
</g>
<g>
</g>
<g>
</g>
</svg>
