<?xml version="1.0" encoding="iso-8859-1"?>
<!-- Generator: Adobe Illustrator 19.0.0, SVG Export Plug-In . SVG Version: 6.00 Build 0)  -->
<svg version="1.1" id="Capa_1" xmlns="http://www.w3.org/2000/svg" xmlns:xlink="http://www.w3.org/1999/xlink" x="0px" y="0px"
	 viewBox="0 0 512 512" style="enable-background:new 0 0 512 512;" xml:space="preserve">
<linearGradient id="SVGID_1_" gradientUnits="userSpaceOnUse" x1="0" y1="258" x2="512" y2="258" gradientTransform="matrix(1 0 0 -1 0 514)">
	<stop  offset="0" style="stop-color:#00F2FE"/>
	<stop  offset="0.021" style="stop-color:#03EFFE"/>
	<stop  offset="0.293" style="stop-color:#24D2FE"/>
	<stop  offset="0.554" style="stop-color:#3CBDFE"/>
	<stop  offset="0.796" style="stop-color:#4AB0FE"/>
	<stop  offset="1" style="stop-color:#4FACFE"/>
</linearGradient>
<path style="fill:url(#SVGID_1_);" d="M432,512c44.112,0,80-35.888,80-80c0-11.046-8.954-20-20-20s-20,8.954-20,20
	c0,22.056-17.944,40-40,40H276V277h196v55c0,11.046,8.954,20,20,20s20-8.954,20-20V80c0-44.112-35.888-80-80-80H80
	C35.888,0,0,35.888,0,80l0,0v352l0,0c0,44.112,35.888,80,80,80H432 M40,80c0-22.056,17.944-40,40-40h156v197H40V80z M236,472H80
	c-22.056,0-40-17.944-40-40V277h196V472z M276,237V40h156c22.056,0,40,17.944,40,40v157H276z M196,138c0,11.046-8.954,20-20,20h-18
	v18c0,11.046-8.954,20-20,20s-20-8.954-20-20v-18h-18c-11.046,0-20-8.954-20-20s8.954-20,20-20h18v-18c0-11.046,8.954-20,20-20
	s20,8.954,20,20v18h18C187.046,118,196,126.954,196,138z M80,374c0-11.046,8.954-20,20-20h76c11.046,0,20,8.954,20,20
	s-8.954,20-20,20h-76C88.954,394,80,385.046,80,374z M118,324L118,324c0-11.046,8.954-20,20-20s20,8.954,20,20l0,0
	c0,11.046-8.954,20-20,20S118,335.046,118,324z M158,424L158,424c0,11.046-8.954,20-20,20s-20-8.954-20-20l0,0
	c0-11.046,8.954-20,20-20S158,412.954,158,424z M417.602,358.801l-15.357,15.357l15.357,15.357c7.811,7.811,7.811,20.475,0,28.285
	c-3.905,3.904-9.023,5.857-14.142,5.857s-10.237-1.953-14.142-5.857l-15.358-15.358L358.602,417.8
	c-3.905,3.904-9.023,5.857-14.142,5.857s-10.237-1.953-14.142-5.857c-7.811-7.811-7.811-20.475,0-28.285l15.357-15.357
	l-15.357-15.357c-7.811-7.811-7.811-20.475,0-28.285c7.811-7.809,20.474-7.809,28.284,0l15.358,15.358l15.358-15.358
	c7.811-7.809,20.474-7.809,28.284,0C425.413,338.326,425.413,350.99,417.602,358.801z M432,138c0,11.046-8.954,20-20,20h-76
	c-11.046,0-20-8.954-20-20s8.954-20,20-20h76C423.046,118,432,126.954,432,138z"/>
<g>
</g>
<g>
</g>
<g>
</g>
<g>
</g>
<g>
</g>
<g>
</g>
<g>
</g>
<g>
</g>
<g>
</g>
<g>
</g>
<g>
</g>
<g>
</g>
<g>
</g>
<g>
</g>
<g>
</g>
</svg>
