<?xml version="1.0" encoding="iso-8859-1"?>
<!-- Generator: Adobe Illustrator 19.0.0, SVG Export Plug-In . SVG Version: 6.00 Build 0)  -->
<svg version="1.1" id="Capa_1" xmlns="http://www.w3.org/2000/svg" xmlns:xlink="http://www.w3.org/1999/xlink" x="0px" y="0px"
	 viewBox="0 0 512.001 512.001" style="enable-background:new 0 0 512.001 512.001;" xml:space="preserve">
<linearGradient id="SVGID_1_" gradientUnits="userSpaceOnUse" x1="-0.0792" y1="258.6382" x2="511.0937" y2="258.6382" gradientTransform="matrix(1.0016 0 0 -1.0016 0.0794 515.0577)">
	<stop  offset="0" style="stop-color:#00F2FE"/>
	<stop  offset="0.021" style="stop-color:#03EFFE"/>
	<stop  offset="0.293" style="stop-color:#24D2FE"/>
	<stop  offset="0.554" style="stop-color:#3CBDFE"/>
	<stop  offset="0.796" style="stop-color:#4AB0FE"/>
	<stop  offset="1" style="stop-color:#4FACFE"/>
</linearGradient>
<path style="fill:url(#SVGID_1_);" d="M267.432,257.517c0,11.064-8.969,20.032-20.032,20.032H101.164
	c-11.064,0-20.032-8.969-20.032-20.032s8.969-20.032,20.032-20.032H247.4C258.464,237.485,267.432,246.454,267.432,257.517z
	 M162.262,317.615h-61.099c-11.064,0-20.032,8.969-20.032,20.032c0,11.064,8.969,20.032,20.032,20.032h61.099
	c11.064,0,20.032-8.969,20.032-20.032C182.295,326.583,173.326,317.615,162.262,317.615z M247.4,157.355h-4.118H101.164
	c-11.064,0-20.032,8.968-20.032,20.032c0,11.064,8.969,20.032,20.032,20.032h142.119h4.118c11.064,0,20.032-8.969,20.032-20.032
	C267.432,166.324,258.464,157.355,247.4,157.355z M348.564,111.266v290.425c0,44.173-35.937,80.119-80.11,80.13L80.15,481.865
	c-0.005,0-0.014,0-0.02,0c-21.402,0-41.518-8.33-56.654-23.463C8.337,443.268,0,423.142,0,401.736v-290.47
	c0-44.183,35.946-80.13,80.13-80.13h188.305C312.618,31.136,348.564,67.082,348.564,111.266z M308.499,111.266
	c0-22.092-17.973-40.065-40.065-40.065H80.13c-22.092,0-40.065,17.973-40.065,40.065v290.47c0,10.704,4.169,20.766,11.738,28.333
	C59.37,437.635,69.429,441.8,80.13,441.8c0.003,0,0.006,0,0.009,0l188.305-0.045c22.087-0.005,40.055-17.978,40.055-40.065V111.266
	H308.499z M471.858,301.566l0.06-162.254h-40.074l-0.142,257.663l19.258,28.762l24.521-34.584c6.4-9.027,18.904-11.155,27.928-4.756
	c9.026,6.399,11.154,18.904,4.755,27.928l-41.335,58.299c-3.759,5.303-9.853,8.447-16.34,8.447c-0.089,0-0.179-0.001-0.269-0.002
	c-6.589-0.088-12.712-3.41-16.378-8.885l-38.821-57.981c-2.211-3.3-3.388-7.184-3.386-11.156l0.172-312.824
	c0-33.127,26.96-60.086,60.097-60.086s60.097,26.96,60.097,60.097l-0.078,211.35c-0.004,11.061-8.973,20.024-20.032,20.024
	c-0.002,0-0.005,0-0.007,0C480.82,321.602,471.854,312.63,471.858,301.566z M471.932,99.246l0.003-9.023
	c0-11.039-8.987-20.024-20.032-20.024c-11.046,0-20.032,8.987-20.032,20.032l-0.005,9.015H471.932z"/>
<g>
</g>
<g>
</g>
<g>
</g>
<g>
</g>
<g>
</g>
<g>
</g>
<g>
</g>
<g>
</g>
<g>
</g>
<g>
</g>
<g>
</g>
<g>
</g>
<g>
</g>
<g>
</g>
<g>
</g>
</svg>
