<?xml version="1.0" encoding="iso-8859-1"?>
<!-- Generator: Adobe Illustrator 19.0.0, SVG Export Plug-In . SVG Version: 6.00 Build 0)  -->
<svg version="1.1" id="Capa_1" xmlns="http://www.w3.org/2000/svg" xmlns:xlink="http://www.w3.org/1999/xlink" x="0px" y="0px"
	 viewBox="0 0 511.999 511.999" style="enable-background:new 0 0 511.999 511.999;" xml:space="preserve">
<linearGradient id="SVGID_1_" gradientUnits="userSpaceOnUse" x1="0.0025" y1="257.9966" x2="512.0024" y2="257.9966" gradientTransform="matrix(1 0 0 -1 -4.789832e-004 513.9936)">
	<stop  offset="0" style="stop-color:#00F2FE"/>
	<stop  offset="0.021" style="stop-color:#03EFFE"/>
	<stop  offset="0.293" style="stop-color:#24D2FE"/>
	<stop  offset="0.554" style="stop-color:#3CBDFE"/>
	<stop  offset="0.796" style="stop-color:#4AB0FE"/>
	<stop  offset="1" style="stop-color:#4FACFE"/>
</linearGradient>
<path style="fill:url(#SVGID_1_);" d="M373.924,339.445c11.07,11.693,14.135,28.292,7.996,43.321
	c-6.11,14.959-19.855,24.621-35.872,25.217c-0.247,0.009-0.494,0.014-0.742,0.014h-18.501l36.219,75.333
	c4.786,9.955,0.596,21.905-9.359,26.691c-2.794,1.343-5.746,1.979-8.651,1.979c-7.448,0-14.597-4.178-18.04-11.339l-50-103.999
	c-2.979-6.197-2.566-13.491,1.095-19.313c3.66-5.821,10.055-9.354,16.931-9.354h49.686c0.167-0.184,0.327-0.613,0.317-0.855
	l-105.406-95.097c-0.049-0.034-0.081-0.051-0.093-0.056c-0.002,0-0.004,0-0.005,0c-0.104,0-0.368,0.11-0.49,0.219
	c-0.004,0.035-0.008,0.089-0.008,0.163v149.275c0,0.541,0.834,1.215,1.28,1.353c10.976,0.152,19.791,9.133,19.72,20.129
	c-0.072,11-9.014,19.868-19.997,19.869c-0.045,0-0.089,0-0.134,0c-22.153-0.146-40.869-19.081-40.869-41.351V272.37
	c0-15.846,8.938-29.851,23.327-36.55c14.433-6.722,30.963-4.532,43.141,5.708c0.178,0.149,0.353,0.302,0.524,0.457l106.807,96.36
	C373.188,338.698,373.563,339.064,373.924,339.445z M139.001,251.998H20.002c-11.046,0-20,8.954-20,20c0,11.046,8.954,20,20,20
	h118.999c11.046,0,20-8.954,20-20C159,260.951,150.047,251.998,139.001,251.998z M491.997,251.998H372.998c-11.046,0-20,8.954-20,20
	c0,11.046,8.954,20,20,20h118.999c11.046,0,20-8.954,20-20C511.997,260.951,503.043,251.998,491.997,251.998z M0.002,191.998V20
	c0-11.046,8.954-20,20-20h53.711c33.912,0,61.501,27.59,61.501,61.501c0,7.163-1.227,14.192-3.646,20.892
	c-1.529,4.234-3.506,8.218-5.852,11.923c16.546,11.342,27.584,30.22,28.234,51.685c0.016,0.333,0.05,0.661,0.05,0.997
	c0,0.168-0.011,0.333-0.013,0.501c0.001,0.167,0.013,0.332,0.013,0.499c0,0.334-0.034,0.659-0.05,0.989
	c-1.046,34.922-29.476,63.01-64.295,63.01H20.002C8.957,211.998,0.002,203.044,0.002,191.998z M113.989,147.501
	c-0.272-13.286-11.375-24.417-24.495-24.417H40.002v48.915h49.653C102.688,171.998,113.716,160.831,113.989,147.501z M73.713,40
	H40.002v43.085h32.088c0.538-0.043,1.076-0.082,1.625-0.082c9.036,0,17.168-5.704,20.233-14.195c0.842-2.33,1.269-4.788,1.269-7.306
	C95.215,49.646,85.57,40,73.713,40z M258.999,211.998c39.701,0,71.999-32.299,71.999-71.999V20c0-11.046-8.954-20-20-20
	c-11.046,0-20,8.954-20,20v119.999c0,17.645-14.355,32-32,32c-17.645,0-32-14.355-32-32V20c0-11.046-8.954-20-20-20s-20,8.954-20,20
	v119.999C187,179.699,219.299,211.998,258.999,211.998z M491.997,0c-11.046,0-20,8.954-20,20v40c0,17.645-14.355,32-32,32
	c-17.645,0-32-14.355-32-32V20c0-11.046-8.954-20-20-20s-20,8.954-20,20v40c0,39.701,32.299,71.999,71.999,71.999
	c11.491,0,22.353-2.72,32-7.528v15.528c0,17.645-14.355,32-32,32h-51.999c-11.046,0-20,8.954-20,20s8.954,20,20,20h51.999
	c39.701,0,71.999-32.299,71.999-71.999V59.999V20C511.997,8.954,503.043,0,491.997,0z"/>
<g>
</g>
<g>
</g>
<g>
</g>
<g>
</g>
<g>
</g>
<g>
</g>
<g>
</g>
<g>
</g>
<g>
</g>
<g>
</g>
<g>
</g>
<g>
</g>
<g>
</g>
<g>
</g>
<g>
</g>
</svg>
