<?xml version="1.0" encoding="iso-8859-1"?>
<!-- Generator: Adobe Illustrator 19.0.0, SVG Export Plug-In . SVG Version: 6.00 Build 0)  -->
<svg version="1.1" id="Capa_1" xmlns="http://www.w3.org/2000/svg" xmlns:xlink="http://www.w3.org/1999/xlink" x="0px" y="0px"
	 viewBox="0 0 512 512" style="enable-background:new 0 0 512 512;" xml:space="preserve">
<linearGradient id="SVGID_1_" gradientUnits="userSpaceOnUse" x1="0" y1="258" x2="512" y2="258" gradientTransform="matrix(1 0 0 -1 0 514)">
	<stop  offset="0" style="stop-color:#00F2FE"/>
	<stop  offset="0.021" style="stop-color:#03EFFE"/>
	<stop  offset="0.293" style="stop-color:#24D2FE"/>
	<stop  offset="0.554" style="stop-color:#3CBDFE"/>
	<stop  offset="0.796" style="stop-color:#4AB0FE"/>
	<stop  offset="1" style="stop-color:#4FACFE"/>
</linearGradient>
<path style="fill:url(#SVGID_1_);" d="M243.548,157H20c-11.046,0-20-8.954-20-20s8.954-20,20-20h223.645
	c1.325-25.434,5.043-51.124,11.14-77H232c-11.046,0-20-8.954-20-20s8.954-20,20-20h210c11.046,0,20,8.954,20,20s-8.954,20-20,20
	h-25.761c7.975,31.16,12.346,62.199,12.988,92.577c0.234,11.043-8.529,20.185-19.572,20.418c-0.144,0.004-0.288,0.005-0.432,0.005
	c-10.85,0-19.756-8.678-19.986-19.577c-0.646-30.516-5.49-61.883-14.408-93.423h-78.854c-8.456,32.483-12.806,64.121-13.065,95.228
	c0.051,0.585,0.089,1.174,0.089,1.772c0,0.715-0.041,1.42-0.114,2.116c0.085,32.407,4.635,64.25,13.643,95.884h79.297
	c1.726-5.979,3.309-11.976,4.693-17.938c2.5-10.759,13.255-17.45,24.007-14.956c10.76,2.5,17.455,13.248,14.956,24.007
	c-0.687,2.957-1.417,5.921-2.181,8.888H442c11.046,0,20,8.954,20,20c0,11.046-8.954,20-20,20H232c-11.046,0-20-8.954-20-20
	s8.954-20,20-20h23.145C248.663,209.371,244.794,183.345,243.548,157z M512,492c0,11.046-8.954,20-20,20H182
	c-11.046,0-20-8.954-20-20s8.954-20,20-20h12.679l39.956-69.923C238.196,395.846,244.823,392,252,392h170
	c7.177,0,13.804,3.846,17.365,10.077L479.321,472H492C503.046,472,512,480.954,512,492z M240.75,472h192.5l-22.857-40H263.606
	L240.75,472z"/>
<g>
</g>
<g>
</g>
<g>
</g>
<g>
</g>
<g>
</g>
<g>
</g>
<g>
</g>
<g>
</g>
<g>
</g>
<g>
</g>
<g>
</g>
<g>
</g>
<g>
</g>
<g>
</g>
<g>
</g>
</svg>
