<?xml version="1.0" encoding="iso-8859-1"?>
<!-- Generator: Adobe Illustrator 19.0.0, SVG Export Plug-In . SVG Version: 6.00 Build 0)  -->
<svg version="1.1" id="Capa_1" xmlns="http://www.w3.org/2000/svg" xmlns:xlink="http://www.w3.org/1999/xlink" x="0px" y="0px"
	 viewBox="0 0 512 512" style="enable-background:new 0 0 512 512;" xml:space="preserve">
<linearGradient id="SVGID_1_" gradientUnits="userSpaceOnUse" x1="0.0031" y1="257.9792" x2="512.0291" y2="257.9792" gradientTransform="matrix(0.9999 0 0 -0.9999 -0.0026 513.9656)">
	<stop  offset="0" style="stop-color:#00F2FE"/>
	<stop  offset="0.021" style="stop-color:#03EFFE"/>
	<stop  offset="0.293" style="stop-color:#24D2FE"/>
	<stop  offset="0.554" style="stop-color:#3CBDFE"/>
	<stop  offset="0.796" style="stop-color:#4AB0FE"/>
	<stop  offset="1" style="stop-color:#4FACFE"/>
</linearGradient>
<path style="fill:url(#SVGID_1_);" d="M114.996,132.995c-5.19,0-10.376-2.008-14.293-6.011L54.706,79.987
	c-7.727-7.894-7.59-20.556,0.304-28.281c7.895-7.726,20.556-7.591,28.281,0.304l45.998,46.998c7.727,7.894,7.59,20.556-0.304,28.281
	C125.093,131.097,120.043,132.995,114.996,132.995z M204.991,86.997V20.001c0-11.045-8.954-19.999-19.999-19.999
	s-19.999,8.954-19.999,19.999v66.996c0,11.045,8.954,19.999,19.999,19.999S204.991,98.043,204.991,86.997z M106.996,181.992
	c0-11.045-8.954-19.999-19.999-19.999H20c-11.045,0-19.999,8.954-19.999,19.999c0,11.045,8.954,19.999,19.999,19.999h66.996
	C98.042,201.991,106.996,193.038,106.996,181.992z M456.992,460.296c7.894-7.726,8.03-20.388,0.304-28.281l-45.998-46.998
	c-7.726-7.895-20.387-8.029-28.281-0.304c-7.894,7.726-8.03,20.388-0.304,28.281l45.998,46.998
	c3.917,4.003,9.104,6.011,14.293,6.011C448.051,466.002,453.101,464.105,456.992,460.296z M347.008,492.001v-66.996
	c0-11.045-8.954-19.999-19.999-19.999c-11.045,0-19.999,8.954-19.999,19.999v66.996c0,11.045,8.954,19.999,19.999,19.999
	C338.055,512,347.008,503.046,347.008,492.001z M512,330.01c0-11.045-8.954-19.999-19.999-19.999h-66.996
	c-11.045,0-19.999,8.954-19.999,19.999s8.954,19.999,19.999,19.999h66.996C503.046,350.009,512,341.055,512,330.01z
	 M347.187,290.951c35.726-2.154,71.984-20.631,104.858-53.431c0.345-0.346,0.678-0.703,0.997-1.072l1.576-1.821l1.824-1.578
	c0.366-0.317,0.722-0.648,1.064-0.991c35.633-35.686,54.467-74.061,54.467-110.978c0-30.566-12.556-58.604-37.319-83.333
	c-4.688-4.683-9.608-9.006-14.621-12.847l-0.954-0.732c-0.609-0.58-1.257-1.123-1.938-1.624C436.826,7.585,414.538,0,390.894,0
	c-36.891,0-75.265,18.834-110.974,54.464c-0.348,0.348-0.683,0.708-1.005,1.08l-1.567,1.813l-1.819,1.573
	c-0.37,0.32-0.728,0.653-1.073,0.999c-35.631,35.686-54.465,74.061-54.465,110.974c0,15.776,3.686,31.49,10.952,46.707
	c4.76,9.967,16.698,14.185,26.666,9.426c9.966-4.761,14.187-16.698,9.427-26.666c-4.676-9.789-7.047-19.704-7.047-29.467
	c0-25.93,14.61-54.342,42.266-82.205l2.354-2.035c0.732-0.634,1.418-1.319,2.052-2.052l2.026-2.345
	c27.883-27.656,56.298-42.269,82.208-42.269c14.417,0,28.26,4.632,41.171,13.77c0.41,0.373,0.837,0.729,1.278,1.067l2.354,1.806
	c3.638,2.788,7.236,5.954,10.695,9.409c16.976,16.952,25.584,35.467,25.584,55.029c0,25.934-14.611,54.348-42.269,82.212
	l-2.354,2.037c-0.727,0.629-1.407,1.31-2.036,2.037l-2.03,2.347c-25.709,25.485-52.842,39.767-78.508,41.314
	c-11.024,0.665-19.424,10.141-18.759,21.167c0.641,10.615,9.449,18.796,19.944,18.796
	C346.369,290.988,346.778,290.975,347.187,290.951z M232.056,457.511c0.348-0.348,0.683-0.708,1.005-1.08l1.567-1.813l1.819-1.573
	c0.37-0.32,0.728-0.653,1.073-0.999c35.631-35.686,54.465-74.061,54.465-110.974c0-15.774-3.686-31.488-10.952-46.705
	c-4.76-9.967-16.699-14.185-26.666-9.427c-9.966,4.761-14.187,16.698-9.427,26.666c4.676,9.789,7.047,19.703,7.047,29.465
	c0,25.93-14.61,54.342-42.266,82.205l-2.354,2.035c-0.732,0.634-1.418,1.319-2.052,2.052l-2.026,2.345
	c-27.885,27.656-56.3,42.27-82.21,42.27c-14.417,0-28.261-4.632-41.171-13.77c-0.41-0.373-0.837-0.729-1.278-1.067l-2.354-1.806
	c-3.638-2.788-7.236-5.954-10.695-9.409c-16.976-16.952-25.584-35.467-25.584-55.029c0-25.933,14.614-54.349,42.269-82.211
	l2.354-2.038c0.727-0.629,1.407-1.31,2.036-2.037l2.032-2.348c26.432-26.219,53.221-40.848,77.506-42.311
	c11.024-0.665,19.424-10.141,18.759-21.167c-0.666-11.024-10.123-19.431-21.167-18.759c-34.823,2.1-69.767,20.413-103.859,54.429
	c-0.345,0.346-0.678,0.703-0.997,1.072l-1.576,1.82l-1.824,1.579c-0.366,0.317-0.722,0.648-1.064,0.991
	C18.834,315.604,0,353.979,0,390.896c0,30.566,12.556,58.604,37.319,83.333c4.688,4.683,9.608,9.006,14.621,12.847l0.954,0.732
	c0.609,0.58,1.257,1.123,1.938,1.624c20.316,14.958,42.605,22.543,66.249,22.543C157.972,511.975,196.346,493.141,232.056,457.511z"
	/>
<g>
</g>
<g>
</g>
<g>
</g>
<g>
</g>
<g>
</g>
<g>
</g>
<g>
</g>
<g>
</g>
<g>
</g>
<g>
</g>
<g>
</g>
<g>
</g>
<g>
</g>
<g>
</g>
<g>
</g>
</svg>
