<?xml version="1.0" encoding="iso-8859-1"?>
<!-- Generator: Adobe Illustrator 19.0.0, SVG Export Plug-In . SVG Version: 6.00 Build 0)  -->
<svg version="1.1" id="Capa_1" xmlns="http://www.w3.org/2000/svg" xmlns:xlink="http://www.w3.org/1999/xlink" x="0px" y="0px"
	 viewBox="0 0 512 512" style="enable-background:new 0 0 512 512;" xml:space="preserve">
<linearGradient id="SVGID_1_" gradientUnits="userSpaceOnUse" x1="0" y1="258" x2="512" y2="258" gradientTransform="matrix(1 0 0 -1 0 514)">
	<stop  offset="0" style="stop-color:#00F2FE"/>
	<stop  offset="0.021" style="stop-color:#03EFFE"/>
	<stop  offset="0.293" style="stop-color:#24D2FE"/>
	<stop  offset="0.554" style="stop-color:#3CBDFE"/>
	<stop  offset="0.796" style="stop-color:#4AB0FE"/>
	<stop  offset="1" style="stop-color:#4FACFE"/>
</linearGradient>
<path style="fill:url(#SVGID_1_);" d="M492,290.5c11.046,0,20-8.954,20-20v-90c0-44.112-35.888-80-80-80h-81.299
	c-7.39-30.216-31.98-53.742-62.769-59.581c1.314-0.273,2.675-0.419,4.069-0.419c11.045-0.001,19.999-8.955,19.998-20.001
	C311.999,9.454,303.045,0.5,292,0.5h-0.002H137.002c-25.696,0.002-47.662,16.246-56.193,39H80c-44.112,0-80,35.888-80,80v312
	c0,44.112,35.888,80,80,80h193c37.565,0,69.149-26.032,77.701-61H432c44.112,0,80-35.888,80-80c0-11.046-8.954-20-20-20
	s-20,8.954-20,20c0,22.056-17.944,40-40,40h-79v-270h79c22.056,0,40,17.944,40,40v90C472,281.546,480.954,290.5,492,290.5z
	 M117.008,60.5c0-11.027,8.971-19.999,19.996-20h98.428c-2.22,6.26-3.428,12.991-3.428,20.002l0.002,29.998h-115L117.008,60.5z
	 M273,471.5H80c-22.056,0-40-17.944-40-40v-312c0-21.048,16.345-38.338,37.006-39.876l-0.002,30.874
	c0,5.305,2.106,10.393,5.857,14.144c3.751,3.751,8.838,5.858,14.143,5.858h155.004c5.305,0,10.392-2.107,14.143-5.858
	s5.857-8.839,5.857-14.144L272.005,79.5H273c22.056,0,40,17.944,40,40v46H100c-11.046,0-20,8.954-20,20s8.954,20,20,20h213v226
	C313,453.556,295.056,471.5,273,471.5z M422,180.5c11.046,0,20,8.954,20,20v100c0,11.046-8.954,20-20,20s-20-8.954-20-20v-100
	C402,189.454,410.954,180.5,422,180.5z M121,260.5L121,260.5c0,11.046-8.954,20-20,20s-20-8.954-20-20l0,0c0-11.046,8.954-20,20-20
	S121,249.454,121,260.5z M197,260.5L197,260.5c0,11.046-8.954,20-20,20s-20-8.954-20-20l0,0c0-11.046,8.954-20,20-20
	S197,249.454,197,260.5z M272,260.5L272,260.5c0,11.046-8.954,20-20,20s-20-8.954-20-20l0,0c0-11.046,8.954-20,20-20
	C263.046,240.5,272,249.454,272,260.5z M121,336.5L121,336.5c0,11.046-8.954,20-20,20s-20-8.954-20-20l0,0c0-11.046,8.954-20,20-20
	S121,325.454,121,336.5z M197,336.5L197,336.5c0,11.046-8.954,20-20,20s-20-8.954-20-20l0,0c0-11.046,8.954-20,20-20
	S197,325.454,197,336.5z M272,336.5L272,336.5c0,11.046-8.954,20-20,20s-20-8.954-20-20l0,0c0-11.046,8.954-20,20-20
	C263.046,316.5,272,325.454,272,336.5z M121,412.5L121,412.5c0,11.046-8.954,20-20,20s-20-8.954-20-20l0,0c0-11.046,8.954-20,20-20
	S121,401.454,121,412.5z M197,412.5L197,412.5c0,11.046-8.954,20-20,20s-20-8.954-20-20l0,0c0-11.046,8.954-20,20-20
	S197,401.454,197,412.5z M272,412.5L272,412.5c0,11.046-8.954,20-20,20s-20-8.954-20-20l0,0c0-11.046,8.954-20,20-20
	C263.046,392.5,272,401.454,272,412.5z"/>
<g>
</g>
<g>
</g>
<g>
</g>
<g>
</g>
<g>
</g>
<g>
</g>
<g>
</g>
<g>
</g>
<g>
</g>
<g>
</g>
<g>
</g>
<g>
</g>
<g>
</g>
<g>
</g>
<g>
</g>
</svg>
