<?xml version="1.0" encoding="iso-8859-1"?>
<!-- Generator: Adobe Illustrator 19.0.0, SVG Export Plug-In . SVG Version: 6.00 Build 0)  -->
<svg version="1.1" id="Capa_1" xmlns="http://www.w3.org/2000/svg" xmlns:xlink="http://www.w3.org/1999/xlink" x="0px" y="0px"
	 viewBox="0 0 512 512" style="enable-background:new 0 0 512 512;" xml:space="preserve">
<linearGradient id="SVGID_1_" gradientUnits="userSpaceOnUse" x1="0" y1="258" x2="512" y2="258" gradientTransform="matrix(1 0 0 -1 0 514)">
	<stop  offset="0" style="stop-color:#00F2FE"/>
	<stop  offset="0.021" style="stop-color:#03EFFE"/>
	<stop  offset="0.293" style="stop-color:#24D2FE"/>
	<stop  offset="0.554" style="stop-color:#3CBDFE"/>
	<stop  offset="0.796" style="stop-color:#4AB0FE"/>
	<stop  offset="1" style="stop-color:#4FACFE"/>
</linearGradient>
<path style="fill:url(#SVGID_1_);" d="M256,512c-68.38,0-132.667-26.629-181.02-74.98C26.629,388.667,0,324.38,0,256
	S26.629,123.333,74.98,74.98C123.333,26.629,187.62,0,256,0s132.667,26.629,181.02,74.98C485.371,123.333,512,187.62,512,256
	c0,50.53-14.998,99.674-43.374,142.116c-6.138,9.182-18.558,11.649-27.742,5.51c-9.182-6.139-11.649-18.56-5.51-27.742
	C459.335,340.044,472,298.589,472,256c0-119.103-96.897-216-216-216S40,136.897,40,256s96.897,216,216,216
	c39.505,0,78.144-10.756,111.737-31.106c9.446-5.724,21.745-2.705,27.469,6.744c5.723,9.447,2.703,21.745-6.744,27.469
	C348.617,499.242,302.813,512,256,512z M376,308c0-11.046-8.954-20-20-20H156c-11.046,0-20,8.954-20,20c0,66.168,53.832,120,120,120
	S376,374.168,376,308z M333.469,328c-8.902,34.466-40.26,60-77.469,60s-68.566-25.534-77.469-60H333.469z M400,216
	c0-11.046-8.954-20-20-20h-38.761l11.072-19.869c5.377-9.648,1.913-21.829-7.735-27.206c-9.651-5.379-21.831-1.913-27.206,7.735
	l-27.642,49.604c-3.451,6.194-3.365,13.753,0.227,19.867c3.593,6.113,10.153,9.868,17.244,9.868H380
	C391.046,236,400,227.046,400,216z M218.244,226.132c3.592-6.114,3.678-13.673,0.227-19.867l-27.642-49.604
	c-5.377-9.649-17.557-13.111-27.206-7.735c-9.648,5.377-13.112,17.558-7.735,27.206L166.96,196h-38.761c-11.046,0-20,8.954-20,20
	s8.954,20,20,20H201C208.091,236,214.651,232.245,218.244,226.132z"/>
<g>
</g>
<g>
</g>
<g>
</g>
<g>
</g>
<g>
</g>
<g>
</g>
<g>
</g>
<g>
</g>
<g>
</g>
<g>
</g>
<g>
</g>
<g>
</g>
<g>
</g>
<g>
</g>
<g>
</g>
</svg>
