<?xml version="1.0" encoding="iso-8859-1"?>
<!-- Generator: Adobe Illustrator 19.0.0, SVG Export Plug-In . SVG Version: 6.00 Build 0)  -->
<svg version="1.1" id="Capa_1" xmlns="http://www.w3.org/2000/svg" xmlns:xlink="http://www.w3.org/1999/xlink" x="0px" y="0px"
	 viewBox="0 0 512 512" style="enable-background:new 0 0 512 512;" xml:space="preserve">
<linearGradient id="SVGID_1_" gradientUnits="userSpaceOnUse" x1="0" y1="258" x2="512" y2="258" gradientTransform="matrix(1 0 0 -1 0 514)">
	<stop  offset="0" style="stop-color:#00F2FE"/>
	<stop  offset="0.021" style="stop-color:#03EFFE"/>
	<stop  offset="0.293" style="stop-color:#24D2FE"/>
	<stop  offset="0.554" style="stop-color:#3CBDFE"/>
	<stop  offset="0.796" style="stop-color:#4AB0FE"/>
	<stop  offset="1" style="stop-color:#4FACFE"/>
</linearGradient>
<path style="fill:url(#SVGID_1_);" d="M512,256c0,50.53-14.998,99.674-43.374,142.116c-6.138,9.182-18.558,11.651-27.742,5.51
	c-9.182-6.139-11.649-18.56-5.51-27.742C459.335,340.044,472,298.589,472,256c0-119.103-96.897-216-216-216S40,136.897,40,256
	s96.897,216,216,216c39.505,0,78.144-10.756,111.737-31.106c9.448-5.723,21.745-2.705,27.469,6.744
	c5.723,9.447,2.703,21.745-6.744,27.469C348.617,499.242,302.813,512,256,512c-68.38,0-132.667-26.629-181.02-74.98
	C26.629,388.667,0,324.38,0,256S26.629,123.333,74.98,74.98C123.333,26.629,187.62,0,256,0s132.667,26.629,181.02,74.98
	C485.371,123.333,512,187.62,512,256z M173,236c-27.57,0-50-22.43-50-50s22.43-50,50-50s50,22.43,50,50S200.57,236,173,236z
	 M183,186c0-5.514-4.486-10-10-10s-10,4.486-10,10s4.486,10,10,10S183,191.514,183,186z M288,326c0-27.57,22.43-50,50-50
	s50,22.43,50,50s-22.43,50-50,50S288,353.57,288,326z M328,326c0,5.514,4.486,10,10,10s10-4.486,10-10s-4.486-10-10-10
	S328,320.486,328,326z M194.3,373.594c3.024,1.635,6.281,2.41,9.493,2.41c7.109,0,13.994-3.801,17.611-10.493l108.108-200
	c5.253-9.718,1.634-21.853-8.083-27.104c-9.719-5.253-21.854-1.633-27.104,8.083l-108.108,200
	C180.964,356.207,184.583,368.342,194.3,373.594z"/>
<g>
</g>
<g>
</g>
<g>
</g>
<g>
</g>
<g>
</g>
<g>
</g>
<g>
</g>
<g>
</g>
<g>
</g>
<g>
</g>
<g>
</g>
<g>
</g>
<g>
</g>
<g>
</g>
<g>
</g>
</svg>
