<?xml version="1.0" encoding="iso-8859-1"?>
<!-- Generator: Adobe Illustrator 19.0.0, SVG Export Plug-In . SVG Version: 6.00 Build 0)  -->
<svg version="1.1" id="Capa_1" xmlns="http://www.w3.org/2000/svg" xmlns:xlink="http://www.w3.org/1999/xlink" x="0px" y="0px"
	 viewBox="0 0 512 512" style="enable-background:new 0 0 512 512;" xml:space="preserve">
<linearGradient id="SVGID_1_" gradientUnits="userSpaceOnUse" x1="0" y1="258" x2="512" y2="258" gradientTransform="matrix(1 0 0 -1 0 514)">
	<stop  offset="0" style="stop-color:#00F2FE"/>
	<stop  offset="0.021" style="stop-color:#03EFFE"/>
	<stop  offset="0.293" style="stop-color:#24D2FE"/>
	<stop  offset="0.554" style="stop-color:#3CBDFE"/>
	<stop  offset="0.796" style="stop-color:#4AB0FE"/>
	<stop  offset="1" style="stop-color:#4FACFE"/>
</linearGradient>
<path style="fill:url(#SVGID_1_);" d="M492,377c11.046,0,20-8.954,20-20V84c0-8.089-4.873-15.382-12.347-18.478
	c-7.471-3.095-16.075-1.385-21.796,4.335l-49.905,49.905c-7.745,7.746-20.392,7.787-28.188,0.095L343.83,64.669
	c-23.393-23.079-61.329-22.954-84.567,0.284l-55.673,55.672l-0.172-0.171l-18.307,18.353c-5.467,3.893-13.117,3.403-18.016-1.498
	c-23.12-23.118-60.957-23.341-84.34-0.508L40,178.504V20C40,8.954,31.046,0,20,0S0,8.954,0,20v472c0,11.046,8.954,20,20,20h472
	c11.046,0,20-8.954,20-20v-35c0-11.046-8.954-20-20-20s-20,8.954-20,20v15H40V340.753l56.24-56.549l0.17,0.17l2.841-2.848
	c3.41-2.536,7.512-3.932,11.84-3.943c0.018,0,0.035,0,0.052,0c5.325,0,10.334,2.068,14.109,5.826l62.915,62.636
	c19.499,19.413,51.193,19.378,70.651-0.078c2.561-2.562,5.582-2.935,7.104-2.934c1.555,0.004,4.542,0.395,7.09,2.967l9.496,9.588
	c9.452,9.542,22.055,14.804,35.485,14.816c0.017,0,0.033,0,0.049,0c13.413,0,26.006-5.236,35.465-14.749L472,236.481V357
	C472,368.046,480.954,377,492,377z M40,234.382l70.693-68.954c7.798-7.613,20.411-7.54,28.116,0.167
	c3.355,3.355,7.08,6.203,11.074,8.53l-77.294,77.491c-1.374,1.156-2.709,2.37-3.99,3.658L40,284.029V234.382z M211.768,168.724
	c1.176-0.992,2.322-2.029,3.423-3.129l72.357-72.357c7.745-7.747,20.392-7.788,28.188-0.095l13.508,13.328L167.093,268.622
	l-13.621-13.56c-4.829-4.807-10.334-8.683-16.295-11.559L211.768,168.724z M216.388,317.697l-20.946-20.854L357.72,134.565
	l13.951,13.765c4.887,4.821,10.413,8.615,16.302,11.412l-157.69,157.69l0.25,0.25C226.638,321.577,220.291,321.585,216.388,317.697z
	 M325.143,327.451c-2.554,2.568-5.542,2.953-7.103,2.953c-0.003,0-0.006,0-0.009,0c-1.558-0.001-4.552-0.389-7.104-2.966
	l-9.495-9.587c-2.54-2.564-5.313-4.808-8.263-6.735l163.069-163.069L472,132.284v47.465L325.143,327.451z"/>
<g>
</g>
<g>
</g>
<g>
</g>
<g>
</g>
<g>
</g>
<g>
</g>
<g>
</g>
<g>
</g>
<g>
</g>
<g>
</g>
<g>
</g>
<g>
</g>
<g>
</g>
<g>
</g>
<g>
</g>
</svg>
