<?xml version="1.0" encoding="iso-8859-1"?>
<!-- Generator: Adobe Illustrator 19.0.0, SVG Export Plug-In . SVG Version: 6.00 Build 0)  -->
<svg version="1.1" id="Capa_1" xmlns="http://www.w3.org/2000/svg" xmlns:xlink="http://www.w3.org/1999/xlink" x="0px" y="0px"
	 viewBox="0 0 512.001 512.001" style="enable-background:new 0 0 512.001 512.001;" xml:space="preserve">
<linearGradient id="SVGID_1_" gradientUnits="userSpaceOnUse" x1="0" y1="258.0015" x2="512.0012" y2="258.0015" gradientTransform="matrix(1 0 0 -1 0 514.0021)">
	<stop  offset="0" style="stop-color:#00F2FE"/>
	<stop  offset="0.021" style="stop-color:#03EFFE"/>
	<stop  offset="0.293" style="stop-color:#24D2FE"/>
	<stop  offset="0.554" style="stop-color:#3CBDFE"/>
	<stop  offset="0.796" style="stop-color:#4AB0FE"/>
	<stop  offset="1" style="stop-color:#4FACFE"/>
</linearGradient>
<path style="fill:url(#SVGID_1_);" d="M492,404.001h-42.001L450,142.002c0-14.531-3.848-28.47-11.061-40.655l67.204-67.204
	c7.811-7.811,7.811-20.475,0-28.285s-20.474-7.811-28.284,0l-67.204,67.204C398.47,65.848,384.531,62.001,370,62.001l-262,0.003
	V20.001c0-11.046-8.954-20-20-20s-20,8.955-20,20v42.003H20c-11.046,0-20,8.954-20,20s8.955,20,20,20h48v261.997
	c0,44.112,35.888,80,80,80h261.999v48c0,11.046,8.954,20,20,20s20-8.954,20-20v-48H492c11.046,0,20-8.954,20-20
	S503.046,404.001,492,404.001z M148,404.001c-22.056,0-40-17.944-40-40V102.004l262-0.001c3.548,0,7.026,0.459,10.366,1.349
	L173.858,309.859c-7.811,7.811-7.811,20.475,0,28.285c3.905,3.905,9.024,5.857,14.142,5.857s10.237-1.952,14.142-5.857
	L408.65,131.636c0.89,3.339,1.349,6.817,1.349,10.366v261.999H148z"/>
<g>
</g>
<g>
</g>
<g>
</g>
<g>
</g>
<g>
</g>
<g>
</g>
<g>
</g>
<g>
</g>
<g>
</g>
<g>
</g>
<g>
</g>
<g>
</g>
<g>
</g>
<g>
</g>
<g>
</g>
</svg>
