<?xml version="1.0" encoding="iso-8859-1"?>
<!-- Generator: Adobe Illustrator 19.0.0, SVG Export Plug-In . SVG Version: 6.00 Build 0)  -->
<svg version="1.1" id="Capa_1" xmlns="http://www.w3.org/2000/svg" xmlns:xlink="http://www.w3.org/1999/xlink" x="0px" y="0px"
	 viewBox="0 0 512 512" style="enable-background:new 0 0 512 512;" xml:space="preserve">
<linearGradient id="SVGID_1_" gradientUnits="userSpaceOnUse" x1="0" y1="258" x2="512" y2="258" gradientTransform="matrix(1 0 0 -1 0 514)">
	<stop  offset="0" style="stop-color:#00F2FE"/>
	<stop  offset="0.021" style="stop-color:#03EFFE"/>
	<stop  offset="0.293" style="stop-color:#24D2FE"/>
	<stop  offset="0.554" style="stop-color:#3CBDFE"/>
	<stop  offset="0.796" style="stop-color:#4AB0FE"/>
	<stop  offset="1" style="stop-color:#4FACFE"/>
</linearGradient>
<path style="fill:url(#SVGID_1_);" d="M331,396c-11.046,0-20-8.954-20-20c0-30.327-24.673-55-55-55s-55,24.673-55,55
	c0,11.046-8.954,20-20,20s-20-8.954-20-20c0-52.383,42.617-95,95-95s95,42.617,95,95C351,387.046,342.046,396,331,396z M395,201
	c0-27.57-22.43-50-50-50s-50,22.43-50,50c0,11.046,8.954,20,20,20s20-8.954,20-20c0-5.514,4.486-10,10-10s10,4.486,10,10
	c0,11.046,8.954,20,20,20S395,212.046,395,201z M218,201c0-27.57-22.43-50-50-50s-50,22.43-50,50c0,11.046,8.954,20,20,20
	s20-8.954,20-20c0-5.514,4.486-10,10-10s10,4.486,10,10c0,11.046,8.954,20,20,20S218,212.046,218,201z M388.462,475.106
	c9.448-5.724,12.467-18.021,6.744-27.469c-5.723-9.448-18.022-12.468-27.468-6.744C334.144,461.244,295.506,472,256,472
	c-119.103,0-216-96.897-216-216S136.897,40,256,40s216,96.897,216,216c0,42.589-12.665,84.044-36.626,119.884
	c-6.139,9.183-3.672,21.604,5.511,27.742c9.184,6.14,21.603,3.672,27.742-5.51C497.001,355.674,512,306.53,512,256
	c0-68.38-26.629-132.667-74.98-181.02C388.667,26.629,324.38,0,256,0S123.333,26.629,74.98,74.98C26.629,123.333,0,187.62,0,256
	s26.629,132.667,74.98,181.02C123.333,485.371,187.62,512,256,512C302.813,512,348.618,499.242,388.462,475.106z"/>
<g>
</g>
<g>
</g>
<g>
</g>
<g>
</g>
<g>
</g>
<g>
</g>
<g>
</g>
<g>
</g>
<g>
</g>
<g>
</g>
<g>
</g>
<g>
</g>
<g>
</g>
<g>
</g>
<g>
</g>
</svg>
