<?xml version="1.0" encoding="iso-8859-1"?>
<!-- Generator: Adobe Illustrator 19.0.0, SVG Export Plug-In . SVG Version: 6.00 Build 0)  -->
<svg version="1.1" id="Capa_1" xmlns="http://www.w3.org/2000/svg" xmlns:xlink="http://www.w3.org/1999/xlink" x="0px" y="0px"
	 viewBox="0 0 512 512" style="enable-background:new 0 0 512 512;" xml:space="preserve">
<linearGradient id="SVGID_1_" gradientUnits="userSpaceOnUse" x1="0" y1="258" x2="512" y2="258" gradientTransform="matrix(1 0 0 -1 0 514)">
	<stop  offset="0" style="stop-color:#00F2FE"/>
	<stop  offset="0.021" style="stop-color:#03EFFE"/>
	<stop  offset="0.293" style="stop-color:#24D2FE"/>
	<stop  offset="0.554" style="stop-color:#3CBDFE"/>
	<stop  offset="0.796" style="stop-color:#4AB0FE"/>
	<stop  offset="1" style="stop-color:#4FACFE"/>
</linearGradient>
<path style="fill:url(#SVGID_1_);" d="M276,208.677L477.824,5.892c7.792-7.829,20.456-7.859,28.284-0.067
	c7.829,7.792,7.859,20.455,0.067,28.284L305.241,236H341c11.046,0,20,8.954,20,20c0,11.046-8.954,20-20,20h-45
	c-33.084,0-60-26.916-60-60v-45c0-11.046,8.954-20,20-20c11.046,0,20,8.954,20,20V208.677z M487.939,147.516
	C503.905,181.595,512,218.095,512,256c0,50.53-14.999,99.674-43.374,142.116c-3.856,5.768-10.191,8.886-16.645,8.886
	c-3.821,0-7.682-1.093-11.097-3.376c-9.183-6.139-11.65-18.56-5.511-27.742c20.192-30.201,32.36-64.39,35.69-99.884h-39.2
	C422.638,357.648,357.649,422.638,276,431.863v39.207c32.463-3.001,63.84-13.277,91.737-30.177
	c9.446-5.724,21.745-2.704,27.468,6.744c5.723,9.447,2.704,21.745-6.744,27.469C348.618,499.242,302.813,512,256,512
	c-68.38,0-132.667-26.629-181.02-74.98C26.628,388.667,0,324.38,0,256S26.628,123.333,74.98,74.98C123.333,26.629,187.62,0,256,0
	c38.743,0,75.973,8.441,110.655,25.09c9.958,4.78,14.155,16.728,9.375,26.686c-4.78,9.957-16.728,14.154-26.685,9.375
	C326.121,50.002,301.524,43.237,276,40.918v39.226c9.249,1.042,18.393,2.785,27.338,5.262c10.645,2.948,16.885,13.967,13.937,24.612
	c-2.947,10.646-13.965,16.889-24.612,13.937C280.79,120.667,268.455,119,256,119c-68.749,0-125.826,50.905-135.536,117H181
	c11.046,0,20,8.954,20,20c0,11.046-8.954,20-20,20h-60.536c8.751,59.565,55.971,106.785,115.536,115.536V331
	c0-11.046,8.954-20,20-20c11.046,0,20,8.954,20,20v60.536c66.095-9.71,117-66.787,117-135.536c0-11.23-1.359-22.393-4.039-33.176
	c-2.665-10.72,3.865-21.569,14.585-24.233c10.718-2.66,21.569,3.865,24.234,14.585c1.862,7.492,3.214,15.122,4.081,22.824h39.218
	c-2.259-24.843-8.732-48.824-19.362-71.516c-4.686-10.002-0.376-21.909,9.626-26.596
	C471.347,133.202,483.253,137.514,487.939,147.516z M40.934,236h39.202C89.362,154.352,154.351,89.362,236,80.137V40.934
	C132.827,50.453,50.453,132.827,40.934,236z M236,471.066v-39.202C154.351,422.638,89.362,357.648,80.137,276H40.934
	C50.453,379.173,132.827,461.547,236,471.066z"/>
<g>
</g>
<g>
</g>
<g>
</g>
<g>
</g>
<g>
</g>
<g>
</g>
<g>
</g>
<g>
</g>
<g>
</g>
<g>
</g>
<g>
</g>
<g>
</g>
<g>
</g>
<g>
</g>
<g>
</g>
</svg>
