<?xml version="1.0" encoding="iso-8859-1"?>
<!-- Generator: Adobe Illustrator 19.0.0, SVG Export Plug-In . SVG Version: 6.00 Build 0)  -->
<svg version="1.1" id="Capa_1" xmlns="http://www.w3.org/2000/svg" xmlns:xlink="http://www.w3.org/1999/xlink" x="0px" y="0px"
	 viewBox="0 0 512 512" style="enable-background:new 0 0 512 512;" xml:space="preserve">
<linearGradient id="SVGID_1_" gradientUnits="userSpaceOnUse" x1="2.862232e-004" y1="257.9966" x2="512.0033" y2="257.9966" gradientTransform="matrix(1 0 0 -1 -2.862215e-004 513.9952)">
	<stop  offset="0" style="stop-color:#00F2FE"/>
	<stop  offset="0.021" style="stop-color:#03EFFE"/>
	<stop  offset="0.293" style="stop-color:#24D2FE"/>
	<stop  offset="0.554" style="stop-color:#3CBDFE"/>
	<stop  offset="0.796" style="stop-color:#4AB0FE"/>
	<stop  offset="1" style="stop-color:#4FACFE"/>
</linearGradient>
<path style="fill:url(#SVGID_1_);" d="M292.001,80.001H101.002c-11.046,0-20,8.954-20,20v79c0,11.046,8.954,20,20,20h190.999
	c11.046,0,20-8.954,20-20v-79C312.001,88.955,303.047,80.001,292.001,80.001z M272.001,159.001H121.002v-39h150.999V159.001z
	 M182.002,411.999c0,11.046-8.954,20-20,20h-61c-11.046,0-20-8.954-20-20s8.954-20,20-20h61
	C173.048,391.999,182.002,400.953,182.002,411.999z M182.002,257c0,11.046-8.954,20-20,20h-61c-11.046,0-20-8.954-20-20
	s8.954-20,20-20h61C173.048,237,182.002,245.954,182.002,257z M312.001,257c0,11.046-8.954,20-20,20h-61c-11.046,0-20-8.954-20-20
	s8.954-20,20-20h61C303.047,237,312.001,245.954,312.001,257z M312.001,335c0,11.046-8.954,20-20,20h-61c-11.046,0-20-8.954-20-20
	s8.954-20,20-20h61C303.047,315,312.001,323.954,312.001,335z M312.001,411.999c0,11.046-8.954,20-20,20h-61
	c-11.046,0-20-8.954-20-20s8.954-20,20-20h61C303.047,391.999,312.001,400.953,312.001,411.999z M182.002,335
	c0,11.046-8.954,20-20,20h-61c-11.046,0-20-8.954-20-20s8.954-20,20-20h61C173.048,315,182.002,323.954,182.002,335z M492,351.999
	c11.046,0,20-8.954,20-20v-50c0-11.046-8.954-20-20-20h-99.999V20.001c0-11.046-8.954-20-20-20H20.003c-11.045,0-20,8.954-20,20
	L0,431.995c0,44.111,35.887,80,80,80.001l351.998,0.003c0.153,0,0.306-0.002,0.458-0.005c21.198-0.117,41.108-8.427,56.111-23.428
	C503.678,473.456,512,453.365,512,431.995c0-11.046-8.954-20-20-20s-20,8.954-20,20c0,10.686-4.161,20.73-11.717,28.286
	c-7.556,7.554-17.599,11.714-28.283,11.714c-0.001,0-0.003,0-0.003,0c-22.054-0.002-39.997-17.946-39.997-40V302h80v30
	C472,343.045,480.955,351.999,492,351.999z M80,471.996c-22.056-0.001-40-17.945-40-40.001l0.003-391.994h311.998v391.994
	c0,14.562,3.912,28.229,10.739,40.003L80,471.996z"/>
<g>
</g>
<g>
</g>
<g>
</g>
<g>
</g>
<g>
</g>
<g>
</g>
<g>
</g>
<g>
</g>
<g>
</g>
<g>
</g>
<g>
</g>
<g>
</g>
<g>
</g>
<g>
</g>
<g>
</g>
</svg>
