<?xml version="1.0" encoding="iso-8859-1"?>
<!-- Generator: Adobe Illustrator 19.0.0, SVG Export Plug-In . SVG Version: 6.00 Build 0)  -->
<svg version="1.1" id="Capa_1" xmlns="http://www.w3.org/2000/svg" xmlns:xlink="http://www.w3.org/1999/xlink" x="0px" y="0px"
	 viewBox="0 0 512 512" style="enable-background:new 0 0 512 512;" xml:space="preserve">
<linearGradient id="SVGID_1_" gradientUnits="userSpaceOnUse" x1="1.508133e-004" y1="258" x2="511.9998" y2="258" gradientTransform="matrix(1 0 0 -1 0 514)">
	<stop  offset="0" style="stop-color:#00F2FE"/>
	<stop  offset="0.021" style="stop-color:#03EFFE"/>
	<stop  offset="0.293" style="stop-color:#24D2FE"/>
	<stop  offset="0.554" style="stop-color:#3CBDFE"/>
	<stop  offset="0.796" style="stop-color:#4AB0FE"/>
	<stop  offset="1" style="stop-color:#4FACFE"/>
</linearGradient>
<path style="fill:url(#SVGID_1_);" d="M6.47,35.729C-1.664,28.256-2.201,15.604,5.272,7.47c7.473-8.135,20.124-8.671,28.259-1.198
	l53.561,49.204c8.134,7.473,8.671,20.125,1.198,28.259c-3.943,4.293-9.331,6.47-14.734,6.47c-4.835,0-9.683-1.742-13.525-5.271
	L6.47,35.729z M505.062,263.58c-4.622,17.564-11.507,34.505-20.534,50.329c-5.472,9.595-17.688,12.936-27.282,7.464
	c-9.595-5.474-12.936-17.688-7.463-27.282c5.919-10.378,10.681-21.359,14.272-32.718l-80.809-80.486
	c-3.862-3.746-8.931-5.888-13.937-5.888c-0.034,0-0.067,0-0.101,0.001c-5.065,0.029-10.178,2.254-14.027,6.104l-50.451,50.451
	c-10.974,10.974-25.67,17.168-41.381,17.442c-15.511,0.267-30.3-5.287-41.599-15.65l-81.732-74.956
	C134.817,174.675,132,192.013,132,210c0,93.738,76.262,170,170,170c29.172,0,57.941-7.508,83.196-21.711
	c9.626-5.412,21.822-1.999,27.236,7.629c5.415,9.628,2,21.821-7.628,27.236C373.575,410.717,338.026,420,302,420
	c-50.477,0-96.848-17.906-133.105-47.694L34.094,506.19c-3.901,3.874-8.998,5.81-14.093,5.81c-5.142,0-10.281-1.97-14.191-5.906
	c-7.784-7.837-7.74-20.5,0.097-28.284l134.619-133.703C110.24,307.704,92,260.944,92,210C92,94.206,186.206,0,302,0
	s210,94.206,210,210c0,15.971-1.823,31.838-5.38,47.277C506.45,259.432,505.928,261.56,505.062,263.58z M471.955,212.786
	C471.97,211.857,472,210.93,472,210c0-93.738-76.262-170-170-170c-60.833,0-114.295,32.125-144.341,80.294l91.126,83.573
	c3.71,3.403,8.638,5.234,13.866,5.136c5.291-0.092,10.189-2.128,13.794-5.733l50.451-50.451
	c11.4-11.399,26.344-17.728,42.081-17.818c0.114,0,0.229-0.001,0.343-0.001c15.609,0,30.491,6.148,41.938,17.334
	c0.045,0.045,0.091,0.09,0.136,0.135L471.955,212.786z"/>
<g>
</g>
<g>
</g>
<g>
</g>
<g>
</g>
<g>
</g>
<g>
</g>
<g>
</g>
<g>
</g>
<g>
</g>
<g>
</g>
<g>
</g>
<g>
</g>
<g>
</g>
<g>
</g>
<g>
</g>
</svg>
