<?xml version="1.0" encoding="iso-8859-1"?>
<!-- Generator: Adobe Illustrator 19.0.0, SVG Export Plug-In . SVG Version: 6.00 Build 0)  -->
<svg version="1.1" id="Capa_1" xmlns="http://www.w3.org/2000/svg" xmlns:xlink="http://www.w3.org/1999/xlink" x="0px" y="0px"
	 viewBox="0 0 512 512" style="enable-background:new 0 0 512 512;" xml:space="preserve">
<linearGradient id="SVGID_1_" gradientUnits="userSpaceOnUse" x1="0" y1="258.0008" x2="512" y2="258.0008" gradientTransform="matrix(1 0 0 -1 0 514.0007)">
	<stop  offset="0" style="stop-color:#00F2FE"/>
	<stop  offset="0.021" style="stop-color:#03EFFE"/>
	<stop  offset="0.293" style="stop-color:#24D2FE"/>
	<stop  offset="0.554" style="stop-color:#3CBDFE"/>
	<stop  offset="0.796" style="stop-color:#4AB0FE"/>
	<stop  offset="1" style="stop-color:#4FACFE"/>
</linearGradient>
<path style="fill:url(#SVGID_1_);" d="M512,490c0,11.046-8.954,20-20,20H20c-11.046,0-20-8.954-20-20s8.954-20,20-20h472
	C503.046,470,512,478.954,512,490z M512,180c0,0.169-0.021,0.332-0.025,0.5c0.004,0.168,0.025,0.331,0.025,0.5
	c0,11.046-8.954,20-20,20c-13.918,0-15,15.308-15,20v88.517c0,11.046-8.954,20-20,20s-20-8.954-20-20V221c0-11.028-8.972-20-20-20
	s-20,8.972-20,20v169h60c11.046,0,20,8.954,20,20s-8.954,20-20,20H57c-11.046,0-20-8.954-20-20c0-0.419,0.037-0.829,0.063-1.242
	c-0.025-0.413-0.063-0.823-0.063-1.242V221c0-9.955-5.257-20-17-20c-11.046,0-20-8.954-20-20c0-0.169,0.021-0.332,0.025-0.5
	C0.021,180.332,0,180.169,0,180v-53c0-7.895,4.645-15.052,11.855-18.267l235.5-105c5.173-2.306,11.081-2.313,16.26-0.013l236.5,105
	C507.342,111.929,512,119.093,512,127V180z M77,390h40V221c0-11.028-8.972-20-20-20s-20,8.972-20,20V390z M157,390h40V221
	c0-11.028-8.972-20-20-20s-20,8.972-20,20V390z M237,390h40V221c0-11.028-8.972-20-20-20s-20,8.972-20,20V390z M40,160h432v-19.997
	L255.518,43.89L40,139.981V160z M357,390V221c0-11.028-8.972-20-20-20s-20,8.972-20,20v169H357z M256,88c-11.046,0-20,8.954-20,20
	s8.954,20,20,20c11.046,0,20-8.954,20-20S267.046,88,256,88z"/>
<g>
</g>
<g>
</g>
<g>
</g>
<g>
</g>
<g>
</g>
<g>
</g>
<g>
</g>
<g>
</g>
<g>
</g>
<g>
</g>
<g>
</g>
<g>
</g>
<g>
</g>
<g>
</g>
<g>
</g>
</svg>
