<?xml version="1.0" encoding="iso-8859-1"?>
<!-- Generator: Adobe Illustrator 19.0.0, SVG Export Plug-In . SVG Version: 6.00 Build 0)  -->
<svg version="1.1" id="Capa_1" xmlns="http://www.w3.org/2000/svg" xmlns:xlink="http://www.w3.org/1999/xlink" x="0px" y="0px"
	 viewBox="0 0 512 512" style="enable-background:new 0 0 512 512;" xml:space="preserve">
<linearGradient id="SVGID_1_" gradientUnits="userSpaceOnUse" x1="0.1025" y1="257.8673" x2="512.1025" y2="257.8673" gradientTransform="matrix(0.9997 0 0 -0.9997 -0.0165 513.7807)">
	<stop  offset="0" style="stop-color:#00F2FE"/>
	<stop  offset="0.021" style="stop-color:#03EFFE"/>
	<stop  offset="0.293" style="stop-color:#24D2FE"/>
	<stop  offset="0.554" style="stop-color:#3CBDFE"/>
	<stop  offset="0.796" style="stop-color:#4AB0FE"/>
	<stop  offset="1" style="stop-color:#4FACFE"/>
</linearGradient>
<path style="fill:url(#SVGID_1_);" d="M431.941,0H80.059C35.962,0,0.086,35.876,0.086,79.973v192.935
	c0,44.097,35.876,79.973,79.973,79.973h351.882c44.097,0,79.973-35.876,79.973-79.973c0-11.042-8.951-19.993-19.993-19.993
	c-11.042,0-19.993,8.951-19.993,19.993c0,22.049-17.938,39.987-39.987,39.987H80.059c-22.049,0-39.987-17.938-39.987-39.987V120.959
	h431.855v51.983c0,11.042,8.951,19.993,19.993,19.993c11.042,0,19.993-8.951,19.993-19.993V79.973
	C511.914,35.876,476.038,0,431.941,0z M40.073,80.973v-1c0-22.049,17.938-39.987,39.987-39.987h351.882
	c22.049,0,39.987,17.938,39.987,39.987v1H40.073z M270.995,200.932H100.052c-11.042,0-19.993-8.951-19.993-19.993
	c0-11.042,8.951-19.993,19.993-19.993h170.943c11.042,0,19.993,8.951,19.993,19.993
	C290.988,191.982,282.037,200.932,270.995,200.932z M212.015,232.922c11.042,0,19.993,8.951,19.993,19.993
	s-8.951,19.993-19.993,19.993H100.052c-11.042,0-19.993-8.951-19.993-19.993c0-11.042,8.951-19.993,19.993-19.993H212.015z
	 M451.934,391.868H77.947c-3.961,0-7.832,1.177-11.123,3.38L8.956,433.993c-5.464,3.659-8.78,9.77-8.868,16.346
	C0,456.914,3.15,463.112,8.515,466.917l58.185,41.256c3.381,2.395,7.422,3.684,11.564,3.684h244.713
	c11.042,0,19.993-8.951,19.993-19.993c0-11.042-8.951-19.993-19.993-19.993H84.634L55.31,451.079l28.711-19.225h318.929v60.075
	c0,11.02,8.919,19.964,19.94,19.993L451.934,512c33.073,0,59.98-26.906,59.98-59.979
	C511.914,418.852,485.007,391.868,451.934,391.868z M451.987,472.013l-9.05-0.024v-40.135h8.997
	c11.024,0,19.993,9.047,19.993,20.166C471.927,463.044,462.958,472.013,451.987,472.013z M431.941,180.939
	c0,11.042-8.951,19.993-19.993,19.993c-11.042,0-19.993-8.951-19.993-19.993c0-11.042,8.951-19.993,19.993-19.993
	C422.99,160.946,431.941,169.897,431.941,180.939z M371.961,180.939c0,11.042-8.951,19.993-19.993,19.993
	c-11.042,0-19.993-8.951-19.993-19.993c0-11.042,8.951-19.993,19.993-19.993C363.01,160.946,371.961,169.897,371.961,180.939z
	 M431.941,252.915c0,11.042-8.951,19.993-19.993,19.993c-11.042,0-19.993-8.951-19.993-19.993c0-11.042,8.951-19.993,19.993-19.993
	C422.99,232.922,431.941,241.873,431.941,252.915z M371.961,252.915c0,11.042-8.951,19.993-19.993,19.993
	c-11.042,0-19.993-8.951-19.993-19.993c0-11.042,8.951-19.993,19.993-19.993C363.01,232.922,371.961,241.873,371.961,252.915z
	 M271.995,252.915c0-11.042,8.951-19.993,19.993-19.993c11.042,0,19.993,8.951,19.993,19.993s-8.951,19.993-19.993,19.993
	C280.946,272.908,271.995,263.957,271.995,252.915z"/>
<g>
</g>
<g>
</g>
<g>
</g>
<g>
</g>
<g>
</g>
<g>
</g>
<g>
</g>
<g>
</g>
<g>
</g>
<g>
</g>
<g>
</g>
<g>
</g>
<g>
</g>
<g>
</g>
<g>
</g>
</svg>
