<?xml version="1.0" encoding="iso-8859-1"?>
<!-- Generator: Adobe Illustrator 19.0.0, SVG Export Plug-In . SVG Version: 6.00 Build 0)  -->
<svg version="1.1" id="Capa_1" xmlns="http://www.w3.org/2000/svg" xmlns:xlink="http://www.w3.org/1999/xlink" x="0px" y="0px"
	 viewBox="0 0 512 512" style="enable-background:new 0 0 512 512;" xml:space="preserve">
<linearGradient id="SVGID_1_" gradientUnits="userSpaceOnUse" x1="0" y1="258" x2="512" y2="258" gradientTransform="matrix(1 0 0 -1 0 514)">
	<stop  offset="0" style="stop-color:#00F2FE"/>
	<stop  offset="0.021" style="stop-color:#03EFFE"/>
	<stop  offset="0.293" style="stop-color:#24D2FE"/>
	<stop  offset="0.554" style="stop-color:#3CBDFE"/>
	<stop  offset="0.796" style="stop-color:#4AB0FE"/>
	<stop  offset="1" style="stop-color:#4FACFE"/>
</linearGradient>
<path style="fill:url(#SVGID_1_);" d="M512,256c0,16.081-6.305,31.191-17.754,42.547L432.084,360.2
	c-3.899,3.868-8.993,5.8-14.083,5.8c-5.147,0-10.291-1.974-14.201-5.916c-7.778-7.843-7.727-20.506,0.116-28.284l55.252-54.8H276
	v184.185l56.8-57.269c7.778-7.842,20.44-7.895,28.284-0.116c7.843,7.778,7.895,20.441,0.116,28.284l-61.653,62.162
	C288.191,505.695,273.081,512,257,512s-31.191-6.305-42.547-17.754L152.8,432.084c-7.778-7.843-7.727-20.506,0.116-28.284
	c7.844-7.78,20.509-7.724,28.284,0.116l54.8,55.252V277H52.832l55.252,54.8c7.843,7.778,7.895,20.441,0.116,28.284
	c-3.91,3.942-9.055,5.916-14.201,5.916c-5.091,0-10.183-1.932-14.083-5.8l-62.162-61.653C6.305,287.191,0,272.081,0,256
	s6.305-31.191,17.754-42.547L79.916,151.8c7.843-7.779,20.508-7.725,28.284,0.116c7.778,7.843,7.727,20.506-0.116,28.284L50.815,237
	H236V52.832l-54.8,55.252c-7.778,7.843-20.44,7.896-28.284,0.116c-7.843-7.778-7.895-20.441-0.116-28.284l61.653-62.162
	C225.809,6.305,240.919,0,257,0s31.191,6.305,42.547,17.754L361.2,79.916c7.778,7.843,7.727,20.506-0.116,28.284
	c-3.899,3.868-8.993,5.8-14.083,5.8c-5.147,0-10.291-1.974-14.201-5.916L276,50.815V237h185.185l-57.269-56.8
	c-7.843-7.778-7.895-20.441-0.116-28.284c7.778-7.842,20.441-7.895,28.284-0.116l62.162,61.653C505.695,224.809,512,239.919,512,256
	z"/>
<g>
</g>
<g>
</g>
<g>
</g>
<g>
</g>
<g>
</g>
<g>
</g>
<g>
</g>
<g>
</g>
<g>
</g>
<g>
</g>
<g>
</g>
<g>
</g>
<g>
</g>
<g>
</g>
<g>
</g>
</svg>
