<?xml version="1.0" encoding="iso-8859-1"?>
<!-- Generator: Adobe Illustrator 19.0.0, SVG Export Plug-In . SVG Version: 6.00 Build 0)  -->
<svg version="1.1" id="Capa_1" xmlns="http://www.w3.org/2000/svg" xmlns:xlink="http://www.w3.org/1999/xlink" x="0px" y="0px"
	 viewBox="0 0 512 512" style="enable-background:new 0 0 512 512;" xml:space="preserve">
<linearGradient id="SVGID_1_" gradientUnits="userSpaceOnUse" x1="0" y1="258" x2="512" y2="258" gradientTransform="matrix(1 0 0 -1 0 514)">
	<stop  offset="0" style="stop-color:#00F2FE"/>
	<stop  offset="0.021" style="stop-color:#03EFFE"/>
	<stop  offset="0.293" style="stop-color:#24D2FE"/>
	<stop  offset="0.554" style="stop-color:#3CBDFE"/>
	<stop  offset="0.796" style="stop-color:#4AB0FE"/>
	<stop  offset="1" style="stop-color:#4FACFE"/>
</linearGradient>
<path style="fill:url(#SVGID_1_);" d="M492,312c11.046,0,20-8.954,20-20V80c0-44.112-35.888-80-80-80H80C35.888,0,0,35.888,0,80v312
	c0,44.112,35.888,80,80,80v20c0,11.046,8.954,20,20,20h40c11.046,0,20-8.954,20-20v-20h192v20c0,11.046,8.954,20,20,20h40
	c11.046,0,20-8.954,20-20v-20c44.112,0,80-35.888,80-80c0-11.046-8.954-20-20-20s-20,8.954-20,20c0,22.056-17.944,40-40,40H80
	c-22.056,0-40-17.944-40-40v-87.693c0.604-0.35,1.201-0.722,1.777-1.142l70-51C116.944,248.4,120,242.393,120,236
	s-3.056-12.4-8.223-16.165l-70-51c-0.578-0.421-1.172-0.803-1.777-1.154V80c0-22.056,17.944-40,40-40h352c22.056,0,40,17.944,40,40
	v212C472,303.046,480.954,312,492,312z M66.036,236L40,254.969v-37.938L66.036,236z M359.528,121.414
	c-0.191-0.109-0.389-0.193-0.582-0.295C339.759,110.229,317.594,104,294,104c-23.595,0-45.76,6.229-64.947,17.119
	c-0.193,0.102-0.391,0.186-0.581,0.294s-0.362,0.237-0.547,0.351C188.542,144.632,162,187.273,162,236
	c0,48.731,26.546,91.375,65.934,114.241c0.182,0.112,0.351,0.238,0.538,0.344c0.325,0.186,0.654,0.355,0.985,0.521
	C248.552,361.856,270.57,368,294,368c23.428,0,45.445-6.143,64.539-16.891c0.332-0.167,0.663-0.337,0.989-0.523
	c0.187-0.107,0.355-0.232,0.538-0.344C399.454,327.375,426,284.731,426,236c0-48.727-26.542-91.368-65.924-114.236
	C359.891,121.65,359.719,121.522,359.528,121.414z M266.778,323.888l8.84-15.458c5.483-9.589,2.155-21.807-7.433-27.29
	c-9.589-5.483-21.807-2.155-27.29,7.433l-8.814,15.413c-13.757-12.541-23.703-29.19-27.886-47.986H222c11.046,0,20-8.954,20-20
	s-8.954-20-20-20h-17.804c4.183-18.796,14.129-35.446,27.886-47.986l8.814,15.413c3.692,6.458,10.438,10.075,17.38,10.075
	c3.366,0,6.778-0.851,9.91-2.642c9.588-5.483,12.916-17.702,7.433-27.29l-8.84-15.459C275.384,145.44,284.527,144,294,144
	s18.616,1.44,27.222,4.112l-8.84,15.459c-5.483,9.588-2.155,21.807,7.433,27.29c3.132,1.791,6.544,2.642,9.91,2.642
	c6.941,0,13.688-3.618,17.38-10.075l8.814-15.413c13.757,12.54,23.703,29.19,27.886,47.986H366c-11.046,0-20,8.954-20,20
	s8.954,20,20,20h17.804c-4.183,18.796-14.129,35.445-27.886,47.986l-8.814-15.413c-5.482-9.588-17.699-12.916-27.29-7.433
	c-9.588,5.483-12.916,17.701-7.433,27.29l8.84,15.458C312.615,326.56,303.473,328,294,328S275.385,326.56,266.778,323.888z"/>
<g>
</g>
<g>
</g>
<g>
</g>
<g>
</g>
<g>
</g>
<g>
</g>
<g>
</g>
<g>
</g>
<g>
</g>
<g>
</g>
<g>
</g>
<g>
</g>
<g>
</g>
<g>
</g>
<g>
</g>
</svg>
