<?xml version="1.0" encoding="iso-8859-1"?>
<!-- Generator: Adobe Illustrator 19.0.0, SVG Export Plug-In . SVG Version: 6.00 Build 0)  -->
<svg version="1.1" id="Capa_1" xmlns="http://www.w3.org/2000/svg" xmlns:xlink="http://www.w3.org/1999/xlink" x="0px" y="0px"
	 viewBox="0 0 512 512" style="enable-background:new 0 0 512 512;" xml:space="preserve">
<linearGradient id="SVGID_1_" gradientUnits="userSpaceOnUse" x1="0" y1="258" x2="512" y2="258" gradientTransform="matrix(1 0 0 -1 0 514)">
	<stop  offset="0" style="stop-color:#00F2FE"/>
	<stop  offset="0.021" style="stop-color:#03EFFE"/>
	<stop  offset="0.293" style="stop-color:#24D2FE"/>
	<stop  offset="0.554" style="stop-color:#3CBDFE"/>
	<stop  offset="0.796" style="stop-color:#4AB0FE"/>
	<stop  offset="1" style="stop-color:#4FACFE"/>
</linearGradient>
<path style="fill:url(#SVGID_1_);" d="M432,471H80c-44.112,0-80-35.888-80-80V121c0-44.112,35.888-80,80-80h352
	c44.112,0,80,35.888,80,80v170c0,11.046-8.954,20-20,20s-20-8.954-20-20V121c0-22.056-17.944-40-40-40H80c-22.056,0-40,17.944-40,40
	v270c0,22.056,17.944,40,40,40h352c22.056,0,40-17.944,40-40c0-11.046,8.954-20,20-20s20,8.954,20,20
	C512,435.112,476.112,471,432,471z M97,121L97,121c-11.046,0-20,8.954-20,20l0,0c0,11.046,8.954,20,20,20l0,0
	c11.046,0,20-8.954,20-20l0,0C117,129.954,108.046,121,97,121z M177,121L177,121c-11.046,0-20,8.954-20,20l0,0
	c0,11.046,8.954,20,20,20l0,0c11.046,0,20-8.954,20-20l0,0C197,129.954,188.046,121,177,121z M257,121L257,121
	c-11.046,0-20,8.954-20,20l0,0c0,11.046,8.954,20,20,20l0,0c11.046,0,20-8.954,20-20l0,0C277,129.954,268.046,121,257,121z M337,121
	L337,121c-11.046,0-20,8.954-20,20l0,0c0,11.046,8.954,20,20,20l0,0c11.046,0,20-8.954,20-20l0,0C357,129.954,348.046,121,337,121z
	 M417,121L417,121c-11.046,0-20,8.954-20,20l0,0c0,11.046,8.954,20,20,20l0,0c11.046,0,20-8.954,20-20l0,0
	C437,129.954,428.046,121,417,121z M97,351L97,351c-11.046,0-20,8.954-20,20l0,0c0,11.046,8.954,20,20,20l0,0
	c11.046,0,20-8.954,20-20l0,0C117,359.954,108.046,351,97,351z M177,351L177,351c-11.046,0-20,8.954-20,20l0,0
	c0,11.046,8.954,20,20,20l0,0c11.046,0,20-8.954,20-20l0,0C197,359.954,188.046,351,177,351z M257,351L257,351
	c-11.046,0-20,8.954-20,20l0,0c0,11.046,8.954,20,20,20l0,0c11.046,0,20-8.954,20-20l0,0C277,359.954,268.046,351,257,351z M337,351
	L337,351c-11.046,0-20,8.954-20,20l0,0c0,11.046,8.954,20,20,20l0,0c11.046,0,20-8.954,20-20l0,0C357,359.954,348.046,351,337,351z
	 M417,351L417,351c-11.046,0-20,8.954-20,20l0,0c0,11.046,8.954,20,20,20l0,0c11.046,0,20-8.954,20-20l0,0
	C437,359.954,428.046,351,417,351z"/>
<g>
</g>
<g>
</g>
<g>
</g>
<g>
</g>
<g>
</g>
<g>
</g>
<g>
</g>
<g>
</g>
<g>
</g>
<g>
</g>
<g>
</g>
<g>
</g>
<g>
</g>
<g>
</g>
<g>
</g>
</svg>
