<?xml version="1.0" encoding="iso-8859-1"?>
<!-- Generator: Adobe Illustrator 19.0.0, SVG Export Plug-In . SVG Version: 6.00 Build 0)  -->
<svg version="1.1" id="Capa_1" xmlns="http://www.w3.org/2000/svg" xmlns:xlink="http://www.w3.org/1999/xlink" x="0px" y="0px"
	 viewBox="0 0 512 512" style="enable-background:new 0 0 512 512;" xml:space="preserve">
<linearGradient id="SVGID_1_" gradientUnits="userSpaceOnUse" x1="0.1914" y1="256.457" x2="514.1914" y2="256.457" gradientTransform="matrix(0.9961 0 0 -0.9961 -0.1907 511.4591)">
	<stop  offset="0" style="stop-color:#00F2FE"/>
	<stop  offset="0.021" style="stop-color:#03EFFE"/>
	<stop  offset="0.293" style="stop-color:#24D2FE"/>
	<stop  offset="0.554" style="stop-color:#3CBDFE"/>
	<stop  offset="0.796" style="stop-color:#4AB0FE"/>
	<stop  offset="1" style="stop-color:#4FACFE"/>
</linearGradient>
<path style="fill:url(#SVGID_1_);" d="M176.311,400.557c11.003,0,19.922,8.919,19.922,19.922l0,0
	c0,11.003-8.919,19.922-19.922,19.922c-11.003,0-19.922-8.919-19.922-19.922l0,0C156.389,409.476,165.308,400.557,176.311,400.557z
	 M196.233,71.841h-39.844c-11.003,0-19.922,8.919-19.922,19.922s8.919,19.922,19.922,19.922h39.844
	c11.003,0,19.922-8.919,19.922-19.922S207.236,71.841,196.233,71.841z M512,257.118c0,23.443-4.785,46.118-14.221,67.391
	c-4.462,10.058-16.231,14.591-26.29,10.132c-10.058-4.462-14.593-16.233-10.132-26.29c7.167-16.153,10.8-33.391,10.8-51.233
	c0-69.756-56.75-126.506-126.506-126.506s-126.506,56.75-126.506,126.506s56.75,126.506,126.506,126.506
	c20.651,0,41.136-5.081,59.238-14.694c9.717-5.16,21.778-1.465,26.939,8.252c5.161,9.717,1.466,21.778-8.252,26.939
	c-21.791,11.572-46.185,18.138-70.952,19.182v8.013c0,43.94-35.748,79.689-79.689,79.689H79.689C35.748,511.004,0,475.256,0,431.315
	V80.685C0,36.744,35.748,0.996,79.689,0.996h193.245c43.94,0,79.689,35.748,79.689,79.689v10.239
	C441.126,94.592,512,167.729,512,257.118z M312.778,94.036V80.685c0-21.97-17.874-39.844-39.844-39.844H79.689
	c-21.97,0-39.844,17.874-39.844,39.844v350.63c0,21.97,17.874,39.844,39.844,39.844h193.245c21.97,0,39.844-17.874,39.844-39.844
	V420.2C236.743,404.898,179.3,337.593,179.3,257.118S236.743,109.337,312.778,94.036z M345.65,356.729
	c11.003,0,19.922-8.919,19.922-19.922v-3.399c20.013-5.042,34.864-23.086,34.864-44.513v-7.986
	c0-25.265-20.735-45.821-46.221-45.821H340.96c-3.355,0-6.297-3.204-6.297-6.857v-0.841c0-3.496,2.707-6.132,6.297-6.132h24.612
	c11.003,0,19.922-8.919,19.922-19.922s-8.919-19.922-19.922-19.922v-2.988c0-11.003-8.919-19.922-19.922-19.922
	c-11.003,0-19.922,8.919-19.922,19.922v5.574c-17.979,6.285-30.909,23.357-30.909,43.391v0.841
	c0,25.751,20.699,46.702,46.142,46.702h13.254c3.636,0,6.377,2.57,6.377,5.977v7.986c0,3.464-2.741,6.076-6.377,6.076h-40.44
	c-11.003,0-19.922,8.919-19.922,19.922c0,11.003,8.919,19.922,19.922,19.922h11.953v1.992
	C325.728,347.809,334.647,356.729,345.65,356.729z"/>
<g>
</g>
<g>
</g>
<g>
</g>
<g>
</g>
<g>
</g>
<g>
</g>
<g>
</g>
<g>
</g>
<g>
</g>
<g>
</g>
<g>
</g>
<g>
</g>
<g>
</g>
<g>
</g>
<g>
</g>
</svg>
