<?xml version="1.0" encoding="iso-8859-1"?>
<!-- Generator: Adobe Illustrator 19.0.0, SVG Export Plug-In . SVG Version: 6.00 Build 0)  -->
<svg version="1.1" id="Capa_1" xmlns="http://www.w3.org/2000/svg" xmlns:xlink="http://www.w3.org/1999/xlink" x="0px" y="0px"
	 viewBox="0 0 512 512" style="enable-background:new 0 0 512 512;" xml:space="preserve">
<linearGradient id="SVGID_1_" gradientUnits="userSpaceOnUse" x1="0" y1="258" x2="512" y2="258" gradientTransform="matrix(1 0 0 -1 0 514)">
	<stop  offset="0" style="stop-color:#00F2FE"/>
	<stop  offset="0.021" style="stop-color:#03EFFE"/>
	<stop  offset="0.293" style="stop-color:#24D2FE"/>
	<stop  offset="0.554" style="stop-color:#3CBDFE"/>
	<stop  offset="0.796" style="stop-color:#4AB0FE"/>
	<stop  offset="1" style="stop-color:#4FACFE"/>
</linearGradient>
<path style="fill:url(#SVGID_1_);" d="M360.084,375.3c7.842,7.778,7.895,20.441,0.116,28.284l-61.653,62.162
	C287.191,477.195,272.081,483.5,256,483.5s-31.191-6.305-42.546-17.754L151.8,403.584c-7.778-7.843-7.726-20.506,0.116-28.284
	c7.843-7.778,20.506-7.725,28.284,0.116l54.8,55.252V236.5c0-11.046,8.954-20,20-20c11.046,0,20,8.954,20,20v196.185l56.8-57.269
	C339.578,367.573,352.241,367.521,360.084,375.3z M462,178.146v-13.324C462,89.654,400.846,28.5,325.678,28.5
	c-32.732,0-64.381,11.776-89.115,33.16c-16.363,14.146-29.025,31.881-37.093,51.591c-12.402-6.338-26.253-9.751-40.47-9.751
	c-49.075,0-89,39.925-89,89v18.188C29.978,219.662,0,255.18,0,297.5c0,23.773,8.999,46.067,25.34,62.774
	C41.881,377.187,64.134,386.5,88,386.5h7c11.046,0,20-8.954,20-20s-8.954-20-20-20h-7c-26.916,0-48-21.523-48-49
	c0-27.019,22.361-49,49.846-49H90c11.046,0,20-8.954,20-20v-36c0-27.019,21.981-49,49-49c14.036,0,27.427,6.052,36.741,16.604
	c5.134,5.816,13.168,8.138,20.612,5.959c7.445-2.179,12.958-8.466,14.146-16.132c7.193-46.423,48.11-81.431,95.178-81.431
	C378.79,68.5,422,111.71,422,164.822v24.598c0,7.4,4.087,14.196,10.624,17.666C456.912,219.977,472,245.041,472,272.5
	c0,34.76-23.624,64.428-57.45,72.146c-10.769,2.458-17.506,13.18-15.049,23.948c2.458,10.77,13.181,17.51,23.948,15.05
	c24.772-5.653,47.249-19.708,63.289-39.575C503.028,323.893,512,298.476,512,272.5C512,234.367,493.119,199.237,462,178.146z"/>
<g>
</g>
<g>
</g>
<g>
</g>
<g>
</g>
<g>
</g>
<g>
</g>
<g>
</g>
<g>
</g>
<g>
</g>
<g>
</g>
<g>
</g>
<g>
</g>
<g>
</g>
<g>
</g>
<g>
</g>
</svg>
