<?xml version="1.0" encoding="iso-8859-1"?>
<!-- Generator: Adobe Illustrator 19.0.0, SVG Export Plug-In . SVG Version: 6.00 Build 0)  -->
<svg version="1.1" id="Capa_1" xmlns="http://www.w3.org/2000/svg" xmlns:xlink="http://www.w3.org/1999/xlink" x="0px" y="0px"
	 viewBox="0 0 512 512" style="enable-background:new 0 0 512 512;" xml:space="preserve">
<linearGradient id="SVGID_1_" gradientUnits="userSpaceOnUse" x1="0" y1="258" x2="512" y2="258" gradientTransform="matrix(1 0 0 -1 0 514)">
	<stop  offset="0" style="stop-color:#00F2FE"/>
	<stop  offset="0.021" style="stop-color:#03EFFE"/>
	<stop  offset="0.293" style="stop-color:#24D2FE"/>
	<stop  offset="0.554" style="stop-color:#3CBDFE"/>
	<stop  offset="0.796" style="stop-color:#4AB0FE"/>
	<stop  offset="1" style="stop-color:#4FACFE"/>
</linearGradient>
<path style="fill:url(#SVGID_1_);" d="M512,404c0,44.112-35.888,80-80,80H80c-44.112,0-80-35.888-80-80V188
	c0-44.112,35.888-80,80-80h56c11.046,0,20,8.954,20,20s-8.954,20-20,20H80c-22.056,0-40,17.944-40,40v216c0,22.056,17.944,40,40,40
	h352c22.056,0,40-17.944,40-40c0-11.046,8.954-20,20-20S512,392.954,512,404z M512,188v116c0,11.046-8.954,20-20,20s-20-8.954-20-20
	V188c0-22.056-17.944-40-40-40H312.56c-8.256,23.278-30.487,40-56.56,40c-33.084,0-60-26.916-60-60V48c0-11.046,8.954-20,20-20h80
	c11.046,0,20,8.954,20,20v60h116C476.112,108,512,143.888,512,188z M276,128V68h-40v60c0,11.028,8.972,20,20,20
	C267.028,148,276,139.028,276,128z M322,360.122h50c11.046,0,20-8.954,20-20s-8.954-20-20-20h-50c-11.046,0-20,8.954-20,20
	S310.954,360.122,322,360.122z M322,290.122h90c11.046,0,20-8.954,20-20s-8.954-20-20-20h-90c-11.046,0-20,8.954-20,20
	S310.954,290.122,322,290.122z M233,270c0,12.987-4.161,25.013-11.201,34.844c22.289,13.173,38.975,35.279,44.509,61.862
	c2.015,9.676-0.402,19.619-6.631,27.277C253.467,401.62,244.258,406,234.413,406H112.587c-9.846,0-19.054-4.38-25.265-12.018
	c-6.229-7.658-8.646-17.602-6.631-27.277c5.476-26.303,21.87-48.224,43.807-61.443C117.276,295.355,113,283.17,113,270
	c0-33.084,26.916-60,60-60S233,236.916,233,270z M153,270c0,11.028,8.972,20,20,20s20-8.972,20-20s-8.972-20-20-20
	S153,258.972,153,270z M224.489,366c-8.07-20.316-28.033-34.289-50.489-34.289h-1c-22.457,0-42.419,13.974-50.49,34.289H224.489z"/>
<g>
</g>
<g>
</g>
<g>
</g>
<g>
</g>
<g>
</g>
<g>
</g>
<g>
</g>
<g>
</g>
<g>
</g>
<g>
</g>
<g>
</g>
<g>
</g>
<g>
</g>
<g>
</g>
<g>
</g>
</svg>
