<?xml version="1.0" encoding="iso-8859-1"?>
<!-- Generator: Adobe Illustrator 19.0.0, SVG Export Plug-In . SVG Version: 6.00 Build 0)  -->
<svg version="1.1" id="Capa_1" xmlns="http://www.w3.org/2000/svg" xmlns:xlink="http://www.w3.org/1999/xlink" x="0px" y="0px"
	 viewBox="0 0 511.999 511.999" style="enable-background:new 0 0 511.999 511.999;" xml:space="preserve">
<linearGradient id="SVGID_1_" gradientUnits="userSpaceOnUse" x1="0.0545" y1="258.0005" x2="511.9445" y2="258.0005" gradientTransform="matrix(1 0 0 -1 0 514)">
	<stop  offset="0" style="stop-color:#00F2FE"/>
	<stop  offset="0.021" style="stop-color:#03EFFE"/>
	<stop  offset="0.293" style="stop-color:#24D2FE"/>
	<stop  offset="0.554" style="stop-color:#3CBDFE"/>
	<stop  offset="0.796" style="stop-color:#4AB0FE"/>
	<stop  offset="1" style="stop-color:#4FACFE"/>
</linearGradient>
<path style="fill:url(#SVGID_1_);" d="M485.507,270.55c-7.037-16.262-13.7-31.66-17.105-46.412l-0.024-39.862l-0.271-1.625
	C464.571,161.414,446.374,146,424.838,146H352.05c21.079-22.534,34.005-52.783,34.005-86c0-33.084-26.916-60-60-60s-60,26.916-60,60
	c0,31.634,24.614,57.611,55.693,59.828C306.107,135.951,284.239,146,260.055,146h-8c-24.183,0-46.052-10.049-61.693-26.172
	c31.079-2.218,55.693-28.194,55.693-59.828c0-33.084-26.916-60-60-60s-60,26.916-60,60c0,33.217,12.926,63.466,34.005,86H87.164
	c-21.535,0-39.732,15.414-43.269,36.65l-0.271,1.625l-0.023,39.862c-3.406,14.752-10.069,30.15-17.105,46.411
	C14.102,299.188,0.055,331.646,0.055,370c0,58.083,27.496,98.48,81.725,120.07c48.505,19.312,115.25,21.926,174.164,21.929
	c0.001,0,0.002,0,0.003,0c0.015,0,0.03,0,0.045,0c0.021,0,0.042,0,0.063,0c0.001,0,0.003,0,0.005,0
	c79.488-0.005,159.709-4.907,208.165-40.37c8.914-6.523,10.852-19.038,4.328-27.951s-19.039-10.85-27.951-4.328
	c-39.196,28.686-111.877,32.648-184.591,32.65C96.569,471.995,40.055,445.302,40.055,370c0-30.069,11.769-57.266,23.149-83.565
	c2.911-6.726,5.858-13.538,8.622-20.435h300.012c11.046,0,20-8.954,20-20s-8.954-20-20-20H83.599l0.022-37.693
	c0.601-1.378,1.971-2.307,3.542-2.307h337.674c1.572,0,2.941,0.928,3.542,2.307l0.024,40.121l0.433,2.043
	c4.08,19.267,12.153,37.923,19.96,55.965c11.381,26.3,23.149,53.495,23.149,83.564c0,11.046,8.954,20,20,20c11.045,0,20-8.954,20-20
	C511.947,331.647,497.9,299.188,485.507,270.55z M326.055,80c-11.028,0-20-8.972-20-20s8.972-20,20-20s20,8.972,20,20
	S337.083,80,326.055,80z M186.055,40c11.028,0,20,8.972,20,20s-8.972,20-20,20s-20-8.972-20-20S175.027,40,186.055,40z"/>
<g>
</g>
<g>
</g>
<g>
</g>
<g>
</g>
<g>
</g>
<g>
</g>
<g>
</g>
<g>
</g>
<g>
</g>
<g>
</g>
<g>
</g>
<g>
</g>
<g>
</g>
<g>
</g>
<g>
</g>
</svg>
