<?xml version="1.0" encoding="iso-8859-1"?>
<!-- Generator: Adobe Illustrator 19.0.0, SVG Export Plug-In . SVG Version: 6.00 Build 0)  -->
<svg version="1.1" id="Capa_1" xmlns="http://www.w3.org/2000/svg" xmlns:xlink="http://www.w3.org/1999/xlink" x="0px" y="0px"
	 viewBox="0 0 512 512" style="enable-background:new 0 0 512 512;" xml:space="preserve">
<linearGradient id="SVGID_1_" gradientUnits="userSpaceOnUse" x1="0.5957" y1="257.2285" x2="512.5957" y2="257.2285" gradientTransform="matrix(0.9981 0 0 -0.9981 -0.0955 512.7271)">
	<stop  offset="0" style="stop-color:#00F2FE"/>
	<stop  offset="0.021" style="stop-color:#03EFFE"/>
	<stop  offset="0.293" style="stop-color:#24D2FE"/>
	<stop  offset="0.554" style="stop-color:#3CBDFE"/>
	<stop  offset="0.796" style="stop-color:#4AB0FE"/>
	<stop  offset="1" style="stop-color:#4FACFE"/>
</linearGradient>
<path style="fill:url(#SVGID_1_);" d="M491.54,422.175c11.024,0,19.961-8.937,19.961-19.961V192.624
	c0-27.516-22.386-49.903-49.903-49.903h-43.914c-27.516,0-49.903,22.386-49.903,49.903v279.454H224.062V352.312h63.875v49.903
	c0,11.024,8.937,19.961,19.961,19.961c11.024,0,19.961-8.937,19.961-19.961V49.903C327.86,22.386,305.473,0,277.957,0h-43.914
	c-27.516,0-49.903,22.386-49.903,49.903v422.175H40.421V352.312h63.875v49.903c0,11.024,8.937,19.961,19.961,19.961
	s19.961-8.937,19.961-19.961V262.487c0-27.516-22.386-49.903-49.903-49.903H50.402c-27.516,0-49.903,22.386-49.903,49.903v229.552
	C0.499,503.063,9.436,512,20.46,512h471.08c11.024,0,19.961-8.937,19.961-19.961c0-11.024-8.937-19.961-19.961-19.961h-83.836
	V352.312h63.875v49.903C471.579,413.239,480.516,422.175,491.54,422.175z M234.043,39.922h43.914c5.503,0,9.98,4.477,9.98,9.981
	V312.39h-63.875V49.903C224.062,44.399,228.54,39.922,234.043,39.922z M50.402,252.507h43.914c5.503,0,9.981,4.477,9.981,9.981
	v49.903H40.421v-49.903C40.421,256.984,44.898,252.507,50.402,252.507z M407.704,312.39V192.624c0-5.503,4.477-9.98,9.98-9.98
	h43.914c5.503,0,9.98,4.477,9.98,9.98V312.39H407.704z"/>
<g>
</g>
<g>
</g>
<g>
</g>
<g>
</g>
<g>
</g>
<g>
</g>
<g>
</g>
<g>
</g>
<g>
</g>
<g>
</g>
<g>
</g>
<g>
</g>
<g>
</g>
<g>
</g>
<g>
</g>
</svg>
