<?xml version="1.0" encoding="iso-8859-1"?>
<!-- Generator: Adobe Illustrator 19.0.0, SVG Export Plug-In . SVG Version: 6.00 Build 0)  -->
<svg version="1.1" id="Capa_1" xmlns="http://www.w3.org/2000/svg" xmlns:xlink="http://www.w3.org/1999/xlink" x="0px" y="0px"
	 viewBox="0 0 512 512" style="enable-background:new 0 0 512 512;" xml:space="preserve">
<linearGradient id="SVGID_1_" gradientUnits="userSpaceOnUse" x1="3.343704e-004" y1="258" x2="511.9997" y2="258" gradientTransform="matrix(1 0 0 -1 0 514)">
	<stop  offset="0" style="stop-color:#00F2FE"/>
	<stop  offset="0.021" style="stop-color:#03EFFE"/>
	<stop  offset="0.293" style="stop-color:#24D2FE"/>
	<stop  offset="0.554" style="stop-color:#3CBDFE"/>
	<stop  offset="0.796" style="stop-color:#4AB0FE"/>
	<stop  offset="1" style="stop-color:#4FACFE"/>
</linearGradient>
<path style="fill:url(#SVGID_1_);" d="M510.702,438.723c-2.251-10.814-12.845-17.752-23.657-15.504
	c-10.814,2.251-17.755,12.843-15.503,23.656c1.297,6.229-0.248,12.613-4.236,17.519c-2.31,2.841-7.461,7.606-15.999,7.606H275v-97
	c0-11.046-8.954-20-20-20s-20,8.954-20,20v97H60.693c-8.538,0-13.689-4.766-15.999-7.606c-3.989-4.905-5.533-11.29-4.236-17.519
	c10.884-52.28,40.243-97.17,80.35-128.399l2.608,8.884c4.661,15.876,16.842,28.396,32.586,33.488
	c5.044,1.633,10.237,2.432,15.398,2.432c10.945,0,21.741-3.6,30.628-10.489l53.034-41.116l53.397,40.99
	c13.223,10.149,30.552,13.042,46.354,7.739c15.802-5.304,27.877-18.064,32.299-34.136l2.54-9.231
	c18.942,14.479,35.678,32.12,49.357,52.52c6.15,9.175,18.574,11.626,27.75,5.474c9.174-6.151,11.625-18.575,5.473-27.749
	c-21.031-31.367-48.159-57.244-79.23-76.496c-2.487-2.829-5.792-4.995-9.695-6.069c-0.342-0.094-0.685-0.152-1.027-0.228
	c-14.277-7.926-29.295-14.498-44.86-19.62C370.535,220.041,392,180.48,392,136C392,61.009,330.991,0,256,0S120,61.009,120,136
	c0,44.509,21.492,84.092,54.643,108.918c-30.371,9.998-58.871,25.546-83.813,46.062c-45.732,37.617-77.529,90.086-89.532,147.743
	c-3.762,18.066,0.745,36.622,12.363,50.908C25.222,503.847,42.365,512,60.693,512h390.613c18.329,0,35.472-8.153,47.032-22.369
	C509.958,475.345,514.464,456.789,510.702,438.723z M177.519,321.179c-3.635,2.816-7.328,2.218-9.205,1.611
	c-1.878-0.607-5.222-2.285-6.517-6.697l-5.877-20.021c25.848-13.263,54.498-21.535,84.52-23.675L177.519,321.179z M348.545,315.654
	c-1.229,4.467-4.575,6.194-6.46,6.827c-1.886,0.632-5.597,1.273-9.271-1.547l-63.429-48.691
	c29.895,1.809,58.693,9.649,84.861,22.696L348.545,315.654z M160,136c0-52.935,43.065-96,96-96s96,43.065,96,96
	c0,51.337-40.505,93.389-91.235,95.881c-1.586-0.029-3.174-0.048-4.765-0.048c-1.561,0-3.12,0.023-4.679,0.051
	C200.551,229.436,160,187.366,160,136z"/>
<g>
</g>
<g>
</g>
<g>
</g>
<g>
</g>
<g>
</g>
<g>
</g>
<g>
</g>
<g>
</g>
<g>
</g>
<g>
</g>
<g>
</g>
<g>
</g>
<g>
</g>
<g>
</g>
<g>
</g>
</svg>
