<?xml version="1.0" encoding="iso-8859-1"?>
<!-- Generator: Adobe Illustrator 19.0.0, SVG Export Plug-In . SVG Version: 6.00 Build 0)  -->
<svg version="1.1" id="Capa_1" xmlns="http://www.w3.org/2000/svg" xmlns:xlink="http://www.w3.org/1999/xlink" x="0px" y="0px"
	 viewBox="0 0 512 512" style="enable-background:new 0 0 512 512;" xml:space="preserve">
<linearGradient id="SVGID_1_" gradientUnits="userSpaceOnUse" x1="0" y1="258" x2="512" y2="258" gradientTransform="matrix(1 0 0 -1 0 514)">
	<stop  offset="0" style="stop-color:#00F2FE"/>
	<stop  offset="0.021" style="stop-color:#03EFFE"/>
	<stop  offset="0.293" style="stop-color:#24D2FE"/>
	<stop  offset="0.554" style="stop-color:#3CBDFE"/>
	<stop  offset="0.796" style="stop-color:#4AB0FE"/>
	<stop  offset="1" style="stop-color:#4FACFE"/>
</linearGradient>
<path style="fill:url(#SVGID_1_);" d="M400,435H88c-23.866,0-46.119-9.313-62.66-26.226C8.999,392.067,0,369.773,0,346
	c0-42.32,29.978-77.838,70-86.813V241c0-49.075,39.925-89,89-89c14.217,0,28.067,3.414,40.47,9.751
	c8.067-19.71,20.729-37.444,37.093-51.591C261.297,88.776,292.945,77,325.678,77C400.846,77,462,138.154,462,213.322v13.324
	c31.119,21.091,50,56.222,50,94.354c0,11.046-8.954,20-20,20s-20-8.954-20-20c0-27.458-15.088-52.523-39.376-65.414
	C426.087,252.116,422,245.32,422,237.92v-24.598C422,160.21,378.79,117,325.678,117c-47.067,0-87.985,35.008-95.178,81.431
	c-1.188,7.666-6.701,13.953-14.146,16.132c-7.445,2.183-15.479-0.143-20.612-5.959C186.427,198.052,173.035,192,159,192
	c-27.019,0-49,21.981-49,49v36c0,11.046-8.954,20-20,20h-0.154C62.36,297,40,318.981,40,346c0,27.477,21.084,49,48,49h311
	c0.195-0.01,0.392-0.017,0.589-0.021c12.762-0.267,25.273-3.84,36.184-10.332c9.49-5.646,21.767-2.533,27.415,6.96
	c5.648,9.492,2.532,21.767-6.96,27.415c-16.529,9.835-35.42,15.33-54.702,15.92C401.021,434.98,400.513,435,400,435z"/>
<g>
</g>
<g>
</g>
<g>
</g>
<g>
</g>
<g>
</g>
<g>
</g>
<g>
</g>
<g>
</g>
<g>
</g>
<g>
</g>
<g>
</g>
<g>
</g>
<g>
</g>
<g>
</g>
<g>
</g>
</svg>
