<?xml version="1.0" encoding="iso-8859-1"?>
<!-- Generator: Adobe Illustrator 19.0.0, SVG Export Plug-In . SVG Version: 6.00 Build 0)  -->
<svg version="1.1" id="Capa_1" xmlns="http://www.w3.org/2000/svg" xmlns:xlink="http://www.w3.org/1999/xlink" x="0px" y="0px"
	 viewBox="0 0 512 512" style="enable-background:new 0 0 512 512;" xml:space="preserve">
<linearGradient id="SVGID_1_" gradientUnits="userSpaceOnUse" x1="3.883672e-004" y1="258" x2="511.9996" y2="258" gradientTransform="matrix(1 0 0 -1 0 514)">
	<stop  offset="0" style="stop-color:#00F2FE"/>
	<stop  offset="0.021" style="stop-color:#03EFFE"/>
	<stop  offset="0.293" style="stop-color:#24D2FE"/>
	<stop  offset="0.554" style="stop-color:#3CBDFE"/>
	<stop  offset="0.796" style="stop-color:#4AB0FE"/>
	<stop  offset="1" style="stop-color:#4FACFE"/>
</linearGradient>
<path style="fill:url(#SVGID_1_);" d="M498.339,489.631C486.778,503.847,469.636,512,451.307,512H361c-11.046,0-20-8.954-20-20
	s8.954-20,20-20h90.307c8.538,0,13.688-4.766,15.999-7.606c3.989-4.905,5.533-11.29,4.236-17.518
	c-2.252-10.814,4.689-21.405,15.504-23.657c10.812-2.25,21.405,4.69,23.656,15.503C514.464,456.789,509.957,475.344,498.339,489.631
	z M314.532,446.7c1.464,6.662-0.568,13.61-5.391,18.434l-39.998,40.007C265.392,508.892,260.305,511,255,511
	c-5.306,0-10.394-2.107-14.144-5.859l-40.002-40.007c-4.823-4.823-6.855-11.772-5.392-18.435l38.181-173.709
	c-94.207,9.683-173.603,79.817-193.187,173.885c-1.297,6.229,0.247,12.613,4.236,17.519c2.311,2.841,7.461,7.606,15.999,7.606H148
	c11.046,0,20,8.954,20,20s-8.954,20-20,20H60.693c-18.329,0-35.472-8.153-47.032-22.369C2.043,475.344-2.464,456.789,1.298,438.722
	c12.003-57.656,43.8-110.126,89.532-147.743c24.942-20.515,53.442-36.064,83.813-46.062C141.492,220.092,120,180.509,120,136
	C120,61.009,181.01,0,256,0s136,61.009,136,136c0,44.48-21.465,84.04-54.58,108.869c54.337,17.882,101.994,53.466,134.812,102.412
	c6.151,9.174,3.701,21.598-5.474,27.75c-9.173,6.152-21.599,3.7-27.749-5.474c-37.226-55.519-96.996-90.736-162.703-96.788
	L314.532,446.7z M251.321,231.885c1.559-0.028,3.118-0.051,4.679-0.051c1.591,0,3.179,0.019,4.765,0.048
	C311.495,229.389,352,187.337,352,136c0-52.935-43.065-96-96-96s-96,43.065-96,96C160,187.366,200.551,229.436,251.321,231.885z
	 M273.114,444.594l-18.115-82.426l-18.117,82.425l18.117,18.12L273.114,444.594z"/>
<g>
</g>
<g>
</g>
<g>
</g>
<g>
</g>
<g>
</g>
<g>
</g>
<g>
</g>
<g>
</g>
<g>
</g>
<g>
</g>
<g>
</g>
<g>
</g>
<g>
</g>
<g>
</g>
<g>
</g>
</svg>
