<?xml version="1.0" encoding="iso-8859-1"?>
<!-- Generator: Adobe Illustrator 19.0.0, SVG Export Plug-In . SVG Version: 6.00 Build 0)  -->
<svg version="1.1" id="Capa_1" xmlns="http://www.w3.org/2000/svg" xmlns:xlink="http://www.w3.org/1999/xlink" x="0px" y="0px"
	 viewBox="0 0 511.999 511.999" style="enable-background:new 0 0 511.999 511.999;" xml:space="preserve">
<linearGradient id="SVGID_1_" gradientUnits="userSpaceOnUse" x1="0" y1="257.9967" x2="511.9994" y2="257.9967" gradientTransform="matrix(1 0 0 -1 0 513.9964)">
	<stop  offset="0" style="stop-color:#00F2FE"/>
	<stop  offset="0.021" style="stop-color:#03EFFE"/>
	<stop  offset="0.293" style="stop-color:#24D2FE"/>
	<stop  offset="0.554" style="stop-color:#3CBDFE"/>
	<stop  offset="0.796" style="stop-color:#4AB0FE"/>
	<stop  offset="1" style="stop-color:#4FACFE"/>
</linearGradient>
<path style="fill:url(#SVGID_1_);" d="M491.999,440.998c6.214,0,12.074-2.888,15.859-7.815c3.786-4.927,5.066-11.334,3.466-17.338
	l-8-30c-2.846-10.673-13.807-17.018-24.479-14.171c-10.673,2.846-17.018,13.805-14.172,24.478l1.293,4.847H355.231l16.414-70l0,0
	h94.942c11.046,0,20-8.954,20-20s-8.954-20-20-20h-35.223l-4.041-15.153c-2.846-10.673-13.808-17.02-24.479-14.171
	c-10.673,2.846-17.018,13.805-14.172,24.478l1.293,4.847l0,0H279.231l0,0l16.414-70l0,0h94.942c11.046,0,20-8.954,20-20
	s-8.954-20-20-20h-38.223l-4.041-15.153c-2.846-10.673-13.808-17.018-24.479-14.171c-10.673,2.846-17.018,13.805-14.172,24.478
	l1.293,4.847l0,0H200.231l0,0l16.414-70h94.942c11.046,0,20-8.954,20-20s-8.954-20-20-20H200.793
	c-9.287,0-17.352,6.393-19.472,15.434l-22.175,94.563H118.51c-9.304,0-17.378,6.415-19.482,15.478l-21.94,94.522H45.41
	c-9.312,0-17.391,6.426-19.486,15.499l-25.411,110c-1.372,5.939,0.039,12.18,3.833,16.951c3.794,4.77,9.557,7.55,15.653,7.55
	H491.999 M295.953,330.998l15.97,70H200.075l15.97-70l0,0H295.953L295.953,330.998z M134.4,220.998h79.554l0,0l15.953,70l0,0
	H118.151l0,0L134.4,220.998z M61.316,330.998L61.316,330.998h79.036l16.414,70H45.145L61.316,330.998z"/>
<g>
</g>
<g>
</g>
<g>
</g>
<g>
</g>
<g>
</g>
<g>
</g>
<g>
</g>
<g>
</g>
<g>
</g>
<g>
</g>
<g>
</g>
<g>
</g>
<g>
</g>
<g>
</g>
<g>
</g>
</svg>
