<?xml version="1.0" encoding="iso-8859-1"?>
<!-- Generator: Adobe Illustrator 19.0.0, SVG Export Plug-In . SVG Version: 6.00 Build 0)  -->
<svg version="1.1" id="Capa_1" xmlns="http://www.w3.org/2000/svg" xmlns:xlink="http://www.w3.org/1999/xlink" x="0px" y="0px"
	 viewBox="0 0 512 512" style="enable-background:new 0 0 512 512;" xml:space="preserve">
<linearGradient id="SVGID_1_" gradientUnits="userSpaceOnUse" x1="32.5958" y1="257.2288" x2="480.5958" y2="257.2288" gradientTransform="matrix(0.9981 0 0 -0.9981 -0.0955 512.7274)">
	<stop  offset="0" style="stop-color:#00F2FE"/>
	<stop  offset="0.021" style="stop-color:#03EFFE"/>
	<stop  offset="0.293" style="stop-color:#24D2FE"/>
	<stop  offset="0.554" style="stop-color:#3CBDFE"/>
	<stop  offset="0.796" style="stop-color:#4AB0FE"/>
	<stop  offset="1" style="stop-color:#4FACFE"/>
</linearGradient>
<path style="fill:url(#SVGID_1_);" d="M256,512c-30.33,0-59.996-7.141-88.175-21.226c-26.308-13.148-50.119-31.706-70.774-55.157
	c-41.064-46.625-64.615-107.546-64.615-167.142V110.784c0-7.866,4.619-14.997,11.796-18.214L246.837,1.747
	c5.171-2.319,11.084-2.328,16.263-0.03l204.6,90.823c7.214,3.202,11.863,10.353,11.863,18.244v157.692
	c0,43.932-12.497,88.182-36.139,127.967c-5.632,9.477-17.879,12.594-27.358,6.963c-9.477-5.632-12.594-17.88-6.962-27.357
	c19.978-33.618,30.537-70.817,30.537-107.574V123.762L255.042,41.818L72.359,123.711v144.765
	c0,106.559,87.53,203.602,183.641,203.602c33.971,0,67.182-11.102,96.043-32.108c8.914-6.485,21.398-4.52,27.886,4.393
	c6.487,8.914,4.52,21.397-4.393,27.885C339.803,498.255,298.469,512,256,512z"/>
<g>
</g>
<g>
</g>
<g>
</g>
<g>
</g>
<g>
</g>
<g>
</g>
<g>
</g>
<g>
</g>
<g>
</g>
<g>
</g>
<g>
</g>
<g>
</g>
<g>
</g>
<g>
</g>
<g>
</g>
</svg>
