<?xml version="1.0" encoding="iso-8859-1"?>
<!-- Generator: Adobe Illustrator 19.0.0, SVG Export Plug-In . SVG Version: 6.00 Build 0)  -->
<svg version="1.1" id="Capa_1" xmlns="http://www.w3.org/2000/svg" xmlns:xlink="http://www.w3.org/1999/xlink" x="0px" y="0px"
	 viewBox="0 0 512 512" style="enable-background:new 0 0 512 512;" xml:space="preserve">
<linearGradient id="SVGID_1_" gradientUnits="userSpaceOnUse" x1="8.509406e-004" y1="257.9977" x2="512.0027" y2="257.9977" gradientTransform="matrix(1 0 0 -1 -2.862187e-004 513.9962)">
	<stop  offset="0" style="stop-color:#00F2FE"/>
	<stop  offset="0.021" style="stop-color:#03EFFE"/>
	<stop  offset="0.293" style="stop-color:#24D2FE"/>
	<stop  offset="0.554" style="stop-color:#3CBDFE"/>
	<stop  offset="0.796" style="stop-color:#4AB0FE"/>
	<stop  offset="1" style="stop-color:#4FACFE"/>
</linearGradient>
<path style="fill:url(#SVGID_1_);" d="M492.001,287.998H379.034l42.63-111.993l23.769,59.422
	c3.128,7.82,10.638,12.578,18.575,12.578c2.473,0,4.986-0.461,7.422-1.436c10.256-4.102,15.244-15.742,11.142-25.997l-34.433-86.083
	c19.482-9.924,32.864-30.167,32.864-53.489c0-11.046-8.954-20-20-20s-20,8.954-20,20c0,10.989-8.909,19.937-19.884,20
	c-8.215-0.065-20.619-9.599-32.616-18.819c-16.573-12.738-35.358-27.175-59.221-31.968c-17.855-3.587-35.485-1.244-53.279,7.154V20
	c0-11.046-8.954-20-20-20s-20,8.954-20,20v36.909c-17.454-8.018-34.756-10.216-52.279-6.696
	c-23.862,4.792-42.647,19.23-59.221,31.968c-11.997,9.221-24.401,18.754-32.616,18.819c-10.975-0.063-19.884-9.011-19.884-20
	c0-11.046-8.954-20-20-20s-20,8.954-20,20c0,23.122,13.154,43.216,32.364,53.23L1.312,299.883c-0.988,2.596-1.398,5.269-1.297,7.88
	c-0.001,0.079-0.012,0.155-0.012,0.235c0,50.178,40.822,90.999,90.999,90.999s90.999-40.822,90.999-90.999c0-11.046-8.954-20-20-20
	H48.635l46.662-122.586l28.149,70.044c3.137,7.805,10.638,12.548,18.564,12.548c2.481,0,5.007-0.466,7.451-1.448
	c10.249-4.119,15.219-15.766,11.1-26.015l-35.985-89.544c8.428-4.906,16.428-11.049,24.304-17.102
	c28.837-22.166,50.136-38.523,87.123-10.389v339.547c-52.997,5.482-96.115,30.515-98.14,31.706
	c-9.521,5.601-12.698,17.858-7.098,27.379c5.6,9.52,17.857,12.698,27.379,7.098c0.463-0.272,46.896-27.239,97.858-27.239
	c50.599,0,97.421,26.983,97.858,27.239c3.186,1.874,6.676,2.765,10.122,2.765c6.854,0,13.53-3.527,17.257-9.863
	c5.601-9.521,2.423-21.779-7.098-27.379c-2.025-1.191-45.144-26.223-98.14-31.706V104.271c37.607-29.198,59.027-12.741,88.123,9.623
	c9.808,7.538,19.807,15.218,30.589,20.469L331.71,299.882c-0.017,0.045-0.027,0.091-0.044,0.136
	c-1.066,2.445-1.665,5.14-1.665,7.978c0,50.178,40.822,90.999,90.999,90.999s90.999-40.822,90.999-90.999
	C512,296.952,503.047,287.998,492.001,287.998z M91.003,358.998c-21.025,0-39.122-12.792-46.914-31h93.827
	C130.125,346.206,112.029,358.998,91.003,358.998z M421.001,358.998c-21.025,0-39.122-12.792-46.914-31h93.827
	C460.123,346.206,442.027,358.998,421.001,358.998z"/>
<g>
</g>
<g>
</g>
<g>
</g>
<g>
</g>
<g>
</g>
<g>
</g>
<g>
</g>
<g>
</g>
<g>
</g>
<g>
</g>
<g>
</g>
<g>
</g>
<g>
</g>
<g>
</g>
<g>
</g>
</svg>
