<?xml version="1.0" encoding="iso-8859-1"?>
<!-- Generator: Adobe Illustrator 19.0.0, SVG Export Plug-In . SVG Version: 6.00 Build 0)  -->
<svg version="1.1" id="Capa_1" xmlns="http://www.w3.org/2000/svg" xmlns:xlink="http://www.w3.org/1999/xlink" x="0px" y="0px"
	 viewBox="0 0 512 512" style="enable-background:new 0 0 512 512;" xml:space="preserve">
<linearGradient id="SVGID_1_" gradientUnits="userSpaceOnUse" x1="37" y1="258" x2="475" y2="258" gradientTransform="matrix(1 0 0 -1 0 514)">
	<stop  offset="0" style="stop-color:#00F2FE"/>
	<stop  offset="0.021" style="stop-color:#03EFFE"/>
	<stop  offset="0.293" style="stop-color:#24D2FE"/>
	<stop  offset="0.554" style="stop-color:#3CBDFE"/>
	<stop  offset="0.796" style="stop-color:#4AB0FE"/>
	<stop  offset="1" style="stop-color:#4FACFE"/>
</linearGradient>
<path style="fill:url(#SVGID_1_);" d="M395,512H117c-44.112,0-80-35.888-80-80V80c0-44.112,35.888-80,80-80h278
	c44.112,0,80,35.888,80,80v252c0,11.046-8.954,20-20,20s-20-8.954-20-20V80c0-22.056-17.944-40-40-40H117c-22.056,0-40,17.944-40,40
	v352c0,22.056,17.944,40,40,40h278c22.056,0,40-17.944,40-40c0-11.046,8.954-20,20-20s20,8.954,20,20
	C475,476.112,439.112,512,395,512z M395,412c0-11.046-8.954-20-20-20h-80c-11.046,0-20,8.954-20,20s8.954,20,20,20h80
	C386.046,432,395,423.046,395,412z M158.08,260L158.08,260c0-11.046-10.034-20-21.08-20l0,0c-11.046,0-20,8.954-20,20l0,0
	c0,11.046,8.954,20,20,20l0,0C148.046,280,158.08,271.046,158.08,260z M237,260L237,260c0-11.046-8.954-20-20-20l0,0
	c-11.046,0-20,8.954-20,20l0,0c0,11.046,8.954,20,20,20l0,0C228.046,280,237,271.046,237,260z M316,260L316,260
	c0-11.046-8.954-20-20-20l0,0c-11.046,0-20,8.954-20,20l0,0c0,11.046,8.954,20,20,20l0,0C307.046,280,316,271.046,316,260z M158,336
	L158,336c0-11.046-9.954-20-21-20l0,0c-11.046,0-20,8.954-20,20l0,0c0,11.046,8.954,20,20,20l0,0C148.046,356,158,347.046,158,336z
	 M237,336L237,336c0-11.046-8.954-20-20-20l0,0c-11.046,0-20,8.954-20,20l0,0c0,11.046,8.954,20,20,20l0,0
	C228.046,356,237,347.046,237,336z M316,336L316,336c0-11.046-8.954-20-20-20l0,0c-11.046,0-20,8.954-20,20l0,0
	c0,11.046,8.954,20,20,20l0,0C307.046,356,316,347.046,316,336z M395,260L395,260c0-11.046-8.954-20-20-20l0,0
	c-11.046,0-20,8.954-20,20l0,0c0,11.046,8.954,20,20,20l0,0C386.046,280,395,271.046,395,260z M157,412L157,412
	c0-11.046-8.954-20-20-20l0,0c-11.046,0-20,8.954-20,20l0,0c0,11.046,8.954,20,20,20l0,0C148.046,432,157,423.046,157,412z M395,336
	L395,336c0-11.046-8.954-20-20-20l0,0c-11.046,0-20,8.954-20,20l0,0c0,11.046,8.954,20,20,20l0,0C386.046,356,395,347.046,395,336z
	 M236,412L236,412c0-11.046-8.954-20-20-20l0,0c-11.046,0-20,8.954-20,20l0,0c0,11.046,8.954,20,20,20l0,0
	C227.046,432,236,423.046,236,412z M395,180v-80c0-11.046-8.954-20-20-20H137c-11.046,0-20,8.954-20,20v80c0,11.046,8.954,20,20,20
	h238C386.046,200,395,191.046,395,180z M157,120h198v40H157V120z"/>
<g>
</g>
<g>
</g>
<g>
</g>
<g>
</g>
<g>
</g>
<g>
</g>
<g>
</g>
<g>
</g>
<g>
</g>
<g>
</g>
<g>
</g>
<g>
</g>
<g>
</g>
<g>
</g>
<g>
</g>
</svg>
