<?xml version="1.0" encoding="iso-8859-1"?>
<!-- Generator: Adobe Illustrator 19.0.0, SVG Export Plug-In . SVG Version: 6.00 Build 0)  -->
<svg version="1.1" id="Capa_1" xmlns="http://www.w3.org/2000/svg" xmlns:xlink="http://www.w3.org/1999/xlink" x="0px" y="0px"
	 viewBox="0 0 512 512" style="enable-background:new 0 0 512 512;" xml:space="preserve">
<linearGradient id="SVGID_1_" gradientUnits="userSpaceOnUse" x1="0.0957" y1="257.2282" x2="513.0957" y2="257.2282" gradientTransform="matrix(0.9981 0 0 -0.9981 -0.0955 512.7268)">
	<stop  offset="0" style="stop-color:#00F2FE"/>
	<stop  offset="0.021" style="stop-color:#03EFFE"/>
	<stop  offset="0.293" style="stop-color:#24D2FE"/>
	<stop  offset="0.554" style="stop-color:#3CBDFE"/>
	<stop  offset="0.796" style="stop-color:#4AB0FE"/>
	<stop  offset="1" style="stop-color:#4FACFE"/>
</linearGradient>
<path style="fill:url(#SVGID_1_);" d="M235.52,420.179v-11.023c-27.021-0.934-47.926-22.052-47.926-48.86
	c0-11.024,8.937-19.961,19.961-19.961s19.961,8.937,19.961,19.961c0,5.897,4.965,8.982,9.871,8.982h29.727
	c9.312,0,16.334-6.544,16.334-15.221v-4.899c0-8.865-7.174-15.809-16.334-15.809h-18.291c-30.959,0-56.144-25.52-56.144-56.889
	v-7.28c0-15.086,5.887-29.154,16.576-39.614c7.339-7.181,16.388-12.106,26.268-14.439v-13.522c0-11.024,8.937-19.961,19.961-19.961
	c11.024,0,19.961,8.937,19.961,19.961v12.836c23.275,4.277,40.94,24.239,40.94,48.161c0,11.024-8.937,19.961-19.961,19.961
	c-11.024,0-19.961-8.937-19.961-19.961c0-5.695-5.259-9.098-10.342-9.098h-17.297c-9.248,0-16.222,6.739-16.222,15.675v7.28
	c0,9.197,7.428,16.967,16.222,16.967h18.291c14.985,0,29.06,5.703,39.632,16.058c10.72,10.5,16.624,24.59,16.624,39.674v4.899
	c0,28.141-20.468,50.725-47.926,54.561v11.56c0,11.024-8.937,19.961-19.961,19.961C244.457,440.14,235.52,431.204,235.52,420.179z
	 M512,335.345c0,11.024-8.937,19.961-19.961,19.961c-11.024,0-19.961-8.937-19.961-19.961c0-63.805-40.753-113.488-83.784-148.166
	c27.791,42.366,41.866,85.765,41.866,129.204c0,11.024-8.937,19.961-19.961,19.961c-11.024,0-19.961-8.937-19.961-19.961
	c0-61.816-35.842-124.341-106.53-185.836c-0.316-0.275-0.622-0.541-0.918-0.799h-64.244l0,0
	c-11.444,4.879-50.966,22.807-89.801,53.04c-58.939,45.884-88.824,97.213-88.824,152.557c0,82.343,47.567,134.695,124.152,136.679
	l179.534,0.054c45.033-1.013,82.038-18.925,104.222-50.451c6.345-9.016,18.796-11.181,27.812-4.837s11.181,18.796,4.838,27.812
	c-29.71,42.22-78.09,66.154-136.231,67.394c-0.144,0.003-0.287,0.004-0.431,0.004l-180.005-0.054c-0.162,0-0.322-0.002-0.483-0.006
	c-47.747-1.171-88.414-18.015-117.605-48.71C15.811,431.777,0,387.555,0,335.345c0-38.063,11.311-74.822,33.617-109.255
	c17.368-26.809,41.401-52.193,71.432-75.448c32.924-25.495,65.618-42.716,84.897-51.814l-26.921-69.678
	c-0.886-2.295-1.341-4.734-1.341-7.194v-1.996c0-6.557,3.221-12.697,8.616-16.424c5.396-3.727,12.278-4.565,18.411-2.245
	c44.926,17.007,88.623,17.004,133.583-0.001c6.133-2.319,13.014-1.479,18.408,2.248s8.615,9.865,8.615,16.422v1.996
	c0,2.46-0.455,4.899-1.341,7.194l-26.908,69.645c19.367,9.09,52.239,26.312,85.344,51.817c30.18,23.251,54.333,48.632,71.789,75.439
	C500.628,260.493,512,297.265,512,335.345z M213.817,49.841l15.448,39.984h52.471l15.45-39.989
	C269.429,55.209,241.567,55.211,213.817,49.841z"/>
<g>
</g>
<g>
</g>
<g>
</g>
<g>
</g>
<g>
</g>
<g>
</g>
<g>
</g>
<g>
</g>
<g>
</g>
<g>
</g>
<g>
</g>
<g>
</g>
<g>
</g>
<g>
</g>
<g>
</g>
</svg>
