<?xml version="1.0" encoding="iso-8859-1"?>
<!-- Generator: Adobe Illustrator 19.0.0, SVG Export Plug-In . SVG Version: 6.00 Build 0)  -->
<svg version="1.1" id="Capa_1" xmlns="http://www.w3.org/2000/svg" xmlns:xlink="http://www.w3.org/1999/xlink" x="0px" y="0px"
	 viewBox="0 0 512 512" style="enable-background:new 0 0 512 512;" xml:space="preserve">
<linearGradient id="SVGID_1_" gradientUnits="userSpaceOnUse" x1="5.001575e-004" y1="258.0004" x2="511.9998" y2="258.0004" gradientTransform="matrix(1 0 0 -1 0 514.0005)">
	<stop  offset="0" style="stop-color:#00F2FE"/>
	<stop  offset="0.021" style="stop-color:#03EFFE"/>
	<stop  offset="0.293" style="stop-color:#24D2FE"/>
	<stop  offset="0.554" style="stop-color:#3CBDFE"/>
	<stop  offset="0.796" style="stop-color:#4AB0FE"/>
	<stop  offset="1" style="stop-color:#4FACFE"/>
</linearGradient>
<path style="fill:url(#SVGID_1_);" d="M393.999,418.999V492c0,11.045-8.954,20-20,20s-20-8.954-20-20v-73.001
	c0-11.045,8.954-20,20-20S393.999,407.954,393.999,418.999z M296,291c-11.045,0-20,8.954-20,20v181c0,11.045,8.954,20,20,20
	s20-8.954,20-20V310.999C315.999,299.954,307.045,291,296,291z M452.932,399.068c-11.019,0.038-19.932,8.981-19.932,20V492
	c0,11.045,8.954,20,20,20h0.001c11.045,0,20-8.954,20-20v-72.932C473,407.996,464.004,399.03,452.932,399.068z M139,227
	c-11.046,0-20,8.954-20,20v245.001c0,11.045,8.954,19.999,20,19.999h0.001c11.045,0,20-8.954,20-19.999V247
	C159,235.954,150.046,227,139,227z M60,148c-11.046,0-20,8.954-20,20v324.001C40,503.046,48.954,512,60,512h0.001
	c11.045,0,20-8.954,20-19.999V168C80,156.954,71.046,148,60,148z M218,296c-11.046,0-20,8.954-20,20v176c0,11.045,8.954,20,20,20
	h0.001c11.045,0,20-8.954,20-20V316C238,304.954,229.046,296,218,296z M492,218c-11.046,0-20,8.954-20,20v51.081L371.402,185.078
	C359.57,172.846,343.713,165.85,327.865,166c-15.132,0.103-30.446,6.797-42.015,18.366l-23.342,23.342
	c-3.923,3.923-8.961,6.217-13.823,6.294c-5.128,0.088-10.435-2.234-14.519-6.352l-84.009-84.693
	c-7.778-7.841-20.441-7.893-28.284-0.114s-7.894,20.442-0.115,28.284l84.009,84.693c11.708,11.803,27.579,18.426,43.549,18.177
	c15.378-0.243,30.108-6.637,41.476-18.005l23.342-23.342c4.133-4.133,9.368-6.62,14.003-6.651c0.031,0,0.062,0,0.094,0
	c4.859,0,10.243,2.57,14.421,6.889L443.355,317H392c-11.046,0-20,8.954-20,20s8.954,20,20,20h60c33.084,0,60-26.916,60-60v-59
	C512,226.954,503.046,218,492,218z M34.215,5.93C26.443-1.92,13.781-1.985,5.931,5.785c-7.85,7.771-7.915,20.434-0.145,28.284
	l46.565,47.043c3.912,3.951,9.062,5.93,14.215,5.93c5.084,0,10.17-1.927,14.069-5.786c7.85-7.771,7.915-20.434,0.145-28.284
	L34.215,5.93z"/>
<g>
</g>
<g>
</g>
<g>
</g>
<g>
</g>
<g>
</g>
<g>
</g>
<g>
</g>
<g>
</g>
<g>
</g>
<g>
</g>
<g>
</g>
<g>
</g>
<g>
</g>
<g>
</g>
<g>
</g>
</svg>
