<?xml version="1.0" encoding="iso-8859-1"?>
<!-- Generator: Adobe Illustrator 19.0.0, SVG Export Plug-In . SVG Version: 6.00 Build 0)  -->
<svg version="1.1" id="Capa_1" xmlns="http://www.w3.org/2000/svg" xmlns:xlink="http://www.w3.org/1999/xlink" x="0px" y="0px"
	 viewBox="0 0 512 512" style="enable-background:new 0 0 512 512;" xml:space="preserve">
<linearGradient id="SVGID_1_" gradientUnits="userSpaceOnUse" x1="0.0998" y1="257.1943" x2="513.1428" y2="257.1943" gradientTransform="matrix(0.998 0 0 -0.998 -0.0996 512.6714)">
	<stop  offset="0" style="stop-color:#00F2FE"/>
	<stop  offset="0.021" style="stop-color:#03EFFE"/>
	<stop  offset="0.293" style="stop-color:#24D2FE"/>
	<stop  offset="0.554" style="stop-color:#3CBDFE"/>
	<stop  offset="0.796" style="stop-color:#4AB0FE"/>
	<stop  offset="1" style="stop-color:#4FACFE"/>
</linearGradient>
<path style="fill:url(#SVGID_1_);" d="M207.664,511.501h-49.898c-11.024,0-19.959-8.936-19.959-19.959s8.936-19.959,19.959-19.959
	h49.898c11.024,0,19.959,8.936,19.959,19.959S218.687,511.501,207.664,511.501z M373.283,491.542
	c0-11.024-8.936-19.959-19.959-19.959h-49.898c-11.024,0-19.959,8.936-19.959,19.959s8.936,19.959,19.959,19.959h49.898
	C364.347,511.501,373.283,502.566,373.283,491.542z M80.922,491.542c0-11.024-8.936-19.959-19.959-19.959
	c-11.58,0-21-9.421-21-21.001c0-11.024-8.936-19.959-19.959-19.959s-19.959,8.936-19.959,19.959c0,33.592,27.328,60.92,60.919,60.92
	C71.986,511.501,80.922,502.566,80.922,491.542z M511.002,450.582c0-11.024-8.936-19.959-19.959-19.959
	c-11.024,0-19.959,8.936-19.959,19.959c0,11.58-9.421,21.001-21,21.001c-11.024,0-19.959,8.936-19.959,19.959
	s8.936,19.959,19.959,19.959C483.675,511.501,511.002,484.173,511.002,450.582z M227.623,20.458
	c0-11.024-8.936-19.959-19.959-19.959h-49.898c-11.024,0-19.959,8.936-19.959,19.959s8.936,19.959,19.959,19.959h49.898
	C218.687,40.417,227.623,31.481,227.623,20.458z M373.283,20.458c0-11.024-8.936-19.959-19.959-19.959h-49.898
	c-11.024,0-19.959,8.936-19.959,19.959s8.936,19.959,19.959,19.959h49.898C364.347,40.417,373.283,31.481,373.283,20.458z
	 M39.962,61.418c0-11.58,9.421-21.001,21-21.001c11.024,0,19.959-8.936,19.959-19.959S71.985,0.498,60.962,0.498
	c-33.592,0-60.919,27.328-60.919,60.92c0,11.024,8.936,19.959,19.959,19.959S39.962,72.442,39.962,61.418z M511.002,61.418
	c0-33.592-27.327-60.92-60.919-60.92c-11.024,0-19.959,8.936-19.959,19.959s8.936,19.959,19.959,19.959c11.58,0,21,9.421,21,21.001
	c0,11.024,8.936,19.959,19.959,19.959C502.066,81.378,511.002,72.442,511.002,61.418z M39.919,358.769V308.87
	c0-11.024-8.936-19.959-19.959-19.959S0,297.847,0,308.87v49.898c0,11.024,8.936,19.959,19.959,19.959
	S39.919,369.792,39.919,358.769z M39.919,213.109v-49.898c0-11.024-8.936-19.959-19.959-19.959S0,152.187,0,163.211v49.898
	c0,11.024,8.936,19.959,19.959,19.959S39.919,224.133,39.919,213.109z M512,358.769V308.87c0-11.024-8.936-19.959-19.959-19.959
	s-19.959,8.936-19.959,19.959v49.898c0,11.024,8.936,19.959,19.959,19.959S512,369.792,512,358.769z M512,213.109v-49.898
	c0-11.024-8.936-19.959-19.959-19.959s-19.959,8.936-19.959,19.959v49.898c0,11.024,8.936,19.959,19.959,19.959
	S512,224.133,512,213.109z"/>
<g>
</g>
<g>
</g>
<g>
</g>
<g>
</g>
<g>
</g>
<g>
</g>
<g>
</g>
<g>
</g>
<g>
</g>
<g>
</g>
<g>
</g>
<g>
</g>
<g>
</g>
<g>
</g>
<g>
</g>
</svg>
