<?xml version="1.0" encoding="iso-8859-1"?>
<!-- Generator: Adobe Illustrator 19.0.0, SVG Export Plug-In . SVG Version: 6.00 Build 0)  -->
<svg version="1.1" id="Capa_1" xmlns="http://www.w3.org/2000/svg" xmlns:xlink="http://www.w3.org/1999/xlink" x="0px" y="0px"
	 viewBox="0 0 512 512" style="enable-background:new 0 0 512 512;" xml:space="preserve">
<linearGradient id="SVGID_1_" gradientUnits="userSpaceOnUse" x1="32.5956" y1="257.2282" x2="480.5956" y2="257.2282" gradientTransform="matrix(0.9981 0 0 -0.9981 -0.0955 512.7267)">
	<stop  offset="0" style="stop-color:#00F2FE"/>
	<stop  offset="0.021" style="stop-color:#03EFFE"/>
	<stop  offset="0.293" style="stop-color:#24D2FE"/>
	<stop  offset="0.554" style="stop-color:#3CBDFE"/>
	<stop  offset="0.796" style="stop-color:#4AB0FE"/>
	<stop  offset="1" style="stop-color:#4FACFE"/>
</linearGradient>
<path style="fill:url(#SVGID_1_);" d="M256,512c-30.33,0-59.996-7.141-88.175-21.225c-26.308-13.148-50.119-31.706-70.774-55.158
	c-41.064-46.625-64.615-107.546-64.615-167.142V110.783c0-7.865,4.619-14.997,11.796-18.214L246.837,1.746
	c5.171-2.318,11.084-2.328,16.263-0.03l204.6,90.823c7.214,3.202,11.863,10.353,11.863,18.244v157.692
	c0,43.932-12.497,88.182-36.139,127.967c-5.632,9.477-17.879,12.595-27.358,6.962c-9.477-5.632-12.594-17.88-6.962-27.358
	c19.978-33.616,30.537-70.815,30.537-107.572V123.762L255.042,41.818L72.359,123.71v144.765
	c0,106.558,87.53,203.602,183.641,203.602c33.971,0,67.182-11.103,96.043-32.108c8.914-6.486,21.398-4.519,27.886,4.393
	c6.487,8.914,4.52,21.398-4.393,27.886C339.803,498.254,298.469,512,256,512z M240.974,350.146
	c14.286-0.952,27.623-7.9,36.592-19.061c0.232-0.288,0.456-0.583,0.671-0.884l98.789-137.99c6.417-8.964,4.352-21.433-4.611-27.85
	c-8.963-6.417-21.433-4.354-27.85,4.611l-98.389,137.432c-2.687,3.116-6.053,3.789-7.858,3.908
	c-1.855,0.124-5.411-0.112-8.548-3.051l-63.588-62.054c-7.89-7.7-20.528-7.546-28.227,0.345c-7.699,7.89-7.545,20.527,0.345,28.227
	l63.697,62.16c0.059,0.058,0.119,0.115,0.179,0.172c9.55,9.091,22.296,14.147,35.411,14.147
	C238.713,350.259,239.844,350.222,240.974,350.146z"/>
<g>
</g>
<g>
</g>
<g>
</g>
<g>
</g>
<g>
</g>
<g>
</g>
<g>
</g>
<g>
</g>
<g>
</g>
<g>
</g>
<g>
</g>
<g>
</g>
<g>
</g>
<g>
</g>
<g>
</g>
</svg>
