<?xml version="1.0" encoding="iso-8859-1"?>
<!-- Generator: Adobe Illustrator 19.0.0, SVG Export Plug-In . SVG Version: 6.00 Build 0)  -->
<svg version="1.1" id="Capa_1" xmlns="http://www.w3.org/2000/svg" xmlns:xlink="http://www.w3.org/1999/xlink" x="0px" y="0px"
	 viewBox="0 0 512 512" style="enable-background:new 0 0 512 512;" xml:space="preserve">
<linearGradient id="SVGID_1_" gradientUnits="userSpaceOnUse" x1="0" y1="258" x2="512" y2="258" gradientTransform="matrix(1 0 0 -1 0 514)">
	<stop  offset="0" style="stop-color:#00F2FE"/>
	<stop  offset="0.021" style="stop-color:#03EFFE"/>
	<stop  offset="0.293" style="stop-color:#24D2FE"/>
	<stop  offset="0.554" style="stop-color:#3CBDFE"/>
	<stop  offset="0.796" style="stop-color:#4AB0FE"/>
	<stop  offset="1" style="stop-color:#4FACFE"/>
</linearGradient>
<path style="fill:url(#SVGID_1_);" d="M60,210h232c33.084,0,60-26.916,60-60V60c0-33.084-26.916-60-60-60H60C26.916,0,0,26.916,0,60
	v90C0,183.084,26.916,210,60,210z M40,60c0-11.028,8.972-20,20-20h232c11.028,0,20,8.972,20,20v90c0,11.028-8.972,20-20,20H60
	c-11.028,0-20-8.972-20-20V60z M392,20c0-11.046,8.954-20,20-20h80c11.046,0,20,8.954,20,20s-8.954,20-20,20h-80
	C400.954,40,392,31.046,392,20z M512,105c0,11.046-8.954,20-20,20h-80c-11.046,0-20-8.954-20-20s8.954-20,20-20h80
	C503.046,85,512,93.954,512,105z M512,190c0,11.046-8.954,20-20,20h-80c-11.046,0-20-8.954-20-20s8.954-20,20-20h80
	C503.046,170,512,178.954,512,190z M492,251H20c-11.046,0-20,8.954-20,20v161c0,44.112,35.888,80,80,80h352
	c44.112,0,80-35.888,80-80c0-11.046-8.954-20-20-20s-20,8.954-20,20c0,22.056-17.944,40-40,40H80c-22.056,0-40-17.944-40-40V291
	h123.378c-5.465,13.49-8.378,28.138-8.378,43c0,59.551,45.309,108,101,108s101-48.449,101-108c0-14.887-2.909-29.521-8.373-43H472
	v41c0,11.046,8.954,20,20,20s20-8.954,20-20v-61C512,259.954,503.046,251,492,251z M317,334c0,37.495-27.364,68-61,68
	s-61-30.505-61-68c0-15.675,4.895-30.892,13.785-43h94.431C312.112,303.117,317,318.296,317,334z M415,323c11.046,0,20,8.954,20,20
	s-8.954,20-20,20s-20-8.954-20-20S403.954,323,415,323z M97,323c11.046,0,20,8.954,20,20s-8.954,20-20,20s-20-8.954-20-20
	S85.954,323,97,323z"/>
<g>
</g>
<g>
</g>
<g>
</g>
<g>
</g>
<g>
</g>
<g>
</g>
<g>
</g>
<g>
</g>
<g>
</g>
<g>
</g>
<g>
</g>
<g>
</g>
<g>
</g>
<g>
</g>
<g>
</g>
</svg>
