<?xml version="1.0" encoding="iso-8859-1"?>
<!-- Generator: Adobe Illustrator 19.0.0, SVG Export Plug-In . SVG Version: 6.00 Build 0)  -->
<svg version="1.1" id="Capa_1" xmlns="http://www.w3.org/2000/svg" xmlns:xlink="http://www.w3.org/1999/xlink" x="0px" y="0px"
	 viewBox="0 0 512 512" style="enable-background:new 0 0 512 512;" xml:space="preserve">
<linearGradient id="SVGID_1_" gradientUnits="userSpaceOnUse" x1="0" y1="258" x2="512" y2="258" gradientTransform="matrix(1 0 0 -1 0 514)">
	<stop  offset="0" style="stop-color:#00F2FE"/>
	<stop  offset="0.021" style="stop-color:#03EFFE"/>
	<stop  offset="0.293" style="stop-color:#24D2FE"/>
	<stop  offset="0.554" style="stop-color:#3CBDFE"/>
	<stop  offset="0.796" style="stop-color:#4AB0FE"/>
	<stop  offset="1" style="stop-color:#4FACFE"/>
</linearGradient>
<path style="fill:url(#SVGID_1_);" d="M512,80v151c0,11.046-8.954,20-20,20s-20-8.954-20-20V80c0-22.056-17.944-40-40-40H80
	c-22.056,0-40,17.944-40,40v216c0,22.056,17.944,40,40,40h114c11.046,0,20,8.954,20,20s-8.954,20-20,20H80
	c-44.112,0-80-35.888-80-80V80C0,35.888,35.888,0,80,0h352C476.112,0,512,35.888,512,80z M241.485,253.767
	c-27.37-7.806-46.485-34.9-46.485-65.889c0-37.495,27.364-68,61-68s61,30.505,61,68c0,5.092-0.502,9.872-1.579,15.041
	c-2.254,10.813,4.685,21.406,15.498,23.66c10.819,2.258,21.406-4.685,23.66-15.498c1.629-7.815,2.421-15.405,2.421-23.203
	c0-59.551-45.309-108-101-108s-101,48.449-101,108c0,48.763,31.053,91.675,75.515,104.355c1.834,0.522,3.679,0.772,5.495,0.772
	c8.707,0,16.717-5.731,19.224-14.521C258.263,267.863,252.107,256.796,241.485,253.767z M435,187c0-11.046-8.954-20-20-20
	s-20,8.954-20,20s8.954,20,20,20S435,198.046,435,187z M77,187c0,11.046,8.954,20,20,20s20-8.954,20-20s-8.954-20-20-20
	S77,175.954,77,187z M382,252c-71.683,0-130,58.318-130,130s58.317,130,130,130c16.738,0,33.043-3.142,48.459-9.338
	c10.248-4.119,15.218-15.767,11.099-26.016s-15.763-15.217-26.017-11.099C404.89,469.829,393.604,472,382,472
	c-49.626,0-90-40.374-90-90s40.374-90,90-90s90,40.374,90,90c0,9.516-1.473,18.877-4.378,27.823
	c-3.411,10.506,2.34,21.788,12.846,25.199c10.51,3.411,21.788-2.341,25.199-12.846C509.869,409.234,512,395.717,512,382
	C512,310.318,453.683,252,382,252z M385,436c11.046,0,20-8.954,20-20v-70c0-7.586-4.292-14.52-11.083-17.902
	c-6.793-3.383-14.911-2.631-20.966,1.939l-25,18.87c-8.816,6.654-10.568,19.196-3.914,28.012c5.015,6.645,13.373,9.278,20.963,7.321
	V416C365,427.046,373.954,436,385,436z"/>
<g>
</g>
<g>
</g>
<g>
</g>
<g>
</g>
<g>
</g>
<g>
</g>
<g>
</g>
<g>
</g>
<g>
</g>
<g>
</g>
<g>
</g>
<g>
</g>
<g>
</g>
<g>
</g>
<g>
</g>
</svg>
