<?xml version="1.0" encoding="iso-8859-1"?>
<!-- Generator: Adobe Illustrator 19.0.0, SVG Export Plug-In . SVG Version: 6.00 Build 0)  -->
<svg version="1.1" id="Capa_1" xmlns="http://www.w3.org/2000/svg" xmlns:xlink="http://www.w3.org/1999/xlink" x="0px" y="0px"
	 viewBox="0 0 512 512" style="enable-background:new 0 0 512 512;" xml:space="preserve">
<linearGradient id="SVGID_1_" gradientUnits="userSpaceOnUse" x1="0" y1="257.999" x2="512" y2="257.999" gradientTransform="matrix(1 0 0 -1 0 513.999)">
	<stop  offset="0" style="stop-color:#00F2FE"/>
	<stop  offset="0.021" style="stop-color:#03EFFE"/>
	<stop  offset="0.293" style="stop-color:#24D2FE"/>
	<stop  offset="0.554" style="stop-color:#3CBDFE"/>
	<stop  offset="0.796" style="stop-color:#4AB0FE"/>
	<stop  offset="1" style="stop-color:#4FACFE"/>
</linearGradient>
<path style="fill:url(#SVGID_1_);" d="M432,105.519h-86.074v-20c0-33.084-26.916-60-60-60h-59.852c-33.084,0-60,26.916-60,60v20H80
	c-44.112,0-80,35.888-80,80v220.963c0,44.112,35.888,80,80,80h352c44.112,0,80-35.888,80-80c0-11.046-8.954-20-20-20
	s-20,8.954-20,20c0,22.056-17.944,40-40,40H80c-22.056,0-40-17.944-40-40V275.519h432v30c0,11.046,8.954,20,20,20s20-8.954,20-20
	v-120C512,141.406,476.112,105.519,432,105.519z M356,145.518v90H156v-90H356z M206.074,85.519c0-11.028,8.972-20,20-20h59.852
	c11.028,0,20,8.972,20,20v20h-99.852V85.519z M40,185.518c0-22.056,17.944-40,40-40h36v90H40V185.518z M396,235.518v-90h36
	c22.056,0,40,17.944,40,40v50H396z M136,306.519c11.046,0,20,8.954,20,20v40c0,11.046-8.954,20-20,20s-20-8.954-20-20v-40
	C116,315.473,124.954,306.519,136,306.519z M376,306.519c11.046,0,20,8.954,20,20v40c0,11.046-8.954,20-20,20s-20-8.954-20-20v-40
	C356,315.473,364.954,306.519,376,306.519z"/>
<g>
</g>
<g>
</g>
<g>
</g>
<g>
</g>
<g>
</g>
<g>
</g>
<g>
</g>
<g>
</g>
<g>
</g>
<g>
</g>
<g>
</g>
<g>
</g>
<g>
</g>
<g>
</g>
<g>
</g>
</svg>
