<?xml version="1.0" encoding="iso-8859-1"?>
<!-- Generator: Adobe Illustrator 19.0.0, SVG Export Plug-In . SVG Version: 6.00 Build 0)  -->
<svg version="1.1" id="Capa_1" xmlns="http://www.w3.org/2000/svg" xmlns:xlink="http://www.w3.org/1999/xlink" x="0px" y="0px"
	 viewBox="0 0 512 512" style="enable-background:new 0 0 512 512;" xml:space="preserve">
<linearGradient id="SVGID_1_" gradientUnits="userSpaceOnUse" x1="2.531171e-004" y1="258" x2="511.9998" y2="258" gradientTransform="matrix(1 0 0 -1 0 514)">
	<stop  offset="0" style="stop-color:#00F2FE"/>
	<stop  offset="0.021" style="stop-color:#03EFFE"/>
	<stop  offset="0.293" style="stop-color:#24D2FE"/>
	<stop  offset="0.554" style="stop-color:#3CBDFE"/>
	<stop  offset="0.796" style="stop-color:#4AB0FE"/>
	<stop  offset="1" style="stop-color:#4FACFE"/>
</linearGradient>
<path style="fill:url(#SVGID_1_);" d="M512,210c0,36.471-9.5,72.402-27.473,103.91c-5.472,9.594-17.687,12.936-27.281,7.463
	s-12.937-17.688-7.463-27.282C464.318,268.61,472,239.532,472,210c0-93.738-76.262-170-170-170s-170,76.262-170,170
	s76.262,170,170,170c29.173,0,57.941-7.507,83.196-21.71c9.629-5.417,21.822-1.998,27.236,7.628
	c5.414,9.628,1.999,21.822-7.629,27.236C373.575,410.717,338.026,420,302,420c-50.477,0-96.848-17.906-133.105-47.694L34.094,506.19
	C30.193,510.065,25.096,512,20,512c-5.142,0-10.281-1.97-14.19-5.906c-7.784-7.837-7.74-20.5,0.097-28.284l134.619-133.703
	C110.24,307.704,92,260.944,92,210C92,94.206,186.206,0,302,0S512,94.206,512,210z M302.981,335c11.046,0,20-8.954,20-20v-11.583
	c27.511-3.843,48.02-26.472,48.02-54.668v-4.909c0-15.113-5.915-29.23-16.656-39.751C343.751,193.714,329.649,188,314.635,188
	h-18.327c-8.812,0-16.255-7.785-16.255-17v-7.294c0-8.954,6.988-15.706,16.255-15.706h17.33c5.094,0,10.362,3.41,10.362,9.116
	c0,11.046,8.954,20,20,20s20-8.954,20-20c0-23.969-17.7-43.97-41.02-48.255V96c0-11.046-8.954-20-20-20s-20,8.954-20,20v13.548
	c-9.899,2.337-18.966,7.272-26.319,14.467c-10.71,10.479-16.608,24.576-16.608,39.691V171c0,31.43,25.235,57,56.255,57h18.327
	c9.177,0,16.365,6.958,16.365,15.84v4.909c0,8.694-7.035,15.251-16.365,15.251H284.85c-4.914,0-9.89-3.091-9.89-9
	c0-11.046-8.954-20-20-20c-11.046,0-20,8.954-20,20c0,26.86,20.946,48.019,48.021,48.955V315
	C282.981,326.046,291.935,335,302.981,335z"/>
<g>
</g>
<g>
</g>
<g>
</g>
<g>
</g>
<g>
</g>
<g>
</g>
<g>
</g>
<g>
</g>
<g>
</g>
<g>
</g>
<g>
</g>
<g>
</g>
<g>
</g>
<g>
</g>
<g>
</g>
</svg>
