<?xml version="1.0" encoding="iso-8859-1"?>
<!-- Generator: Adobe Illustrator 19.0.0, SVG Export Plug-In . SVG Version: 6.00 Build 0)  -->
<svg version="1.1" id="Capa_1" xmlns="http://www.w3.org/2000/svg" xmlns:xlink="http://www.w3.org/1999/xlink" x="0px" y="0px"
	 viewBox="0 0 512.001 512.001" style="enable-background:new 0 0 512.001 512.001;" xml:space="preserve">
<linearGradient id="SVGID_1_" gradientUnits="userSpaceOnUse" x1="0.1453" y1="257.812" x2="512.1453" y2="257.812" gradientTransform="matrix(0.9995 0 0 -0.9995 -0.0232 513.6902)">
	<stop  offset="0" style="stop-color:#00F2FE"/>
	<stop  offset="0.021" style="stop-color:#03EFFE"/>
	<stop  offset="0.293" style="stop-color:#24D2FE"/>
	<stop  offset="0.554" style="stop-color:#3CBDFE"/>
	<stop  offset="0.796" style="stop-color:#4AB0FE"/>
	<stop  offset="1" style="stop-color:#4FACFE"/>
</linearGradient>
<path style="fill:url(#SVGID_1_);" d="M90.079,190.032V110.07c0-11.041-8.95-19.991-19.991-19.991s-19.991,8.95-19.991,19.991
	v79.962c-27.557,0-49.976,22.419-49.976,49.976v119.943c0,27.557,22.419,49.976,49.976,49.976v82.083
	c0,11.041,8.95,19.991,19.991,19.991s19.991-8.95,19.991-19.991v-82.083c27.557,0,49.976-22.419,49.976-49.976V240.008
	C140.056,212.45,117.636,190.032,90.079,190.032z M100.075,359.951c0,5.511-4.484,9.995-9.995,9.995H50.098
	c-5.511,0-9.995-4.484-9.995-9.995V240.008c0-5.511,4.484-9.995,9.995-9.995h39.981c5.511,0,9.995,4.484,9.995,9.995V359.951z
	 M276.991,90.079h-1V56.095c0-11.041-8.95-19.991-19.991-19.991c-11.041,0-19.991,8.95-19.991,19.991v33.984h-1
	c-27.557,0-49.976,22.419-49.976,49.976v72.965c0,27.557,22.419,49.976,49.976,49.976h1v105.95c0,11.041,8.95,19.991,19.991,19.991
	c11.041,0,19.991-8.95,19.991-19.991v-105.95h1c27.557,0,49.976-22.419,49.976-49.976v-72.965
	C326.967,112.499,304.547,90.079,276.991,90.079z M286.986,213.021c0,5.511-4.484,9.995-9.995,9.995h-41.98
	c-5.511,0-9.995-4.484-9.995-9.995v-72.965c0-5.511,4.484-9.995,9.995-9.995h41.98c5.511,0,9.995,4.484,9.995,9.995V213.021z
	 M471.898,230.013V130.06c0-5.511-4.484-9.995-9.995-9.995h-39.981c-5.511,0-9.995,4.484-9.995,9.995v199.905
	c0,5.511,4.484,9.995,9.995,9.995h39.981c5.511,0,9.995-4.484,9.995-9.995c0-11.041,8.95-19.991,19.991-19.991
	s19.991,8.95,19.991,19.991c0,27.557-22.419,49.976-49.976,49.976v71.966c0,11.041-8.95,19.991-19.991,19.991
	c-11.041,0-19.991-8.95-19.991-19.991v-71.966c-27.557,0-49.976-22.419-49.976-49.976V130.06c0-27.557,22.419-49.976,49.976-49.976
	V19.991C421.922,8.95,430.872,0,441.912,0c11.041,0,19.991,8.95,19.991,19.991v60.093c27.557,0,49.976,22.419,49.976,49.976v99.953
	c0,11.041-8.95,19.991-19.991,19.991S471.898,241.053,471.898,230.013z"/>
<g>
</g>
<g>
</g>
<g>
</g>
<g>
</g>
<g>
</g>
<g>
</g>
<g>
</g>
<g>
</g>
<g>
</g>
<g>
</g>
<g>
</g>
<g>
</g>
<g>
</g>
<g>
</g>
<g>
</g>
</svg>
