<?xml version="1.0" encoding="iso-8859-1"?>
<!-- Generator: Adobe Illustrator 19.0.0, SVG Export Plug-In . SVG Version: 6.00 Build 0)  -->
<svg version="1.1" id="Capa_1" xmlns="http://www.w3.org/2000/svg" xmlns:xlink="http://www.w3.org/1999/xlink" x="0px" y="0px"
	 viewBox="0 0 512 512" style="enable-background:new 0 0 512 512;" xml:space="preserve">
<linearGradient id="SVGID_1_" gradientUnits="userSpaceOnUse" x1="0" y1="258" x2="512" y2="258" gradientTransform="matrix(1 0 0 -1 0 514)">
	<stop  offset="0" style="stop-color:#00F2FE"/>
	<stop  offset="0.021" style="stop-color:#03EFFE"/>
	<stop  offset="0.293" style="stop-color:#24D2FE"/>
	<stop  offset="0.554" style="stop-color:#3CBDFE"/>
	<stop  offset="0.796" style="stop-color:#4AB0FE"/>
	<stop  offset="1" style="stop-color:#4FACFE"/>
</linearGradient>
<path style="fill:url(#SVGID_1_);" d="M136,392c11.046,0,20,8.954,20,20l0,0c0,11.046-8.954,20-20,20s-20-8.954-20-20l0,0
	C116,400.954,124.954,392,136,392z M196,412L196,412c0,11.046,8.954,20,20,20s20-8.954,20-20l0,0c0-11.046-8.954-20-20-20
	S196,400.954,196,412z M276,412L276,412c0,11.046,8.954,20,20,20s20-8.954,20-20l0,0c0-11.046-8.954-20-20-20S276,400.954,276,412z
	 M356,412L356,412c0,11.046,8.954,20,20,20s20-8.954,20-20l0,0c0-11.046-8.954-20-20-20S356,400.954,356,412z M451.985,314.521
	c-10.701-2.752-21.601,3.686-24.354,14.383s3.687,21.601,14.383,24.354C459.669,357.803,472,373.734,472,392v40
	c0,22.056-17.944,40-40,40H80c-22.056,0-40-17.944-40-40v-40c0-17.619,11.784-33.399,28.657-38.374
	c10.595-3.125,16.651-14.246,13.526-24.84c-3.124-10.595-14.25-16.65-24.84-13.526c-16.229,4.785-30.823,14.874-41.095,28.407
	C5.619,357.669,0,374.383,0,392v40c0,44.112,35.888,80,80,80h352c44.112,0,80-35.888,80-80v-40
	C512,355.477,487.321,323.616,451.985,314.521z M114,291.977v-108c0-33.084,26.916-60,60-60h3.976V76.394
	c0-42.124,34.991-76.394,78-76.394s78,34.27,78,76.394v47.583H338c33.084,0,60,26.916,60,60v108c0,33.084-26.916,60-60,60H174
	C140.916,351.977,114,325.061,114,291.977z M217.976,123.977h76V76.394c0-20.068-17.047-36.394-38-36.394s-38,16.326-38,36.394
	L217.976,123.977L217.976,123.977z M154,291.977c0,11.028,8.972,20,20,20h164c11.028,0,20-8.972,20-20v-108c0-11.028-8.972-20-20-20
	H174c-11.028,0-20,8.972-20,20V291.977z M256,260c11.046,0,20-8.954,20-20l0,0c0-11.046-8.954-20-20-20s-20,8.954-20,20l0,0
	C236,251.046,244.954,260,256,260z"/>
<g>
</g>
<g>
</g>
<g>
</g>
<g>
</g>
<g>
</g>
<g>
</g>
<g>
</g>
<g>
</g>
<g>
</g>
<g>
</g>
<g>
</g>
<g>
</g>
<g>
</g>
<g>
</g>
<g>
</g>
</svg>
