<?xml version="1.0" encoding="iso-8859-1"?>
<!-- Generator: Adobe Illustrator 19.0.0, SVG Export Plug-In . SVG Version: 6.00 Build 0)  -->
<svg version="1.1" id="Capa_1" xmlns="http://www.w3.org/2000/svg" xmlns:xlink="http://www.w3.org/1999/xlink" x="0px" y="0px"
	 viewBox="0 0 512 512" style="enable-background:new 0 0 512 512;" xml:space="preserve">
<linearGradient id="SVGID_1_" gradientUnits="userSpaceOnUse" x1="0" y1="258" x2="512" y2="258" gradientTransform="matrix(1 0 0 -1 0 514)">
	<stop  offset="0" style="stop-color:#00F2FE"/>
	<stop  offset="0.021" style="stop-color:#03EFFE"/>
	<stop  offset="0.293" style="stop-color:#24D2FE"/>
	<stop  offset="0.554" style="stop-color:#3CBDFE"/>
	<stop  offset="0.796" style="stop-color:#4AB0FE"/>
	<stop  offset="1" style="stop-color:#4FACFE"/>
</linearGradient>
<path style="fill:url(#SVGID_1_);" d="M191.142,162.857c7.811,7.811,7.811,20.475,0,28.285C187.237,195.048,182.119,197,177,197
	s-10.237-1.952-14.142-5.857L40,68.285V147c0,11.046-8.954,20-20,20s-20-8.954-20-20V60C0,26.916,26.916,0,60,0h87
	c11.046,0,20,8.954,20,20s-8.954,20-20,20H68.285L191.142,162.857z M162.858,320.857L40,443.715V365c0-11.046-8.954-20-20-20
	s-20,8.954-20,20v87c0,33.084,26.916,60,60,60h87c11.046,0,20-8.954,20-20s-8.954-20-20-20H68.285l122.857-122.857
	c7.811-7.811,7.811-20.475,0-28.285S170.668,313.047,162.858,320.857z M492,345c-11.046,0-20,8.954-20,20v78.715L349.142,320.857
	c-7.811-7.811-20.474-7.811-28.284,0s-7.811,20.475,0,28.285L443.715,472H365c-11.046,0-20,8.954-20,20s8.954,20,20,20h87
	c33.084,0,60-26.916,60-60v-87C512,353.954,503.046,345,492,345z M452,0h-87c-11.046,0-20,8.954-20,20s8.954,20,20,20h78.715
	L320.858,162.857c-7.811,7.811-7.811,20.475,0,28.285C324.763,195.048,329.881,197,335,197s10.237-1.952,14.142-5.857L472,68.285
	V147c0,11.046,8.954,20,20,20s20-8.954,20-20V60C512,26.916,485.084,0,452,0z"/>
<g>
</g>
<g>
</g>
<g>
</g>
<g>
</g>
<g>
</g>
<g>
</g>
<g>
</g>
<g>
</g>
<g>
</g>
<g>
</g>
<g>
</g>
<g>
</g>
<g>
</g>
<g>
</g>
<g>
</g>
</svg>
