<?xml version="1.0" encoding="iso-8859-1"?>
<!-- Generator: Adobe Illustrator 19.0.0, SVG Export Plug-In . SVG Version: 6.00 Build 0)  -->
<svg version="1.1" id="Capa_1" xmlns="http://www.w3.org/2000/svg" xmlns:xlink="http://www.w3.org/1999/xlink" x="0px" y="0px"
	 viewBox="0 0 512.001 512.001" style="enable-background:new 0 0 512.001 512.001;" xml:space="preserve">
<linearGradient id="SVGID_1_" gradientUnits="userSpaceOnUse" x1="0" y1="257.9995" x2="512.001" y2="257.9995" gradientTransform="matrix(1 0 0 -1 0 514.0001)">
	<stop  offset="0" style="stop-color:#00F2FE"/>
	<stop  offset="0.021" style="stop-color:#03EFFE"/>
	<stop  offset="0.293" style="stop-color:#24D2FE"/>
	<stop  offset="0.554" style="stop-color:#3CBDFE"/>
	<stop  offset="0.796" style="stop-color:#4AB0FE"/>
	<stop  offset="1" style="stop-color:#4FACFE"/>
</linearGradient>
<path style="fill:url(#SVGID_1_);" d="M470.855,248.773c-20.853-8.511-48.147-13.199-76.854-13.199s-56.001,4.688-76.854,13.199
	c-35.8,14.612-41.146,35.595-41.146,46.801v156c0,11.207,5.346,32.189,41.146,46.801c20.853,8.511,48.147,13.199,76.854,13.199
	s56.001-4.688,76.854-13.199c35.8-14.612,41.146-35.595,41.146-46.801v-156C512.001,284.367,506.655,263.385,470.855,248.773z
	 M472.001,450.94c-3.304,6.149-30.193,20.634-78,20.634s-74.696-14.484-78-20.634v-32.052c0.385,0.162,0.753,0.326,1.146,0.487
	c20.853,8.511,48.147,13.199,76.854,13.199c6.924,0,13.855-0.274,20.6-0.815c11.01-0.883,19.22-10.525,18.336-21.536
	s-10.512-19.216-21.536-18.336c-5.685,0.456-11.539,0.688-17.4,0.688c-47.82,0-74.708-14.49-78-20.637V341.89
	c0.385,0.162,0.753,0.326,1.146,0.487c20.853,8.511,48.147,13.199,76.854,13.199c6.924,0,13.855-0.274,20.6-0.815
	c11.01-0.883,19.22-10.525,18.336-21.536s-10.512-19.217-21.536-18.336c-5.685,0.456-11.539,0.688-17.4,0.688
	c-46.242,0-72.907-13.549-77.594-20.001c4.694-6.454,31.36-19.999,77.594-19.999c47.807,0,74.696,14.484,78,20.634V450.94z
	 M240.983,441.08c-0.453,10.749-9.31,19.158-19.968,19.158c-0.285,0-0.57-0.006-0.857-0.018
	c-59.353-2.502-114.756-27.517-156.005-70.435C22.784,346.741,0,290.146,0,230.427c0-61.436,23.924-119.193,67.365-162.635
	C110.807,24.351,168.564,0.427,230,0.427c52.634,0,104.085,18.238,144.875,51.354c40.193,32.632,68.479,78.287,79.649,128.553
	c2.396,10.783-4.403,21.466-15.186,23.862c-10.786,2.395-21.466-4.403-23.862-15.186C396.346,102.916,318.342,40.427,230,40.427
	c-104.766,0-190,85.234-190,190c0,102.147,79.875,185.53,181.843,189.828C232.879,420.72,241.449,430.044,240.983,441.08z
	 M250,100.574v129.853c0,5.304-2.107,10.392-5.858,14.142l-70.471,70.471c-3.905,3.905-9.023,5.858-14.142,5.858
	s-10.237-1.953-14.142-5.858c-7.811-7.811-7.811-20.474,0-28.284L210,222.143V100.574c0-11.046,8.954-20,20-20
	S250,89.528,250,100.574z"/>
<g>
</g>
<g>
</g>
<g>
</g>
<g>
</g>
<g>
</g>
<g>
</g>
<g>
</g>
<g>
</g>
<g>
</g>
<g>
</g>
<g>
</g>
<g>
</g>
<g>
</g>
<g>
</g>
<g>
</g>
</svg>
