<?xml version="1.0" encoding="iso-8859-1"?>
<!-- Generator: Adobe Illustrator 19.0.0, SVG Export Plug-In . SVG Version: 6.00 Build 0)  -->
<svg version="1.1" id="Capa_1" xmlns="http://www.w3.org/2000/svg" xmlns:xlink="http://www.w3.org/1999/xlink" x="0px" y="0px"
	 viewBox="0 0 512 512" style="enable-background:new 0 0 512 512;" xml:space="preserve">
<linearGradient id="SVGID_1_" gradientUnits="userSpaceOnUse" x1="0.1914" y1="256.457" x2="514.1914" y2="256.457" gradientTransform="matrix(0.9961 0 0 -0.9961 -0.1907 511.4591)">
	<stop  offset="0" style="stop-color:#00F2FE"/>
	<stop  offset="0.021" style="stop-color:#03EFFE"/>
	<stop  offset="0.293" style="stop-color:#24D2FE"/>
	<stop  offset="0.554" style="stop-color:#3CBDFE"/>
	<stop  offset="0.796" style="stop-color:#4AB0FE"/>
	<stop  offset="1" style="stop-color:#4FACFE"/>
</linearGradient>
<path style="fill:url(#SVGID_1_);" d="M194.096,248.229c-20.772-8.478-47.959-13.148-76.555-13.148s-55.783,4.67-76.555,13.148
	C5.325,262.785,0,283.685,0,294.848v155.393c0,11.163,5.325,32.064,40.986,46.619c20.772,8.479,47.959,13.148,76.555,13.148
	s55.783-4.67,76.555-13.148c35.661-14.555,40.986-35.456,40.986-46.619V294.848C235.082,283.685,229.757,262.785,194.096,248.229z
	 M195.237,449.61c-3.291,6.126-30.076,20.554-77.696,20.554s-74.405-14.428-77.697-20.554v-31.927
	c0.384,0.161,0.75,0.325,1.142,0.485c20.772,8.479,47.959,13.148,76.555,13.148c6.897,0,13.801-0.273,20.52-0.812
	c10.967-0.88,19.145-10.484,18.265-21.452c-0.881-10.968-10.479-19.141-21.452-18.265c-5.662,0.454-11.494,0.684-17.332,0.684
	c-47.634,0-74.417-14.434-77.697-20.557v-29.931c0.384,0.161,0.75,0.325,1.142,0.485c20.772,8.478,47.959,13.147,76.555,13.147
	c6.897,0,13.801-0.273,20.52-0.812c10.967-0.88,19.145-10.484,18.265-21.452c-0.881-10.968-10.479-19.142-21.452-18.265
	c-5.662,0.454-11.494,0.684-17.332,0.684c-46.062,0-72.623-13.496-77.292-19.923c4.676-6.429,31.239-19.921,77.292-19.921
	c47.621,0,74.405,14.428,77.696,20.554V449.61z M42.582,195.268c-7.719-7.84-7.62-20.454,0.221-28.173l31.452-30.963
	c11.3-11.348,26.314-17.595,42.29-17.595s30.99,6.248,42.291,17.594l31.452,30.963c7.841,7.719,7.94,20.333,0.221,28.173
	c-3.9,3.961-9.048,5.946-14.198,5.946c-5.046,0-10.096-1.906-13.975-5.726l-31.531-31.041c-0.057-0.056-0.113-0.112-0.168-0.167
	c-3.773-3.803-8.779-5.898-14.092-5.898s-10.319,2.095-14.091,5.899c-0.056,0.057-0.112,0.113-0.168,0.167l-31.531,31.041
	C62.915,203.208,50.302,203.11,42.582,195.268z M469.775,13.295C448.77,4.722,421.314,0,392.467,0
	c-28.847,0-56.303,4.722-77.308,13.295c-29.299,11.959-38.714,28.244-41.328,40.267c-0.58,1.968-0.897,4.049-0.897,6.205
	c0,0.324,0.006,0.657,0.015,0.996c-0.009,0.339-0.015,0.672-0.015,0.996v388.482c0,11.662,5.486,33.468,42.225,48.464
	C336.164,507.278,363.62,512,392.467,512c28.847,0,56.303-4.722,77.308-13.295C506.514,483.71,512,461.904,512,450.241V61.759
	C512,50.096,506.514,28.29,469.775,13.295z M468.171,448.952c-1.566,1.992-7.457,6.89-20.96,11.387
	c-15.17,5.051-34.611,7.832-54.744,7.832s-39.574-2.781-54.744-7.833c-13.504-4.496-19.394-9.394-20.96-11.387v-28.314
	c20.792,8.171,47.577,12.671,75.704,12.671c6.951,0,13.908-0.275,20.678-0.819c12.065-0.968,21.06-11.533,20.092-23.597
	s-11.531-21.059-23.597-20.092c-5.609,0.45-11.388,0.678-17.173,0.678c-20.133,0-39.574-2.781-54.744-7.832
	c-13.519-4.502-19.403-9.402-20.96-11.391v-26.319c20.792,8.171,47.577,12.671,75.704,12.671c6.951,0,13.908-0.275,20.678-0.819
	c12.065-0.968,21.06-11.533,20.092-23.597c-0.968-12.064-11.531-21.06-23.597-20.092c-5.609,0.45-11.388,0.678-17.173,0.678
	c-20.133,0-39.574-2.781-54.744-7.832c-13.519-4.502-19.403-9.402-20.96-11.391v-28.311c20.792,8.171,47.577,12.671,75.704,12.671
	c6.951,0,13.908-0.275,20.678-0.819c12.065-0.968,21.06-11.533,20.092-23.597c-0.968-12.064-11.531-21.059-23.597-20.092
	c-5.609,0.45-11.388,0.678-17.173,0.678c-20.133,0-39.574-2.781-54.744-7.832c-13.519-4.502-19.403-9.402-20.96-11.391v-26.319
	c20.792,8.171,47.577,12.671,75.704,12.671c6.951,0,13.908-0.275,20.678-0.819c12.065-0.968,21.06-11.533,20.092-23.597
	c-0.968-12.064-11.531-21.059-23.597-20.092c-5.609,0.45-11.388,0.678-17.173,0.678c-20.133,0-39.574-2.781-54.744-7.832
	c-13.519-4.502-19.403-9.402-20.96-11.391v-29.308c20.792,8.171,47.577,12.671,75.704,12.671c6.951,0,13.908-0.275,20.678-0.819
	c12.065-0.968,21.06-11.533,20.092-23.597s-11.531-21.058-23.597-20.092c-5.609,0.45-11.388,0.678-17.173,0.678
	c-20.133,0-39.574-2.781-54.744-7.832c-9.729-3.239-15.49-6.682-18.546-9.101c3.055-2.42,8.818-5.861,18.546-9.1
	c15.17-5.052,34.611-7.833,54.744-7.833s39.574,2.781,54.744,7.833c13.504,4.496,19.394,9.394,20.96,11.387V448.952z"/>
<g>
</g>
<g>
</g>
<g>
</g>
<g>
</g>
<g>
</g>
<g>
</g>
<g>
</g>
<g>
</g>
<g>
</g>
<g>
</g>
<g>
</g>
<g>
</g>
<g>
</g>
<g>
</g>
<g>
</g>
</svg>
