<?xml version="1.0" encoding="iso-8859-1"?>
<!-- Generator: Adobe Illustrator 19.0.0, SVG Export Plug-In . SVG Version: 6.00 Build 0)  -->
<svg version="1.1" id="Capa_1" xmlns="http://www.w3.org/2000/svg" xmlns:xlink="http://www.w3.org/1999/xlink" x="0px" y="0px"
	 viewBox="0 0 512 512" style="enable-background:new 0 0 512 512;" xml:space="preserve">
<linearGradient id="SVGID_1_" gradientUnits="userSpaceOnUse" x1="0" y1="258" x2="512" y2="258" gradientTransform="matrix(1 0 0 -1 0 514)">
	<stop  offset="0" style="stop-color:#00F2FE"/>
	<stop  offset="0.021" style="stop-color:#03EFFE"/>
	<stop  offset="0.293" style="stop-color:#24D2FE"/>
	<stop  offset="0.554" style="stop-color:#3CBDFE"/>
	<stop  offset="0.796" style="stop-color:#4AB0FE"/>
	<stop  offset="1" style="stop-color:#4FACFE"/>
</linearGradient>
<path style="fill:url(#SVGID_1_);" d="M147,425v-2h-12c-11.046,0-20-8.954-20-20s8.954-20,20-20h40.598
	c3.65,0,6.402-2.623,6.402-6.1v-8.016c0-3.42-2.752-6-6.402-6h-13.306c-25.542,0-46.321-21.032-46.321-46.884v-0.844
	c0-20.112,12.981-37.251,31.03-43.56V266c0-11.046,8.954-20,20-20s20,8.954,20,20v3c11.046,0,20,8.954,20,20s-8.954,20-20,20
	h-24.708c-3.604,0-6.321,2.646-6.321,6.156V316c0,3.667,2.954,6.884,6.321,6.884h13.306c25.586,0,46.402,20.636,46.402,46v8.016
	c0,21.512-14.909,39.625-35,44.688V425c0,11.046-8.954,20-20,20S147,436.046,147,425z M345,0c-92.084,0-167,74.916-167,167
	c0,3.805,0.143,7.606,0.4,11.397c-3.768-0.255-7.568-0.397-11.4-0.397C74.916,178,0,252.916,0,345s74.916,167,167,167
	c27.251,0,54.302-6.716,78.229-19.423c9.755-5.181,13.464-17.289,8.284-27.044c-5.181-9.754-17.289-13.463-27.044-8.283
	C208.297,466.9,187.734,472,167,472c-70.028,0-127-56.972-127-127s56.972-127,127-127s127,56.972,127,127
	c0,17.911-3.648,35.216-10.842,51.435c-4.479,10.097,0.076,21.913,10.173,26.392c10.097,4.478,21.913-0.076,26.392-10.173
	C329.196,391.296,334,368.533,334,345c0-36.143-11.546-69.638-31.136-97H383c11.046,0,20-8.954,20-20s-8.954-20-20-20h-37.482
	c1.855-6.192,3.137-13.479,3.418-22H357c11.046,0,20-8.954,20-20s-8.954-20-20-20h-12.81c-0.695-5.008-1.19-10.265-1.19-16
	c0-3.51,2.718-6.156,6.322-6.156h24.708c11.046,0,20-8.954,20-20s-8.954-20-20-20h-24.708C323.78,83.844,303,104.55,303,130
	c0,5.84,0.377,11.242,0.926,16.26C294.344,147.743,287,156.003,287,166c0,11.046,8.954,20,20,20h1.907
	c-0.814,15.469-6.896,20.415-9.303,21.004c-5.63,0.109-10.677,2.558-14.246,6.399c-2.503,2.34-4.418,5.301-5.461,8.655
	c-17.211-15.818-37.74-28.076-60.41-35.6C218.504,180.046,218,173.53,218,167c0-70.028,56.972-127,127-127s127,56.972,127,127
	c0,55.41-35.411,104.013-88.116,120.942c-10.517,3.378-16.304,14.642-12.926,25.158c2.725,8.484,10.581,13.889,19.038,13.889
	c2.026,0,4.088-0.311,6.121-0.963c33.409-10.731,62.16-31.374,83.144-59.697C500.679,237.421,512,203.074,512,167
	C512,74.916,437.084,0,345,0z M99.82,150.105c3.909,3.93,9.043,5.896,14.18,5.896c5.1,0,10.203-1.939,14.104-5.82
	c7.831-7.79,7.865-20.453,0.075-28.284l-30.436-30.6c-0.056-0.057-0.113-0.113-0.17-0.168C93.979,87.601,92,82.939,92,78
	s1.979-9.601,5.573-13.128c0.057-0.056,0.114-0.112,0.17-0.168l30.437-30.599c7.79-7.831,7.756-20.494-0.075-28.284
	S107.61-1.936,99.821,5.896L69.459,36.418C58.199,47.518,52,62.28,52,78s6.199,30.482,17.459,41.582L99.82,150.105z M411.18,361.896
	c-7.79-7.831-20.453-7.864-28.284-0.075c-7.831,7.79-7.865,20.453-0.075,28.284l30.437,30.599c0.056,0.057,0.113,0.113,0.17,0.168
	C417.021,424.4,419,429.062,419,434s-1.979,9.601-5.573,13.128c-0.057,0.056-0.114,0.112-0.17,0.168l-30.437,30.599
	c-7.79,7.831-7.756,20.494,0.075,28.284c3.902,3.881,9.003,5.82,14.104,5.82c5.136,0,10.272-1.966,14.18-5.896l30.361-30.522
	C452.801,464.482,459,449.72,459,434s-6.199-30.482-17.459-41.582L411.18,361.896z"/>
<g>
</g>
<g>
</g>
<g>
</g>
<g>
</g>
<g>
</g>
<g>
</g>
<g>
</g>
<g>
</g>
<g>
</g>
<g>
</g>
<g>
</g>
<g>
</g>
<g>
</g>
<g>
</g>
<g>
</g>
</svg>
