<?xml version="1.0" encoding="iso-8859-1"?>
<!-- Generator: Adobe Illustrator 19.0.0, SVG Export Plug-In . SVG Version: 6.00 Build 0)  -->
<svg version="1.1" id="Capa_1" xmlns="http://www.w3.org/2000/svg" xmlns:xlink="http://www.w3.org/1999/xlink" x="0px" y="0px"
	 viewBox="0 0 512.001 512.001" style="enable-background:new 0 0 512.001 512.001;" xml:space="preserve">
<linearGradient id="SVGID_1_" gradientUnits="userSpaceOnUse" x1="-0.0957" y1="258.7722" x2="510.9053" y2="258.7722" gradientTransform="matrix(1.002 0 0 -1.002 0.0959 515.2791)">
	<stop  offset="0" style="stop-color:#00F2FE"/>
	<stop  offset="0.021" style="stop-color:#03EFFE"/>
	<stop  offset="0.293" style="stop-color:#24D2FE"/>
	<stop  offset="0.554" style="stop-color:#3CBDFE"/>
	<stop  offset="0.796" style="stop-color:#4AB0FE"/>
	<stop  offset="1" style="stop-color:#4FACFE"/>
</linearGradient>
<path style="fill:url(#SVGID_1_);" d="M506.132,477.792c7.825,7.826,7.825,20.514,0,28.339c-3.914,3.913-9.043,5.869-14.171,5.869
	s-10.257-1.957-14.171-5.869L354.693,383.034v77.867c0,11.068-8.972,20.039-20.039,20.039s-20.039-8.972-20.039-20.039v-86.168
	c0-33.149,26.969-60.117,60.117-60.117h87.17c11.068,0,20.039,8.972,20.039,20.039c0,11.068-8.972,20.039-20.039,20.039h-78.869
	L506.132,477.792z M137.269,314.615h-87.17c-11.068,0-20.039,8.972-20.039,20.039c0,11.068,8.972,20.039,20.039,20.039h78.869
	L5.869,477.792c-7.825,7.826-7.825,20.514,0,28.339c3.914,3.913,9.043,5.869,14.171,5.869s10.257-1.957,14.171-5.869
	l123.097-123.097v77.867c0,11.068,8.972,20.039,20.039,20.039s20.039-8.972,20.039-20.039v-86.168
	C197.386,341.584,170.417,314.615,137.269,314.615z M374.732,197.386h87.17c11.068,0,20.039-8.972,20.039-20.039
	c0-11.068-8.972-20.039-20.039-20.039h-78.869L506.132,34.209c7.825-7.826,7.825-20.514,0-28.339c-7.826-7.826-20.515-7.826-28.34,0
	L354.693,128.968V51.1c0-11.068-8.972-20.039-20.039-20.039s-20.039,8.972-20.039,20.039v86.168
	C314.615,170.417,341.584,197.386,374.732,197.386z M177.347,30.059c-11.068,0-20.039,8.972-20.039,20.039v78.869L34.21,5.87
	c-7.826-7.826-20.515-7.826-28.34,0s-7.825,20.514,0,28.339l123.097,123.098H50.098c-11.068,0-20.039,8.972-20.039,20.039
	c0,11.068,8.972,20.039,20.039,20.039h87.17c33.149,0,60.117-26.969,60.117-60.117v-87.17
	C197.386,39.031,188.415,30.059,177.347,30.059z"/>
<g>
</g>
<g>
</g>
<g>
</g>
<g>
</g>
<g>
</g>
<g>
</g>
<g>
</g>
<g>
</g>
<g>
</g>
<g>
</g>
<g>
</g>
<g>
</g>
<g>
</g>
<g>
</g>
<g>
</g>
</svg>
