<?xml version="1.0" encoding="iso-8859-1"?>
<!-- Generator: Adobe Illustrator 19.0.0, SVG Export Plug-In . SVG Version: 6.00 Build 0)  -->
<svg version="1.1" id="Capa_1" xmlns="http://www.w3.org/2000/svg" xmlns:xlink="http://www.w3.org/1999/xlink" x="0px" y="0px"
	 viewBox="0 0 512 512" style="enable-background:new 0 0 512 512;" xml:space="preserve">
<linearGradient id="SVGID_1_" gradientUnits="userSpaceOnUse" x1="0" y1="258" x2="512" y2="258" gradientTransform="matrix(1 0 0 -1 0 514)">
	<stop  offset="0" style="stop-color:#00F2FE"/>
	<stop  offset="0.021" style="stop-color:#03EFFE"/>
	<stop  offset="0.293" style="stop-color:#24D2FE"/>
	<stop  offset="0.554" style="stop-color:#3CBDFE"/>
	<stop  offset="0.796" style="stop-color:#4AB0FE"/>
	<stop  offset="1" style="stop-color:#4FACFE"/>
</linearGradient>
<path style="fill:url(#SVGID_1_);" d="M256,472.328c-6.055,0-11.784-2.743-15.58-7.46c-20.955-26.035-54.249-50.868-89.498-77.158
	C80.181,334.947,0,275.144,0,184.946c0-42.477,13.946-79.052,40.33-105.771C65.485,53.701,100.171,39.672,138,39.672
	c66.136,0,100.331,34.03,117.371,62.577c0.212,0.354,0.422,0.709,0.629,1.063c0.207-0.354,0.417-0.709,0.629-1.063
	C273.669,73.702,307.864,39.672,374,39.672c37.829,0,72.515,14.029,97.67,39.502c26.384,26.72,40.33,63.295,40.33,105.772
	c0,34.804-11.754,67.387-35.932,99.61c-22.646,30.181-53.433,55.882-77.723,74.901c-8.698,6.81-21.27,5.279-28.077-3.417
	c-6.81-8.697-5.279-21.268,3.417-28.077C424.748,287.982,472,242.984,472,184.946c0-61.984-40.299-105.274-98-105.274
	c-37.519,0-65.223,14.115-82.342,41.952c-13.59,22.097-15.704,45.098-15.725,45.328c-0.802,10.419-9.487,18.42-19.938,18.42
	c-10.449,0-19.135-8.089-19.937-18.508c-0.014-0.142-2.128-23.143-15.718-45.24C203.223,93.787,175.519,79.672,138,79.672
	c-57.701,0-98,43.29-98,105.274c0,70.131,68.547,121.258,134.837,170.701c29.949,22.337,58.564,43.68,81.172,66.727
	c10.239-10.418,22.583-21.381,37.675-33.503c8.612-6.917,21.201-5.541,28.117,3.069c6.917,8.612,5.543,21.201-3.068,28.118
	c-21.392,17.181-36.374,31.42-47.152,44.812C267.784,469.585,262.055,472.328,256,472.328z"/>
<g>
</g>
<g>
</g>
<g>
</g>
<g>
</g>
<g>
</g>
<g>
</g>
<g>
</g>
<g>
</g>
<g>
</g>
<g>
</g>
<g>
</g>
<g>
</g>
<g>
</g>
<g>
</g>
<g>
</g>
</svg>
