<?xml version="1.0" encoding="iso-8859-1"?>
<!-- Generator: Adobe Illustrator 19.0.0, SVG Export Plug-In . SVG Version: 6.00 Build 0)  -->
<svg version="1.1" id="Capa_1" xmlns="http://www.w3.org/2000/svg" xmlns:xlink="http://www.w3.org/1999/xlink" x="0px" y="0px"
	 viewBox="0 0 512 512" style="enable-background:new 0 0 512 512;" xml:space="preserve">
<linearGradient id="SVGID_1_" gradientUnits="userSpaceOnUse" x1="0" y1="258" x2="512" y2="258" gradientTransform="matrix(1 0 0 -1 0 514)">
	<stop  offset="0" style="stop-color:#00F2FE"/>
	<stop  offset="0.021" style="stop-color:#03EFFE"/>
	<stop  offset="0.293" style="stop-color:#24D2FE"/>
	<stop  offset="0.554" style="stop-color:#3CBDFE"/>
	<stop  offset="0.796" style="stop-color:#4AB0FE"/>
	<stop  offset="1" style="stop-color:#4FACFE"/>
</linearGradient>
<path style="fill:url(#SVGID_1_);" d="M432,0H201c-21.923,0-43.098,9.131-58.155,25.064L30.406,137.269
	C11.895,151.934,0,174.604,0,200v232c0,44.112,35.888,80,80,80h231c22.748,0,43.309-9.544,57.889-24.838
	c0.105-0.1,0.21-0.201,0.314-0.304l119.424-118.349l0.104-0.104C503.737,353.314,512,333.282,512,312V80C512,35.888,476.112,0,432,0
	z M171.321,53.157l0.472-0.487C179.442,44.5,189.815,40,201,40h230.893l-87.432,87.338C334.275,122.629,322.939,120,311,120H104.338
	L171.321,53.157z M472,312c0,10.618-4.113,20.612-11.583,28.151L391,408.943V372c0-11.046-8.954-20-20-20s-20,8.954-20,20v60
	c0,22.056-17.944,40-40,40H80c-22.056,0-40-17.944-40-40V200c0-22.056,17.944-40,40-40h231c22.056,0,40,17.944,40,40v72
	c0,11.046,8.954,20,20,20s20-8.954,20-20v-72c0-17.634-5.735-33.953-15.438-47.191l91.727-91.628C470.294,66.793,472,73.201,472,80
	V312z"/>
<g>
</g>
<g>
</g>
<g>
</g>
<g>
</g>
<g>
</g>
<g>
</g>
<g>
</g>
<g>
</g>
<g>
</g>
<g>
</g>
<g>
</g>
<g>
</g>
<g>
</g>
<g>
</g>
<g>
</g>
</svg>
