<?xml version="1.0" encoding="iso-8859-1"?>
<!-- Generator: Adobe Illustrator 19.0.0, SVG Export Plug-In . SVG Version: 6.00 Build 0)  -->
<svg version="1.1" id="Capa_1" xmlns="http://www.w3.org/2000/svg" xmlns:xlink="http://www.w3.org/1999/xlink" x="0px" y="0px"
	 viewBox="0 0 512 512" style="enable-background:new 0 0 512 512;" xml:space="preserve">
<linearGradient id="SVGID_1_" gradientUnits="userSpaceOnUse" x1="0" y1="258" x2="512" y2="258" gradientTransform="matrix(1 0 0 -1 0 514)">
	<stop  offset="0" style="stop-color:#00F2FE"/>
	<stop  offset="0.021" style="stop-color:#03EFFE"/>
	<stop  offset="0.293" style="stop-color:#24D2FE"/>
	<stop  offset="0.554" style="stop-color:#3CBDFE"/>
	<stop  offset="0.796" style="stop-color:#4AB0FE"/>
	<stop  offset="1" style="stop-color:#4FACFE"/>
</linearGradient>
<path style="fill:url(#SVGID_1_);" d="M305.999,511.897c-3.004,0-6.015-0.676-8.799-2.04l-100-49
	c-6.854-3.359-11.2-10.327-11.2-17.96V321.471c-28.037-14.022-83.133-45.335-113.845-87.866C22.928,165.435,0,97.593,0,20.103
	c0-11.046,8.954-20,20-20h472c11.046,0,20,8.954,20,20c0,77.49-22.928,145.332-72.155,213.502
	c-31.984,44.294-87.967,78.505-126.188,94.343c-10.206,4.229-21.905-0.616-26.133-10.82c-4.229-10.205,0.616-21.904,10.82-26.133
	c36.026-14.928,83.724-45.704,109.072-80.807c39.735-55.025,60.326-109.549,63.987-170.085H40.597
	c3.661,60.537,24.252,115.06,63.987,170.085c23.984,33.214,72.428,63.38,109.766,80.536c7.1,3.262,11.65,10.36,11.65,18.173v121.528
	l60,29.4v-50.353c0-11.046,8.954-20,20-20s20,8.954,20,20v82.425c0,6.903-3.56,13.318-9.417,16.971
	C313.356,510.88,309.683,511.897,305.999,511.897z"/>
<g>
</g>
<g>
</g>
<g>
</g>
<g>
</g>
<g>
</g>
<g>
</g>
<g>
</g>
<g>
</g>
<g>
</g>
<g>
</g>
<g>
</g>
<g>
</g>
<g>
</g>
<g>
</g>
<g>
</g>
</svg>
