<?xml version="1.0" encoding="iso-8859-1"?>
<!-- Generator: Adobe Illustrator 19.0.0, SVG Export Plug-In . SVG Version: 6.00 Build 0)  -->
<svg version="1.1" id="Capa_1" xmlns="http://www.w3.org/2000/svg" xmlns:xlink="http://www.w3.org/1999/xlink" x="0px" y="0px"
	 viewBox="0 0 512.001 512.001" style="enable-background:new 0 0 512.001 512.001;" xml:space="preserve">
<linearGradient id="SVGID_1_" gradientUnits="userSpaceOnUse" x1="0" y1="258.0007" x2="512.0015" y2="258.0007" gradientTransform="matrix(1 0 0 -1 0 514.0015)">
	<stop  offset="0" style="stop-color:#00F2FE"/>
	<stop  offset="0.021" style="stop-color:#03EFFE"/>
	<stop  offset="0.293" style="stop-color:#24D2FE"/>
	<stop  offset="0.554" style="stop-color:#3CBDFE"/>
	<stop  offset="0.796" style="stop-color:#4AB0FE"/>
	<stop  offset="1" style="stop-color:#4FACFE"/>
</linearGradient>
<path style="fill:url(#SVGID_1_);" d="M175.322,92.163c-5.06-9.819-1.202-21.88,8.617-26.94c16.167-8.331,33.278-13.67,51.062-15.95
	V20.001c0-11.046,8.954-20,20-20c11.046,0,20,8.954,20,20v29.23c34.439,4.344,66.297,20.082,91.107,45.304
	c28.95,29.43,44.894,68.306,44.894,109.466L411,234.002c0,20.282,5.604,34.602,15.282,52.482c5.258,9.714,1.646,21.851-8.068,27.109
	c-3.026,1.638-6.288,2.415-9.503,2.415c-7.105,0-13.986-3.795-17.606-10.483C381.378,287.555,371,265.726,371,234.001l0.001-30
	c0-63.069-51.092-115.074-113.917-115.987h-0.241h-3.537c-17.938,0.259-35.11,4.554-51.045,12.765
	c-2.93,1.51-6.061,2.226-9.145,2.226C185.867,103.005,178.872,99.051,175.322,92.163z M506.143,506.144
	c-3.905,3.905-9.024,5.857-14.143,5.857s-10.237-1.953-14.143-5.858l-55.995-55.995c-4.829,1.231-9.805,1.853-14.873,1.853h-91.603
	c0,33.084-26.916,60-60,60s-60-26.916-60-60h-91.99c-17.9,0-34.725-7.9-46.157-21.675c-11.444-13.788-16.114-31.798-12.813-49.415
	c6.916-36.901,20.59-60.82,32.655-81.924C89.328,277.567,99,260.648,99,234.001v-30c0-21.979,4.531-43.252,13.467-63.248
	L5.858,34.144c-7.811-7.811-7.811-20.474,0-28.284s20.475-7.811,28.285,0l472,472C513.954,485.67,513.954,498.333,506.143,506.144z
	 M275.388,452.001h-40c0,11.028,8.972,20,20,20C266.416,472.001,275.388,463.029,275.388,452.001z M383.716,412.001L143.558,171.844
	c-3.029,10.391-4.558,21.153-4.558,32.157v30c0,37.274-13.824,61.455-27.192,84.839c-11.009,19.256-22.392,39.167-28.064,69.439
	c-1.51,8.055,2.031,13.795,4.275,16.5c2.239,2.697,7.214,7.222,15.379,7.222H383.716z"/>
<g>
</g>
<g>
</g>
<g>
</g>
<g>
</g>
<g>
</g>
<g>
</g>
<g>
</g>
<g>
</g>
<g>
</g>
<g>
</g>
<g>
</g>
<g>
</g>
<g>
</g>
<g>
</g>
<g>
</g>
</svg>
