<?xml version="1.0" encoding="iso-8859-1"?>
<!-- Generator: Adobe Illustrator 19.0.0, SVG Export Plug-In . SVG Version: 6.00 Build 0)  -->
<svg version="1.1" id="Capa_1" xmlns="http://www.w3.org/2000/svg" xmlns:xlink="http://www.w3.org/1999/xlink" x="0px" y="0px"
	 viewBox="0 0 512 512" style="enable-background:new 0 0 512 512;" xml:space="preserve">
<linearGradient id="SVGID_1_" gradientUnits="userSpaceOnUse" x1="-0.0025" y1="258.02" x2="511.9713" y2="258.02" gradientTransform="matrix(1.0001 0 0 -1.0001 0.0025 514.0329)">
	<stop  offset="0" style="stop-color:#00F2FE"/>
	<stop  offset="0.021" style="stop-color:#03EFFE"/>
	<stop  offset="0.293" style="stop-color:#24D2FE"/>
	<stop  offset="0.554" style="stop-color:#3CBDFE"/>
	<stop  offset="0.796" style="stop-color:#4AB0FE"/>
	<stop  offset="1" style="stop-color:#4FACFE"/>
</linearGradient>
<path style="fill:url(#SVGID_1_);" d="M206.984,480.011c-5.127,0-10.253-1.958-14.161-5.875L17.531,298.411
	c-23.377-23.377-23.377-61.444,0.018-84.839L192.824,37.864c7.801-7.82,20.465-7.835,28.286-0.035
	c7.82,7.801,7.835,20.465,0.035,28.285L45.851,241.84c-7.815,7.815-7.815,20.504-0.018,28.302l175.311,175.742
	c7.801,7.82,7.785,20.484-0.035,28.285C217.206,478.064,212.095,480.011,206.984,480.011z M512,256
	c0-11.047-8.954-20.001-20.001-20.001H128.98c-11.047,0-20.001,8.954-20.001,20.001c0,11.047,8.954,20.001,20.001,20.001h363.018
	C503.045,276.001,512,267.046,512,256z"/>
<g>
</g>
<g>
</g>
<g>
</g>
<g>
</g>
<g>
</g>
<g>
</g>
<g>
</g>
<g>
</g>
<g>
</g>
<g>
</g>
<g>
</g>
<g>
</g>
<g>
</g>
<g>
</g>
<g>
</g>
</svg>
