<?xml version="1.0" encoding="iso-8859-1"?>
<!-- Generator: Adobe Illustrator 19.0.0, SVG Export Plug-In . SVG Version: 6.00 Build 0)  -->
<svg version="1.1" id="Capa_1" xmlns="http://www.w3.org/2000/svg" xmlns:xlink="http://www.w3.org/1999/xlink" x="0px" y="0px"
	 viewBox="0 0 512 512" style="enable-background:new 0 0 512 512;" xml:space="preserve">
<linearGradient id="SVGID_1_" gradientUnits="userSpaceOnUse" x1="0.0526" y1="257.9321" x2="512.054" y2="257.9321" gradientTransform="matrix(0.9998 0 0 -0.9998 -0.0085 513.8875)">
	<stop  offset="0" style="stop-color:#00F2FE"/>
	<stop  offset="0.021" style="stop-color:#03EFFE"/>
	<stop  offset="0.293" style="stop-color:#24D2FE"/>
	<stop  offset="0.554" style="stop-color:#3CBDFE"/>
	<stop  offset="0.796" style="stop-color:#4AB0FE"/>
	<stop  offset="1" style="stop-color:#4FACFE"/>
</linearGradient>
<path style="fill:url(#SVGID_1_);" d="M511.955,216.506v41.539c0,11.044-8.952,19.997-19.997,19.997
	c-11.044,0-19.997-8.952-19.997-19.997v-41.539c0-0.594-0.014-1.188-0.041-1.78L299.742,344.98
	c-0.486,0.367-0.988,0.712-1.505,1.034c-13.027,8.101-27.632,12.15-42.238,12.15c-14.605,0-29.211-4.05-42.238-12.15
	c-0.489-0.304-0.964-0.629-1.425-0.975L93.041,255.72c-8.84-6.619-10.641-19.152-4.022-27.992
	c6.619-8.84,19.151-10.642,27.992-4.022l118.536,88.751c12.674,7.552,28.189,7.56,40.868,0.023L450.83,180.535l-174.497-134.9
	c-12.624-7.465-28.042-7.465-40.666,0L55.569,184.865c-9.726,7.52-15.532,19.348-15.532,31.641v215.509
	c0,22.052,17.941,39.993,39.993,39.993h245.957c11.044,0,19.997,8.952,19.997,19.997S337.031,512,325.987,512H80.03
	c-44.104,0-79.986-35.882-79.986-79.986V216.506c0-24.587,11.613-48.243,31.065-63.281L212.091,13.311
	c0.537-0.416,1.095-0.803,1.671-1.162c26.053-16.199,58.422-16.199,84.474,0c0.576,0.358,1.134,0.746,1.671,1.162L480.89,153.225
	c4.906,3.792,9.312,8.134,13.161,12.9c1.424,1.082,2.726,2.374,3.856,3.869c1.529,2.021,2.615,4.238,3.275,6.536
	C508.126,188.578,511.955,202.388,511.955,216.506z M447.04,324.242c-11.617-11.617-30.522-11.617-42.129-0.012l-59.057,58.952
	c-7.816,7.803-7.828,20.463-0.025,28.279c7.803,7.817,20.463,7.828,28.279,0.025l31.865-31.808v112.326
	c0,11.044,8.952,19.997,19.997,19.997s19.997-8.952,19.997-19.997V379.678l31.865,31.808c3.903,3.896,9.015,5.844,14.127,5.844
	c5.123,0,10.247-1.958,14.153-5.87c7.803-7.816,7.791-20.476-0.025-28.279L447.04,324.242z"/>
<g>
</g>
<g>
</g>
<g>
</g>
<g>
</g>
<g>
</g>
<g>
</g>
<g>
</g>
<g>
</g>
<g>
</g>
<g>
</g>
<g>
</g>
<g>
</g>
<g>
</g>
<g>
</g>
<g>
</g>
</svg>
