<?xml version="1.0" encoding="iso-8859-1"?>
<!-- Generator: Adobe Illustrator 19.0.0, SVG Export Plug-In . SVG Version: 6.00 Build 0)  -->
<svg version="1.1" id="Capa_1" xmlns="http://www.w3.org/2000/svg" xmlns:xlink="http://www.w3.org/1999/xlink" x="0px" y="0px"
	 viewBox="0 0 512.001 512.001" style="enable-background:new 0 0 512.001 512.001;" xml:space="preserve">
<linearGradient id="SVGID_1_" gradientUnits="userSpaceOnUse" x1="-0.0054" y1="258.0447" x2="511.9396" y2="258.0447" gradientTransform="matrix(1.0001 0 0 -1.0001 0.0054 514.0735)">
	<stop  offset="0" style="stop-color:#00F2FE"/>
	<stop  offset="0.021" style="stop-color:#03EFFE"/>
	<stop  offset="0.293" style="stop-color:#24D2FE"/>
	<stop  offset="0.554" style="stop-color:#3CBDFE"/>
	<stop  offset="0.796" style="stop-color:#4AB0FE"/>
	<stop  offset="1" style="stop-color:#4FACFE"/>
</linearGradient>
<path style="fill:url(#SVGID_1_);" d="M255.989,414.002c-15.366,0-30.724-5.848-42.42-17.544L17.547,200.437
	c-23.397-23.397-23.397-61.465,0-84.862C28.882,104.24,43.95,97.999,59.979,97.999h392.043c16.028,0,31.097,6.242,42.432,17.576
	c23.397,23.397,23.397,61.465,0,84.862c-7.812,7.812-20.477,7.812-28.288,0s-7.811-20.476,0-28.287c7.8-7.799,7.8-20.488,0-28.287
	c-3.777-3.777-8.801-5.859-14.144-5.859H59.979c-5.343,0-10.365,2.081-14.144,5.859c-7.8,7.799-7.8,20.488,0,28.287l196.021,196.021
	c7.798,7.799,20.488,7.799,28.286,0l128.7-129.267c7.794-7.829,20.458-7.857,28.287-0.063c7.828,7.794,7.856,20.459,0.062,28.287
	l-128.73,129.299C286.746,408.144,271.362,414.002,255.989,414.002z"/>
<g>
</g>
<g>
</g>
<g>
</g>
<g>
</g>
<g>
</g>
<g>
</g>
<g>
</g>
<g>
</g>
<g>
</g>
<g>
</g>
<g>
</g>
<g>
</g>
<g>
</g>
<g>
</g>
<g>
</g>
</svg>
