<?xml version="1.0" encoding="iso-8859-1"?>
<!-- Generator: Adobe Illustrator 19.0.0, SVG Export Plug-In . SVG Version: 6.00 Build 0)  -->
<svg version="1.1" id="Capa_1" xmlns="http://www.w3.org/2000/svg" xmlns:xlink="http://www.w3.org/1999/xlink" x="0px" y="0px"
	 viewBox="0 0 512.001 512.001" style="enable-background:new 0 0 512.001 512.001;" xml:space="preserve">
<linearGradient id="SVGID_1_" gradientUnits="userSpaceOnUse" x1="-0.0054" y1="258.045" x2="511.9396" y2="258.045" gradientTransform="matrix(1.0001 0 0 -1.0001 0.0054 514.0737)">
	<stop  offset="0" style="stop-color:#00F2FE"/>
	<stop  offset="0.021" style="stop-color:#03EFFE"/>
	<stop  offset="0.293" style="stop-color:#24D2FE"/>
	<stop  offset="0.554" style="stop-color:#3CBDFE"/>
	<stop  offset="0.796" style="stop-color:#4AB0FE"/>
	<stop  offset="1" style="stop-color:#4FACFE"/>
</linearGradient>
<path style="fill:url(#SVGID_1_);" d="M452.022,414.004H59.979c-16.028,0-31.097-6.242-42.432-17.576
	c-23.397-23.397-23.397-61.465,0-84.862l196.021-196.021c23.398-23.398,61.466-23.398,84.863,0l128.76,129.329
	c7.795,7.829,7.767,20.493-0.062,28.287s-20.493,7.767-28.287-0.063l-128.73-129.296c-7.77-7.768-20.459-7.768-28.256,0.031
	L45.836,339.854c-7.8,7.799-7.8,20.488,0,28.287c3.777,3.777,8.801,5.859,14.144,5.859h392.043c5.343,0,10.365-2.081,14.144-5.859
	c7.8-7.799,7.8-20.488,0-28.287c-7.811-7.812-7.811-20.476,0-28.287c7.812-7.812,20.477-7.812,28.288,0
	c23.397,23.397,23.397,61.465,0,84.862C483.119,407.763,468.05,414.004,452.022,414.004z"/>
<g>
</g>
<g>
</g>
<g>
</g>
<g>
</g>
<g>
</g>
<g>
</g>
<g>
</g>
<g>
</g>
<g>
</g>
<g>
</g>
<g>
</g>
<g>
</g>
<g>
</g>
<g>
</g>
<g>
</g>
</svg>
