<?xml version="1.0" encoding="iso-8859-1"?>
<!-- Generator: Adobe Illustrator 19.0.0, SVG Export Plug-In . SVG Version: 6.00 Build 0)  -->
<svg version="1.1" id="Capa_1" xmlns="http://www.w3.org/2000/svg" xmlns:xlink="http://www.w3.org/1999/xlink" x="0px" y="0px"
	 viewBox="0 0 512 512" style="enable-background:new 0 0 512 512;" xml:space="preserve">
<linearGradient id="SVGID_1_" gradientUnits="userSpaceOnUse" x1="26" y1="258" x2="486" y2="258" gradientTransform="matrix(1 0 0 -1 0 514)">
	<stop  offset="0" style="stop-color:#00F2FE"/>
	<stop  offset="0.021" style="stop-color:#03EFFE"/>
	<stop  offset="0.293" style="stop-color:#24D2FE"/>
	<stop  offset="0.554" style="stop-color:#3CBDFE"/>
	<stop  offset="0.796" style="stop-color:#4AB0FE"/>
	<stop  offset="1" style="stop-color:#4FACFE"/>
</linearGradient>
<path style="fill:url(#SVGID_1_);" d="M466,437h-34v-92c0-33.084-26.916-60-60-60h-72.905c-11.021,0-19.993-8.967-20-19.988
	l-0.086-148.807C301.762,107.672,318,85.697,318,60c0-33.084-26.916-60-60-60s-60,26.916-60,60
	c0,23.601,13.698,44.063,33.561,53.854l-65.268,53.701C161.676,171.354,159,177.021,159,183v94c0,11.046,8.954,20,20,20
	s20-8.954,20-20v-84.556l40.033-32.939l0.062,105.53c0.019,33.064,26.935,59.965,60,59.965H372c11.028,0,20,8.972,20,20v112
	c0,11.046,8.954,20,20,20h54c11.046,0,20-8.954,20-20S477.046,437,466,437z M258,40c11.028,0,20,8.972,20,20s-8.972,20-20,20
	s-20-8.972-20-20S246.972,40,258,40z M307.186,365h40.199C340.266,447.244,271.058,512,187,512c-88.775,0-161-72.225-161-161
	c0-64.489,38.115-120.238,93-145.916v45.892C87.032,272.773,66,309.473,66,351c0,66.72,54.28,121,121,121
	C248.984,472,300.223,425.148,307.186,365z"/>
<g>
</g>
<g>
</g>
<g>
</g>
<g>
</g>
<g>
</g>
<g>
</g>
<g>
</g>
<g>
</g>
<g>
</g>
<g>
</g>
<g>
</g>
<g>
</g>
<g>
</g>
<g>
</g>
<g>
</g>
</svg>
