<?xml version="1.0" encoding="iso-8859-1"?>
<!-- Generator: Adobe Illustrator 19.0.0, SVG Export Plug-In . SVG Version: 6.00 Build 0)  -->
<svg version="1.1" id="Capa_1" xmlns="http://www.w3.org/2000/svg" xmlns:xlink="http://www.w3.org/1999/xlink" x="0px" y="0px"
	 viewBox="0 0 512 512" style="enable-background:new 0 0 512 512;" xml:space="preserve">
<linearGradient id="SVGID_1_" gradientUnits="userSpaceOnUse" x1="0" y1="258" x2="512" y2="258" gradientTransform="matrix(1 0 0 -1 0 514)">
	<stop  offset="0" style="stop-color:#00F2FE"/>
	<stop  offset="0.021" style="stop-color:#03EFFE"/>
	<stop  offset="0.293" style="stop-color:#24D2FE"/>
	<stop  offset="0.554" style="stop-color:#3CBDFE"/>
	<stop  offset="0.796" style="stop-color:#4AB0FE"/>
	<stop  offset="1" style="stop-color:#4FACFE"/>
</linearGradient>
<path style="fill:url(#SVGID_1_);" d="M448.789,201.508c-0.922-0.875-1.941-1.675-3.054-2.383
	c-41.686-26.519-101.536-58.058-134.74-75.114C301.721,102.833,280.56,88,256,88s-45.721,14.833-54.995,36.011
	c-33.204,17.056-93.054,48.595-134.74,75.114c-1.113,0.708-2.132,1.508-3.054,2.383C25.661,221.277,0,260.698,0,306
	c0,65.065,52.935,118,118,118s118-52.935,118-118c0-11.028,8.972-20,20-20c11.028,0,20,8.972,20,20c0,65.065,52.935,118,118,118
	c25.337,0,49.491-7.914,69.852-22.888c8.898-6.544,10.807-19.063,4.263-27.961c-6.544-8.899-19.062-10.807-27.961-4.264
	C426.71,378.774,410.75,384,394,384c-43.009,0-78-34.99-78-78s34.991-78,78-78s78,34.99,78,78c0,11.046,8.954,20,20,20
	s20-8.954,20-20C512,260.698,486.339,221.277,448.789,201.508z M256,128c11.028,0,20,8.972,20,20s-8.972,20-20,20s-20-8.972-20-20
	S244.972,128,256,128z M118,384c-43.009,0-78-34.99-78-78s34.991-78,78-78s78,34.99,78,78S161.009,384,118,384z M287.595,255.011
	C278.413,249.301,267.585,246,256,246s-22.413,3.301-31.595,9.011c-13.846-28.777-39.029-51.111-69.721-61.174
	c16.055-8.814,31.731-17.147,45.328-24.258C208.696,192.033,230.519,208,256,208s47.304-15.967,55.987-38.421
	c13.598,7.111,29.273,15.444,45.328,24.258C326.624,203.899,301.441,226.233,287.595,255.011z"/>
<g>
</g>
<g>
</g>
<g>
</g>
<g>
</g>
<g>
</g>
<g>
</g>
<g>
</g>
<g>
</g>
<g>
</g>
<g>
</g>
<g>
</g>
<g>
</g>
<g>
</g>
<g>
</g>
<g>
</g>
</svg>
