<?xml version="1.0" encoding="iso-8859-1"?>
<!-- Generator: Adobe Illustrator 19.0.0, SVG Export Plug-In . SVG Version: 6.00 Build 0)  -->
<svg version="1.1" id="Capa_1" xmlns="http://www.w3.org/2000/svg" xmlns:xlink="http://www.w3.org/1999/xlink" x="0px" y="0px"
	 viewBox="0 0 512 512" style="enable-background:new 0 0 512 512;" xml:space="preserve">
<linearGradient id="SVGID_1_" gradientUnits="userSpaceOnUse" x1="0" y1="258" x2="512" y2="258" gradientTransform="matrix(1 0 0 -1 0 514)">
	<stop  offset="0" style="stop-color:#00F2FE"/>
	<stop  offset="0.021" style="stop-color:#03EFFE"/>
	<stop  offset="0.293" style="stop-color:#24D2FE"/>
	<stop  offset="0.554" style="stop-color:#3CBDFE"/>
	<stop  offset="0.796" style="stop-color:#4AB0FE"/>
	<stop  offset="1" style="stop-color:#4FACFE"/>
</linearGradient>
<path style="fill:url(#SVGID_1_);" d="M432,444H80c-44.112,0-80-35.888-80-80V148c0-44.112,35.888-80,80-80h352
	c44.112,0,80,35.888,80,80v116c0,11.046-8.954,20-20,20s-20-8.954-20-20V148c0-22.056-17.944-40-40-40H80c-22.056,0-40,17.944-40,40
	v216c0,22.056,17.944,40,40,40h352c22.056,0,40-17.944,40-40c0-11.046,8.954-20,20-20s20,8.954,20,20
	C512,408.112,476.112,444,432,444z M357,255.878c0-59.552-45.309-108-101-108s-101,48.448-101,108s45.309,108,101,108
	S357,315.43,357,255.878z M317,255.878c0,37.495-27.364,68-61,68s-61-30.505-61-68s27.364-68,61-68S317,218.383,317,255.878z
	 M415,275c11.046,0,20-8.954,20-20c0-11.046-8.954-20-20-20s-20,8.954-20,20C395,266.046,403.954,275,415,275z M97,275
	c11.046,0,20-8.954,20-20c0-11.046-8.954-20-20-20s-20,8.954-20,20C77,266.046,85.954,275,97,275z"/>
<g>
</g>
<g>
</g>
<g>
</g>
<g>
</g>
<g>
</g>
<g>
</g>
<g>
</g>
<g>
</g>
<g>
</g>
<g>
</g>
<g>
</g>
<g>
</g>
<g>
</g>
<g>
</g>
<g>
</g>
</svg>
