<?xml version="1.0" encoding="iso-8859-1"?>
<!-- Generator: Adobe Illustrator 19.0.0, SVG Export Plug-In . SVG Version: 6.00 Build 0)  -->
<svg version="1.1" id="Capa_1" xmlns="http://www.w3.org/2000/svg" xmlns:xlink="http://www.w3.org/1999/xlink" x="0px" y="0px"
	 viewBox="0 0 512 512" style="enable-background:new 0 0 512 512;" xml:space="preserve">
<linearGradient id="SVGID_1_" gradientUnits="userSpaceOnUse" x1="121" y1="258" x2="391" y2="258" gradientTransform="matrix(1 0 0 -1 0 514)">
	<stop  offset="0" style="stop-color:#00F2FE"/>
	<stop  offset="0.021" style="stop-color:#03EFFE"/>
	<stop  offset="0.293" style="stop-color:#24D2FE"/>
	<stop  offset="0.554" style="stop-color:#3CBDFE"/>
	<stop  offset="0.796" style="stop-color:#4AB0FE"/>
	<stop  offset="1" style="stop-color:#4FACFE"/>
</linearGradient>
<path style="fill:url(#SVGID_1_);" d="M261,172v185.352c11.956,6.916,20,19.843,20,34.648c0,22.091-17.909,40-40,40
	s-40-17.909-40-40c0-14.806,8.044-27.732,20-34.648V172c0-11.046,8.954-20,20-20S261,160.954,261,172z M371,192
	c11.046,0,20-8.954,20-20s-8.954-20-20-20h-40v-31h40c11.046,0,20-8.954,20-20s-8.954-20-20-20h-40.447
	C326.023,35.583,287.589,0,241,0c-49.626,0-90,40.374-90,90v222.626c-19.408,21.929-30,49.796-30,79.374
	c0,66.168,53.832,120,120,120s120-53.832,120-120c0-25.134-7.695-49.206-22.255-69.615c-6.413-8.991-18.901-11.079-27.896-4.666
	c-8.992,6.414-11.081,18.904-4.666,27.896C315.876,359.204,321,375.243,321,392c0,44.112-35.888,80-80,80s-80-35.888-80-80
	c0-21.661,8.524-41.948,24.002-57.123c3.836-3.762,5.998-8.908,5.998-14.281V90c0-27.57,22.43-50,50-50s50,22.43,50,50v152
	c0,11.046,8.954,20,20,20h60c11.046,0,20-8.954,20-20s-8.954-20-20-20h-40v-30H371z"/>
<g>
</g>
<g>
</g>
<g>
</g>
<g>
</g>
<g>
</g>
<g>
</g>
<g>
</g>
<g>
</g>
<g>
</g>
<g>
</g>
<g>
</g>
<g>
</g>
<g>
</g>
<g>
</g>
<g>
</g>
</svg>
