<?xml version="1.0" encoding="iso-8859-1"?>
<!-- Generator: Adobe Illustrator 19.0.0, SVG Export Plug-In . SVG Version: 6.00 Build 0)  -->
<svg version="1.1" id="Capa_1" xmlns="http://www.w3.org/2000/svg" xmlns:xlink="http://www.w3.org/1999/xlink" x="0px" y="0px"
	 viewBox="0 0 512.001 512.001" style="enable-background:new 0 0 512.001 512.001;" xml:space="preserve">
<linearGradient id="SVGID_1_" gradientUnits="userSpaceOnUse" x1="0" y1="257.9985" x2="512.001" y2="257.9985" gradientTransform="matrix(1 0 0 -1 0 513.999)">
	<stop  offset="0" style="stop-color:#00F2FE"/>
	<stop  offset="0.021" style="stop-color:#03EFFE"/>
	<stop  offset="0.293" style="stop-color:#24D2FE"/>
	<stop  offset="0.554" style="stop-color:#3CBDFE"/>
	<stop  offset="0.796" style="stop-color:#4AB0FE"/>
	<stop  offset="1" style="stop-color:#4FACFE"/>
</linearGradient>
<path style="fill:url(#SVGID_1_);" d="M255.999,441.001c-15.354,0-151.129-0.303-189.899-10.787
	c-27.048-7.272-48.398-28.596-55.69-55.642C0.118,335.932,0,259.246,0,256.001c0-3.229,0.118-79.521,10.38-118.461
	c0.01-0.037,0.02-0.073,0.029-0.11c7.21-26.738,29.043-48.725,55.624-56.011c0.068-0.019,0.136-0.037,0.205-0.056
	c38.329-10.071,174.375-10.362,189.761-10.362c15.397,0,151.535,0.303,189.951,10.801c26.997,7.259,48.347,28.582,55.639,55.628
	c10.648,38.853,10.427,115.239,10.409,119.021c0,0.636-0.01,5.64-0.167,13.454c-0.221,10.905-9.131,19.596-19.988,19.596
	c-0.137,0-0.274-0.001-0.412-0.004c-11.043-0.224-19.815-9.357-19.592-20.4c0.157-7.755,0.16-12.66,0.16-12.709
	c0.101-20.73-1.322-80.421-9.008-108.465c-3.616-13.41-14.147-23.923-27.505-27.514c-28.256-7.722-139.138-9.408-179.485-9.408
	c-40.327,0.001-151.074,1.625-179.489,9.021c-13.106,3.633-23.877,14.523-27.468,27.778C41.625,176.028,40,235.464,40,256.001
	c0,0.741,0.116,74.689,9.046,108.217c3.579,13.271,14.109,23.784,27.468,27.375c28.543,7.72,139.239,9.408,179.485,9.408
	c40.351-0.001,151.207-1.626,179.537-9.034c13.334-3.604,23.842-14.106,27.432-27.42c2.875-10.665,13.852-16.978,24.517-14.104
	c10.665,2.876,16.979,13.853,14.104,24.518c-7.292,27.045-28.643,48.368-55.72,55.648c-0.036,0.01-0.073,0.02-0.109,0.029
	C407.432,440.71,271.386,441.001,255.999,441.001z M245.654,339.201l85.854-49.819C343.713,282.299,351,269.633,351,255.501
	c0-14.132-7.287-26.799-19.492-33.882l-85.854-49.817c-12.215-7.09-26.812-7.113-39.05-0.066
	C194.329,178.804,187,191.495,187,205.681v99.639c0,14.187,7.329,26.877,19.604,33.946c6.099,3.512,12.785,5.268,19.469,5.268
	C232.801,344.534,239.528,342.755,245.654,339.201z M310.199,255.501L227,303.778v-96.555L310.199,255.501z"/>
<g>
</g>
<g>
</g>
<g>
</g>
<g>
</g>
<g>
</g>
<g>
</g>
<g>
</g>
<g>
</g>
<g>
</g>
<g>
</g>
<g>
</g>
<g>
</g>
<g>
</g>
<g>
</g>
<g>
</g>
</svg>
