<?xml version="1.0" encoding="iso-8859-1"?>
<!-- Generator: Adobe Illustrator 19.0.0, SVG Export Plug-In . SVG Version: 6.00 Build 0)  -->
<svg version="1.1" id="Capa_1" xmlns="http://www.w3.org/2000/svg" xmlns:xlink="http://www.w3.org/1999/xlink" x="0px" y="0px"
	 viewBox="0 0 512 512" style="enable-background:new 0 0 512 512;" xml:space="preserve">
<linearGradient id="SVGID_1_" gradientUnits="userSpaceOnUse" x1="0" y1="258" x2="512" y2="258" gradientTransform="matrix(1 0 0 -1 0 514)">
	<stop  offset="0" style="stop-color:#00F2FE"/>
	<stop  offset="0.021" style="stop-color:#03EFFE"/>
	<stop  offset="0.293" style="stop-color:#24D2FE"/>
	<stop  offset="0.554" style="stop-color:#3CBDFE"/>
	<stop  offset="0.796" style="stop-color:#4AB0FE"/>
	<stop  offset="1" style="stop-color:#4FACFE"/>
</linearGradient>
<path style="fill:url(#SVGID_1_);" d="M332.173,146.58l-117,66c-3.228,1.821-5.886,4.503-7.678,7.746l-63,114
	c-4.243,7.679-2.987,17.227,3.098,23.546c3.863,4.013,9.1,6.129,14.414,6.129c3.056,0,6.138-0.7,8.999-2.143l111.974-56.465
	c7.133-3.597,11.257-5.678,14.06-11.732l62.701-120.425c4.089-7.853,2.528-17.459-3.836-23.614
	C349.539,143.469,339.886,142.231,332.173,146.58z M264.237,270.047c-10.028,5.058-31.77,16.021-53.398,26.928l28.924-52.34
	l53.384-30.114L264.237,270.047z M512,256c0,50.53-14.999,99.674-43.374,142.116c-5.229,7.822-15.015,10.771-23.477,7.679
	c-2.391-0.519-4.725-1.488-6.881-2.933l-29.908-20.038c-9.176-6.148-11.631-18.571-5.483-27.747
	c6.147-9.177,18.569-11.635,27.748-5.483l14.726,9.866c7.607-13.846,13.638-28.37,18.025-43.343l-17.633-3.364
	c-10.85-2.069-17.968-12.543-15.897-23.394c2.07-10.851,12.539-17.975,23.394-15.897l17.744,3.385
	C471.659,269.942,472,262.986,472,256c0-7.903-0.427-15.708-1.258-23.395l-17.721,3.598c-1.342,0.273-2.682,0.404-4,0.404
	c-9.315,0-17.654-6.542-19.579-16.024c-2.198-10.825,4.796-21.382,15.621-23.579l17.694-3.593
	c-4.491-14.806-10.531-28.944-17.933-42.225l-13.647,9.273c-3.441,2.339-7.354,3.46-11.223,3.46c-6.402,0-12.69-3.066-16.56-8.761
	c-6.208-9.136-3.835-21.575,5.301-27.783l13.513-9.183c-9.17-11.041-19.418-21.157-30.579-30.186l-9.804,14.633
	c-3.858,5.759-10.187,8.87-16.634,8.87c-3.827,0-7.695-1.097-11.114-3.387c-9.176-6.147-11.631-18.571-5.483-27.747l9.751-14.553
	c-13.635-7.367-28.147-13.311-43.336-17.63l-3.256,17.064c-1.829,9.584-10.214,16.256-19.624,16.256
	c-1.244,0-2.503-0.116-3.771-0.358c-10.85-2.07-17.967-12.544-15.897-23.394l3.219-16.871C269.198,40.301,262.633,40,256,40
	c-8.171,0-16.237,0.456-24.174,1.344l3.378,16.635c2.198,10.825-4.796,21.382-15.621,23.58c-1.343,0.272-2.682,0.403-4,0.403
	c-9.315,0-17.654-6.542-19.579-16.024l-3.343-16.465c-14.619,4.493-28.583,10.498-41.706,17.833l9.301,13.687
	c6.208,9.136,3.835,21.574-5.301,27.783c-3.442,2.339-7.353,3.46-11.223,3.46c-6.401,0-12.69-3.067-16.56-8.761l-9.183-13.513
	c-10.891,9.068-20.879,19.185-29.808,30.195l13.46,9.018c9.176,6.148,11.631,18.571,5.483,27.747
	c-3.857,5.758-10.187,8.87-16.634,8.87c-3.828,0-7.695-1.096-11.114-3.387l-13.422-8.993c-7.303,13.476-13.215,27.811-17.541,42.811
	l15.845,3.023c10.85,2.069,17.968,12.543,15.897,23.394c-1.828,9.584-10.213,16.256-19.623,16.256c-1.243,0-2.504-0.116-3.771-0.358
	l-15.798-3.014C40.326,242.265,40,249.095,40,256c0,7.767,0.412,15.439,1.216,22.997l15.764-3.2
	c10.823-2.203,21.382,4.796,23.58,15.62c2.198,10.825-4.796,21.382-15.621,23.579l-15.81,3.21
	c4.531,15.04,10.661,29.393,18.191,42.862l13.47-9.154c9.135-6.207,21.575-3.835,27.783,5.301
	c6.208,9.136,3.835,21.574-5.301,27.783l-13.292,9.033c8.767,10.527,18.514,20.209,29.099,28.907l9.097-13.578
	c6.147-9.177,18.57-11.632,27.748-5.483c9.176,6.147,11.631,18.571,5.483,27.747l-9.216,13.754
	c13.493,7.426,27.861,13.452,42.906,17.88l3.151-16.515c2.07-10.851,12.54-17.971,23.394-15.897
	c10.85,2.07,17.967,12.544,15.897,23.394l-3.183,16.684C241.475,471.635,248.696,472,256,472c7.446,0,14.86-0.382,22.216-1.139
	l-3.419-16.841c-2.198-10.825,4.796-21.382,15.621-23.58c10.829-2.194,21.382,4.797,23.58,15.621l3.461,17.048
	c17.585-5.205,34.489-12.651,50.279-22.216c9.447-5.723,21.745-2.705,27.468,6.744c5.723,9.447,2.704,21.745-6.744,27.469
	C348.618,499.242,302.813,512,256,512c-68.38,0-132.667-26.629-181.02-74.98C26.629,388.667,0,324.38,0,256
	S26.629,123.333,74.98,74.98C123.333,26.629,187.62,0,256,0s132.667,26.629,181.02,74.98C485.371,123.333,512,187.62,512,256z"/>
<g>
</g>
<g>
</g>
<g>
</g>
<g>
</g>
<g>
</g>
<g>
</g>
<g>
</g>
<g>
</g>
<g>
</g>
<g>
</g>
<g>
</g>
<g>
</g>
<g>
</g>
<g>
</g>
<g>
</g>
</svg>
