<?xml version="1.0" encoding="iso-8859-1"?>
<!-- Generator: Adobe Illustrator 19.0.0, SVG Export Plug-In . SVG Version: 6.00 Build 0)  -->
<svg version="1.1" id="Capa_1" xmlns="http://www.w3.org/2000/svg" xmlns:xlink="http://www.w3.org/1999/xlink" x="0px" y="0px"
	 viewBox="0 0 512 512" style="enable-background:new 0 0 512 512;" xml:space="preserve">
<linearGradient id="SVGID_1_" gradientUnits="userSpaceOnUse" x1="31.9846" y1="258.0201" x2="479.9844" y2="258.0201" gradientTransform="matrix(1.0001 0 0 -1.0001 0.0025 514.0331)">
	<stop  offset="0" style="stop-color:#00F2FE"/>
	<stop  offset="0.021" style="stop-color:#03EFFE"/>
	<stop  offset="0.293" style="stop-color:#24D2FE"/>
	<stop  offset="0.554" style="stop-color:#3CBDFE"/>
	<stop  offset="0.796" style="stop-color:#4AB0FE"/>
	<stop  offset="1" style="stop-color:#4FACFE"/>
</linearGradient>
<path style="fill:url(#SVGID_1_);" d="M256.005,512c-15.367,0-30.735-5.848-42.435-17.549L37.864,319.176
	c-7.82-7.801-7.836-20.465-0.035-28.286c7.801-7.82,20.465-7.835,28.285-0.035L241.84,466.148
	c7.815,7.815,20.505,7.815,28.302,0.018l175.743-175.311c7.82-7.8,20.484-7.785,28.285,0.035s7.785,20.484-0.035,28.286
	L298.411,494.469C286.725,506.155,271.365,512,256.005,512z M276.001,382.019V20.001C276.001,8.954,267.046,0,255.999,0
	s-20.001,8.954-20.001,20.001v362.018c0,11.047,8.954,20.001,20.001,20.001C267.046,402.02,276.001,393.066,276.001,382.019z"/>
<g>
</g>
<g>
</g>
<g>
</g>
<g>
</g>
<g>
</g>
<g>
</g>
<g>
</g>
<g>
</g>
<g>
</g>
<g>
</g>
<g>
</g>
<g>
</g>
<g>
</g>
<g>
</g>
<g>
</g>
</svg>
