<?xml version="1.0" encoding="iso-8859-1"?>
<!-- Generator: Adobe Illustrator 19.0.0, SVG Export Plug-In . SVG Version: 6.00 Build 0)  -->
<svg version="1.1" id="Capa_1" xmlns="http://www.w3.org/2000/svg" xmlns:xlink="http://www.w3.org/1999/xlink" x="0px" y="0px"
	 viewBox="0 0 511.999 511.999" style="enable-background:new 0 0 511.999 511.999;" xml:space="preserve">
<linearGradient id="SVGID_1_" gradientUnits="userSpaceOnUse" x1="0.0686" y1="257.9059" x2="512.0771" y2="257.9059" gradientTransform="matrix(0.9998 0 0 -0.9998 -0.0118 513.8436)">
	<stop  offset="0" style="stop-color:#00F2FE"/>
	<stop  offset="0.021" style="stop-color:#03EFFE"/>
	<stop  offset="0.293" style="stop-color:#24D2FE"/>
	<stop  offset="0.554" style="stop-color:#3CBDFE"/>
	<stop  offset="0.796" style="stop-color:#4AB0FE"/>
	<stop  offset="1" style="stop-color:#4FACFE"/>
</linearGradient>
<path style="fill:url(#SVGID_1_);" d="M499.691,154.036c-8.342,43.903-20.591,84.536-36.409,120.767
	c-20.031,45.88-45.886,84.843-76.85,115.805c-48.713,48.711-101.033,73.403-155.526,73.403c-0.383,0-0.765-0.001-1.146-0.004
	c-15.395-0.097-31.143-2.219-46.802-6.309c-10.684-2.79-17.084-13.714-14.294-24.398c2.789-10.685,13.716-17.081,24.398-14.295
	c12.443,3.249,24.875,4.936,36.949,5.013c44.477,0.289,86.349-19.896,128.142-61.687C457.532,262.953,470.367,96.51,471.774,40.159
	c-22.317,0.542-61.759,2.852-107.2,11.554C300.94,63.899,212.01,91.5,149.723,153.788c-41.792,41.792-61.969,83.707-61.687,128.14
	c0.234,36.999,14.989,67.091,25.917,87.898l214.883-214.883c7.809-7.809,20.47-7.809,28.278,0c7.808,7.809,7.808,20.469,0,28.277
	L34.192,506.143c-3.904,3.904-9.022,5.857-14.14,5.857s-10.235-1.953-14.14-5.857c-7.808-7.809-7.808-20.469,0-28.277l78.415-78.415
	c-1.158-2.276-2.501-4.819-3.709-7.104c-12.066-22.832-32.262-61.044-32.573-110.165c-0.349-54.907,24.347-107.619,73.399-156.671
	c30.964-30.964,69.926-56.819,115.806-76.85c36.231-15.818,76.864-28.068,120.767-36.409C432.472-1.893,490.254,0.048,492.676,0.137
	c11.008,0.407,19.614,9.641,19.246,20.649c-0.011,0.313-0.028,0.623-0.053,0.931C512.121,33.499,512.424,87.013,499.691,154.036z"/>
<g>
</g>
<g>
</g>
<g>
</g>
<g>
</g>
<g>
</g>
<g>
</g>
<g>
</g>
<g>
</g>
<g>
</g>
<g>
</g>
<g>
</g>
<g>
</g>
<g>
</g>
<g>
</g>
<g>
</g>
</svg>
