<?xml version="1.0" encoding="iso-8859-1"?>
<!-- Generator: Adobe Illustrator 19.0.0, SVG Export Plug-In . SVG Version: 6.00 Build 0)  -->
<svg version="1.1" id="Capa_1" xmlns="http://www.w3.org/2000/svg" xmlns:xlink="http://www.w3.org/1999/xlink" x="0px" y="0px"
	 viewBox="0 0 512.003 512.003" style="enable-background:new 0 0 512.003 512.003;" xml:space="preserve">
<linearGradient id="SVGID_1_" gradientUnits="userSpaceOnUse" x1="0" y1="257.9977" x2="512.0026" y2="257.9977" gradientTransform="matrix(1 0 0 -1 0 513.999)">
	<stop  offset="0" style="stop-color:#00F2FE"/>
	<stop  offset="0.021" style="stop-color:#03EFFE"/>
	<stop  offset="0.293" style="stop-color:#24D2FE"/>
	<stop  offset="0.554" style="stop-color:#3CBDFE"/>
	<stop  offset="0.796" style="stop-color:#4AB0FE"/>
	<stop  offset="1" style="stop-color:#4FACFE"/>
</linearGradient>
<path style="fill:url(#SVGID_1_);" d="M511.901,130.69c-1.065-21.334-10.384-40.983-26.24-55.328l-60.198-54.463
	c-32.754-29.633-83.561-27.15-113.299,5.574l-208.875,231.16c-2.146,2.375-3.69,5.231-4.504,8.328L62.692,403.37L4.138,479.617
	c-4.639,6.041-5.444,14.192-2.077,21.024S12.384,511.798,20,511.798h76c5.685,0,11.101-2.419,14.895-6.652l25.693-28.669
	c0.068-0.024,0.135-0.049,0.203-0.074l138.387-51.613c2.961-1.104,5.618-2.895,7.754-5.225l48.813-53.252
	c7.464-8.143,6.913-20.794-1.229-28.257c-8.144-7.464-20.794-6.913-28.258,1.229l-34.53,37.671L147.223,268.676L341.805,53.332
	c14.899-16.396,40.387-17.639,56.821-2.771l60.198,54.463c7.933,7.176,12.594,16.999,13.126,27.66
	c0.532,10.66-3.127,20.894-10.316,28.834L364.161,269.39c-7.406,8.195-6.766,20.843,1.43,28.248s20.846,6.766,28.248-1.431
	l97.459-107.855C505.649,172.504,512.966,152.026,511.901,130.69z M134.363,434.616l-30.975-28.732l26.101-99.367l102.175,91.809
	L134.363,434.616z M87.068,471.798H60.576l22.903-29.823l16.553,15.355L87.068,471.798z"/>
<g>
</g>
<g>
</g>
<g>
</g>
<g>
</g>
<g>
</g>
<g>
</g>
<g>
</g>
<g>
</g>
<g>
</g>
<g>
</g>
<g>
</g>
<g>
</g>
<g>
</g>
<g>
</g>
<g>
</g>
</svg>
