<?xml version="1.0" encoding="iso-8859-1"?>
<!-- Generator: Adobe Illustrator 19.0.0, SVG Export Plug-In . SVG Version: 6.00 Build 0)  -->
<svg version="1.1" id="Capa_1" xmlns="http://www.w3.org/2000/svg" xmlns:xlink="http://www.w3.org/1999/xlink" x="0px" y="0px"
	 viewBox="0 0 512 512" style="enable-background:new 0 0 512 512;" xml:space="preserve">
<linearGradient id="SVGID_1_" gradientUnits="userSpaceOnUse" x1="0" y1="258" x2="512" y2="258" gradientTransform="matrix(1 0 0 -1 0 514)">
	<stop  offset="0" style="stop-color:#00F2FE"/>
	<stop  offset="0.021" style="stop-color:#03EFFE"/>
	<stop  offset="0.293" style="stop-color:#24D2FE"/>
	<stop  offset="0.554" style="stop-color:#3CBDFE"/>
	<stop  offset="0.796" style="stop-color:#4AB0FE"/>
	<stop  offset="1" style="stop-color:#4FACFE"/>
</linearGradient>
<path style="fill:url(#SVGID_1_);" d="M342,80.5c0-11.046,8.954-20,20-20h10c44.112,0,80,35.888,80,80v10c0,11.046-8.954,20-20,20
	s-20-8.954-20-20v-10c0-22.056-17.944-40-40-40h-10C350.954,100.5,342,91.546,342,80.5z M60,150.5c0,11.046,8.954,20,20,20
	s20-8.954,20-20v-50h49c11.046,0,20-8.954,20-20s-8.954-20-20-20h-49v-40c0-11.046-8.954-20-20-20s-20,8.954-20,20v40H20
	c-11.046,0-20,8.954-20,20s8.954,20,20,20h40V150.5z M150,411.5h-10c-22.056,0-40-17.944-40-40v-9c0-11.046-8.954-20-20-20
	s-20,8.954-20,20v9c0,44.112,35.888,80,80,80h10c11.046,0,20-8.954,20-20S161.046,411.5,150,411.5z M492,411.5h-40v-49
	c0-11.046-8.954-20-20-20s-20,8.954-20,20v49h-50c-11.046,0-20,8.954-20,20s8.954,20,20,20h50v40c0,11.046,8.954,20,20,20
	s20-8.954,20-20v-40h40c11.046,0,20-8.954,20-20S503.046,411.5,492,411.5z M282,60.5h-52c-11.046,0-20,8.954-20,20s8.954,20,20,20
	h52c11.046,0,20-8.954,20-20S293.046,60.5,282,60.5z M282,411.5h-52c-11.046,0-20,8.954-20,20s8.954,20,20,20h52
	c11.046,0,20-8.954,20-20S293.046,411.5,282,411.5z M432,210.5c-11.046,0-20,8.954-20,20v52c0,11.046,8.954,20,20,20s20-8.954,20-20
	v-52C452,219.454,443.046,210.5,432,210.5z M80,210.5c-11.046,0-20,8.954-20,20v52c0,11.046,8.954,20,20,20s20-8.954,20-20v-52
	C100,219.454,91.046,210.5,80,210.5z"/>
<g>
</g>
<g>
</g>
<g>
</g>
<g>
</g>
<g>
</g>
<g>
</g>
<g>
</g>
<g>
</g>
<g>
</g>
<g>
</g>
<g>
</g>
<g>
</g>
<g>
</g>
<g>
</g>
<g>
</g>
</svg>
