<?xml version="1.0" encoding="iso-8859-1"?>
<!-- Generator: Adobe Illustrator 19.0.0, SVG Export Plug-In . SVG Version: 6.00 Build 0)  -->
<svg version="1.1" id="Capa_1" xmlns="http://www.w3.org/2000/svg" xmlns:xlink="http://www.w3.org/1999/xlink" x="0px" y="0px"
	 viewBox="0 0 512 512" style="enable-background:new 0 0 512 512;" xml:space="preserve">
<linearGradient id="SVGID_1_" gradientUnits="userSpaceOnUse" x1="98.984" y1="258" x2="413.016" y2="258" gradientTransform="matrix(1 0 0 -1 0 514)">
	<stop  offset="0" style="stop-color:#00F2FE"/>
	<stop  offset="0.021" style="stop-color:#03EFFE"/>
	<stop  offset="0.293" style="stop-color:#24D2FE"/>
	<stop  offset="0.554" style="stop-color:#3CBDFE"/>
	<stop  offset="0.796" style="stop-color:#4AB0FE"/>
	<stop  offset="1" style="stop-color:#4FACFE"/>
</linearGradient>
<path style="fill:url(#SVGID_1_);" d="M275.984,492L275.984,492c0,11.046-8.954,20-20,20l0,0c-11.046,0-20-8.954-20-20l0,0
	c0-11.046,8.954-20,20-20l0,0C267.03,472,275.984,480.954,275.984,492z M275.984,412v-46.438c0-28.117,16.334-53.258,41.614-64.051
	c57.979-24.754,95.433-81.479,95.418-144.516c0-0.41-0.013-0.816-0.037-1.22C412.321,69.765,342.147,0,255.984,0
	c-86.57,0-157,70.43-157,157c0,11.046,8.954,20,20,20s20-8.954,20-20c0-64.514,52.486-117,117-117s117,52.486,117,117
	c0,0.356,0.009,0.71,0.028,1.062c-0.405,46.562-28.227,88.348-71.12,106.661c-40.038,17.094-65.908,56.675-65.908,100.839V412
	c0,11.046,8.954,20,20,20S275.984,423.046,275.984,412z"/>
<g>
</g>
<g>
</g>
<g>
</g>
<g>
</g>
<g>
</g>
<g>
</g>
<g>
</g>
<g>
</g>
<g>
</g>
<g>
</g>
<g>
</g>
<g>
</g>
<g>
</g>
<g>
</g>
<g>
</g>
</svg>
