<?xml version="1.0" encoding="iso-8859-1"?>
<!-- Generator: Adobe Illustrator 19.0.0, SVG Export Plug-In . SVG Version: 6.00 Build 0)  -->
<svg version="1.1" id="Capa_1" xmlns="http://www.w3.org/2000/svg" xmlns:xlink="http://www.w3.org/1999/xlink" x="0px" y="0px"
	 viewBox="0 0 511.999 511.999" style="enable-background:new 0 0 511.999 511.999;" xml:space="preserve">
<linearGradient id="SVGID_1_" gradientUnits="userSpaceOnUse" x1="7.652164e-004" y1="257.9933" x2="512.0078" y2="257.9933" gradientTransform="matrix(1 0 0 -1 -7.652044e-004 513.9887)">
	<stop  offset="0" style="stop-color:#00F2FE"/>
	<stop  offset="0.021" style="stop-color:#03EFFE"/>
	<stop  offset="0.293" style="stop-color:#24D2FE"/>
	<stop  offset="0.554" style="stop-color:#3CBDFE"/>
	<stop  offset="0.796" style="stop-color:#4AB0FE"/>
	<stop  offset="1" style="stop-color:#4FACFE"/>
</linearGradient>
<path style="fill:url(#SVGID_1_);" d="M20,511.996c-11.046,0-20-8.954-20-20V80.002C0,35.891,35.887,0.003,79.999,0.003h381.934
	c21.162,0,39.572,12.828,46.902,32.678c7.331,19.853,1.676,41.566-14.408,55.32c-0.046,0.04-0.093,0.079-0.139,0.118l-100.67,84.508
	l101.479,89.955c15.687,13.905,21.018,35.553,13.582,55.152c-7.437,19.599-25.786,32.262-46.748,32.262H119.998
	c-11.046,0-20-8.954-20-20c0-11.046,8.954-20,20-20h341.934c6.229,0,8.614-4.513,9.351-6.453c0.735-1.94,1.944-6.899-2.717-11.031
	L349.738,187.182c-4.353-3.858-6.81-9.42-6.731-15.235c0.078-5.816,2.685-11.31,7.139-15.049l118.338-99.34
	c4.719-4.079,3.553-9.062,2.83-11.02c-0.727-1.965-3.093-6.536-9.381-6.536H79.999c-22.056,0-39.999,17.944-39.999,39.999v411.994
	C39.999,503.042,31.046,511.996,20,511.996z"/>
<g>
</g>
<g>
</g>
<g>
</g>
<g>
</g>
<g>
</g>
<g>
</g>
<g>
</g>
<g>
</g>
<g>
</g>
<g>
</g>
<g>
</g>
<g>
</g>
<g>
</g>
<g>
</g>
<g>
</g>
</svg>
