<?xml version="1.0" encoding="iso-8859-1"?>
<!-- Generator: Adobe Illustrator 19.0.0, SVG Export Plug-In . SVG Version: 6.00 Build 0)  -->
<svg version="1.1" id="Capa_1" xmlns="http://www.w3.org/2000/svg" xmlns:xlink="http://www.w3.org/1999/xlink" x="0px" y="0px"
	 viewBox="0 0 512 512" style="enable-background:new 0 0 512 512;" xml:space="preserve">
<linearGradient id="SVGID_1_" gradientUnits="userSpaceOnUse" x1="-2.844762e-004" y1="258.0122" x2="511.9828" y2="258.0122" gradientTransform="matrix(1 0 0 -1 0.0014 514.02)">
	<stop  offset="0" style="stop-color:#00F2FE"/>
	<stop  offset="0.021" style="stop-color:#03EFFE"/>
	<stop  offset="0.293" style="stop-color:#24D2FE"/>
	<stop  offset="0.554" style="stop-color:#3CBDFE"/>
	<stop  offset="0.796" style="stop-color:#4AB0FE"/>
	<stop  offset="1" style="stop-color:#4FACFE"/>
</linearGradient>
<path style="fill:url(#SVGID_1_);" d="M260.947,512c-34.306,0.001-67.686-6.63-99.301-19.732
	c-31.885-13.213-60.501-32.362-85.054-56.916c-24.537-24.538-43.672-53.129-56.875-84.98C6.01,317.306-0.608,282.303,0.045,246.336
	C1.062,190.345,19.561,137.27,53.544,92.849c33.369-43.62,78.632-75.134,130.898-91.136c16.518-5.057,33.871,1.327,43.174,15.887
	c9.316,14.584,7.815,33.042-3.737,45.928c-36.692,40.929-58.7,90.851-58.871,133.541c-0.037,9.295,0.896,18.466,2.771,27.253
	c12.808,60.002,59.923,107.054,120.031,119.873c9.018,1.923,18.458,2.867,28.061,2.796c63.94-0.449,118.279-44.218,133.411-57.623
	c12.832-11.366,31.126-12.758,45.522-3.462c14.289,9.226,20.505,26.339,15.466,42.582c-8.256,26.618-20.704,51.645-36.997,74.385
	c-6.434,8.98-18.93,11.041-27.907,4.609c-8.979-6.434-11.043-18.928-4.609-27.907c12.098-16.884,21.689-35.251,28.575-54.705
	c-14.776,12.312-36.381,27.819-63.596,40.491c-30.384,14.147-60.524,21.425-89.585,21.629c-12.467,0.089-24.838-1.148-36.684-3.675
	c-36.876-7.863-70.613-26.245-97.564-53.155c-26.968-26.927-45.379-60.638-53.246-97.489c-2.471-11.579-3.7-23.611-3.652-35.762
	c0.281-70.088,42.024-128.467,64.459-154.787C101.47,72.118,41.736,153.601,40.04,247.063
	c-1.095,60.274,21.933,117.099,64.838,160.006c42.941,42.942,99.821,65.985,160.189,64.894c36.918-0.67,71.947-10.218,104.113-28.38
	c9.618-5.432,21.819-2.037,27.25,7.582s2.036,21.819-7.583,27.25c-38.017,21.466-79.418,32.751-123.055,33.542
	C264.177,511.986,262.558,512,260.947,512z"/>
<g>
</g>
<g>
</g>
<g>
</g>
<g>
</g>
<g>
</g>
<g>
</g>
<g>
</g>
<g>
</g>
<g>
</g>
<g>
</g>
<g>
</g>
<g>
</g>
<g>
</g>
<g>
</g>
<g>
</g>
</svg>
