<?xml version="1.0" encoding="iso-8859-1"?>
<!-- Generator: Adobe Illustrator 19.0.0, SVG Export Plug-In . SVG Version: 6.00 Build 0)  -->
<svg version="1.1" id="Capa_1" xmlns="http://www.w3.org/2000/svg" xmlns:xlink="http://www.w3.org/1999/xlink" x="0px" y="0px"
	 viewBox="0 0 512 512" style="enable-background:new 0 0 512 512;" xml:space="preserve">
<linearGradient id="SVGID_1_" gradientUnits="userSpaceOnUse" x1="0" y1="258.0002" x2="512.0005" y2="258.0002" gradientTransform="matrix(1 0 0 -1 0 514.0005)">
	<stop  offset="0" style="stop-color:#00F2FE"/>
	<stop  offset="0.021" style="stop-color:#03EFFE"/>
	<stop  offset="0.293" style="stop-color:#24D2FE"/>
	<stop  offset="0.554" style="stop-color:#3CBDFE"/>
	<stop  offset="0.796" style="stop-color:#4AB0FE"/>
	<stop  offset="1" style="stop-color:#4FACFE"/>
</linearGradient>
<path style="fill:url(#SVGID_1_);" d="M162.236,55.811C180.044,21.385,215.973,0,256,0c57.897,0,105,47.103,105,105v123
	c0,11.046-8.954,20-20,20s-20-8.954-20-20V105c0-35.841-29.159-65-65-65c-25.012,0-47.327,13.101-58.236,34.189
	c-5.075,9.811-17.142,13.649-26.954,8.575C161,77.689,157.161,65.622,162.236,55.811z M409.894,322.205
	c1.864,0.542,3.744,0.8,5.592,0.8c8.668,0,16.654-5.68,19.196-14.422C439.538,291.878,442,274.523,442,257c0-11.046-8.954-20-20-20
	s-20,8.954-20,20c0,13.744-1.927,27.342-5.729,40.417C393.188,308.023,399.287,319.122,409.894,322.205z M506.142,506.142
	C502.237,510.047,497.119,512,492,512s-10.237-1.953-14.142-5.858L372.867,401.151c-27.868,22.496-61.303,36.263-96.867,39.886V472
	h61c11.046,0,20,8.954,20,20s-8.954,20-20,20H177c-11.046,0-20-8.954-20-20s8.954-20,20-20h59v-31.074
	C143.361,430.923,71,352.253,71,257c0-11.046,8.954-20,20-20s20,8.954,20,20c0,79.953,65.047,145,145,145
	c0.167,0,0.334,0.002,0.5,0.006c0.166-0.004,0.333-0.006,0.5-0.006c31.904,0,62.306-10.307,87.374-29.342l-29.02-29.02
	C297.996,355.569,277.444,362,256,362c-57.897,0-105-47.103-105-105v-77.716L5.858,34.142c-7.811-7.811-7.811-20.474,0-28.284
	s20.474-7.811,28.284,0l472,472C513.953,485.668,513.953,498.332,506.142,506.142z M286.265,314.549L191,219.284V257
	c0,35.841,29.159,65,65,65C266.696,322,277.032,319.416,286.265,314.549z"/>
<g>
</g>
<g>
</g>
<g>
</g>
<g>
</g>
<g>
</g>
<g>
</g>
<g>
</g>
<g>
</g>
<g>
</g>
<g>
</g>
<g>
</g>
<g>
</g>
<g>
</g>
<g>
</g>
<g>
</g>
</svg>
