<?xml version="1.0" encoding="iso-8859-1"?>
<!-- Generator: Adobe Illustrator 19.0.0, SVG Export Plug-In . SVG Version: 6.00 Build 0)  -->
<svg version="1.1" id="Capa_1" xmlns="http://www.w3.org/2000/svg" xmlns:xlink="http://www.w3.org/1999/xlink" x="0px" y="0px"
	 viewBox="0 0 512 512" style="enable-background:new 0 0 512 512;" xml:space="preserve">
<linearGradient id="SVGID_1_" gradientUnits="userSpaceOnUse" x1="40" y1="258" x2="472" y2="258" gradientTransform="matrix(1 0 0 -1 0 514)">
	<stop  offset="0" style="stop-color:#00F2FE"/>
	<stop  offset="0.021" style="stop-color:#03EFFE"/>
	<stop  offset="0.293" style="stop-color:#24D2FE"/>
	<stop  offset="0.554" style="stop-color:#3CBDFE"/>
	<stop  offset="0.796" style="stop-color:#4AB0FE"/>
	<stop  offset="1" style="stop-color:#4FACFE"/>
</linearGradient>
<path style="fill:url(#SVGID_1_);" d="M452,174.098h-20.003c-0.233-46.645-18.54-90.334-51.61-123.111
	C347.215,18.107,303.04,0,256,0s-91.215,18.107-124.388,50.986c-33.07,32.777-51.376,76.467-51.61,123.111H60
	c-11.046,0-20,8.954-20,20s8.954,20,20,20h20V432c0,44.112,35.888,80,80,80h192c44.112,0,80-35.888,80-80c0-11.046-8.954-20-20-20
	s-20,8.954-20,20c0,22.056-17.944,40-40,40H160c-22.056,0-40-17.944-40-40V214.098h272V332c0,11.046,8.954,20,20,20s20-8.954,20-20
	V214.098h20c11.046,0,20-8.954,20-20S463.046,174.098,452,174.098z M256,40c74.688,0,135.506,60.072,135.997,134.098H120.003
	C120.494,100.072,181.313,40,256,40z M180,271c-11.046,0-20,8.954-20,20v100c0,11.046,8.954,20,20,20h152c11.046,0,20-8.954,20-20
	V291c0-11.046-8.954-20-20-20H180z M312,371H200v-60h112V371z"/>
<g>
</g>
<g>
</g>
<g>
</g>
<g>
</g>
<g>
</g>
<g>
</g>
<g>
</g>
<g>
</g>
<g>
</g>
<g>
</g>
<g>
</g>
<g>
</g>
<g>
</g>
<g>
</g>
<g>
</g>
</svg>
