<?xml version="1.0" encoding="iso-8859-1"?>
<!-- Generator: Adobe Illustrator 19.0.0, SVG Export Plug-In . SVG Version: 6.00 Build 0)  -->
<svg version="1.1" id="Capa_1" xmlns="http://www.w3.org/2000/svg" xmlns:xlink="http://www.w3.org/1999/xlink" x="0px" y="0px"
	 viewBox="0 0 512 512" style="enable-background:new 0 0 512 512;" xml:space="preserve">
<linearGradient id="SVGID_1_" gradientUnits="userSpaceOnUse" x1="0" y1="258" x2="512" y2="258" gradientTransform="matrix(1 0 0 -1 0 514)">
	<stop  offset="0" style="stop-color:#00F2FE"/>
	<stop  offset="0.021" style="stop-color:#03EFFE"/>
	<stop  offset="0.293" style="stop-color:#24D2FE"/>
	<stop  offset="0.554" style="stop-color:#3CBDFE"/>
	<stop  offset="0.796" style="stop-color:#4AB0FE"/>
	<stop  offset="1" style="stop-color:#4FACFE"/>
</linearGradient>
<path style="fill:url(#SVGID_1_);" d="M512,256c0,50.53-14.998,99.672-43.373,142.116c-6.14,9.182-18.558,11.651-27.742,5.511
	c-9.183-6.139-11.65-18.56-5.512-27.742C459.335,340.044,472,298.588,472,256c0-119.103-96.897-216-216-216S40,136.897,40,256
	s96.897,216,216,216c39.502,0,78.141-10.756,111.738-31.106c9.444-5.724,21.745-2.703,27.468,6.745s2.703,21.746-6.745,27.468
	C348.615,499.243,302.81,512,256,512c-68.38,0-132.667-26.629-181.019-74.981S0,324.38,0,256S26.629,123.332,74.981,74.98
	S187.62,0,256,0s132.667,26.628,181.02,74.98C485.371,123.332,512,187.62,512,256z M395,201c0-11.046-8.954-20-20-20h-60
	c-11.046,0-20,8.954-20,20s8.954,20,20,20h60C386.046,221,395,212.045,395,201z M168,191c5.514,0,10,4.486,10,10
	c0,11.046,8.954,20,20,20s20-8.954,20-20c0-27.57-22.43-50-50-50s-50,22.43-50,50c0,11.046,8.954,20,20,20s20-8.954,20-20
	C158,195.485,162.487,191,168,191z M361.004,301.946c0,4.878-1.75,9.345-4.652,12.817l0.027,0.023
	c-0.918,1.105-13.726,18.133-40.855,30.22l0.521,32.073c0.493,33.108-26.019,60.422-59.099,60.915
	c-0.303,0.005-0.605,0.007-0.907,0.007c-32.671,0-59.492-26.329-59.98-59.106l-0.508-34.074
	c-26.84-12.091-39.063-28.984-39.973-30.085l0.016-0.013c-2.88-3.465-4.615-7.917-4.615-12.775c0-11.047,8.956-20.003,20.003-20.003
	c6.305,0,11.921,2.924,15.587,7.482C189.331,292.508,212.639,317,256,317c42.667,0,66.081-23.906,69.354-27.495
	c3.665-4.603,9.306-7.562,15.646-7.562C352.048,281.943,361.004,290.899,361.004,301.946z M275.695,355.833
	C269.516,356.583,262.954,357,256,357c-7.186,0-13.941-0.431-20.281-1.204l0.335,22.502c0.163,11.027,9.315,19.846,20.296,19.7
	c5.342-0.08,10.332-2.235,14.053-6.068s5.727-8.886,5.646-14.228L275.695,355.833z"/>
<g>
</g>
<g>
</g>
<g>
</g>
<g>
</g>
<g>
</g>
<g>
</g>
<g>
</g>
<g>
</g>
<g>
</g>
<g>
</g>
<g>
</g>
<g>
</g>
<g>
</g>
<g>
</g>
<g>
</g>
</svg>
