<?xml version="1.0" encoding="iso-8859-1"?>
<!-- Generator: Adobe Illustrator 19.0.0, SVG Export Plug-In . SVG Version: 6.00 Build 0)  -->
<svg version="1.1" id="Capa_1" xmlns="http://www.w3.org/2000/svg" xmlns:xlink="http://www.w3.org/1999/xlink" x="0px" y="0px"
	 viewBox="0 0 512 512" style="enable-background:new 0 0 512 512;" xml:space="preserve">
<linearGradient id="SVGID_1_" gradientUnits="userSpaceOnUse" x1="0" y1="258" x2="512" y2="258" gradientTransform="matrix(1 0 0 -1 0 514)">
	<stop  offset="0" style="stop-color:#00F2FE"/>
	<stop  offset="0.021" style="stop-color:#03EFFE"/>
	<stop  offset="0.293" style="stop-color:#24D2FE"/>
	<stop  offset="0.554" style="stop-color:#3CBDFE"/>
	<stop  offset="0.796" style="stop-color:#4AB0FE"/>
	<stop  offset="1" style="stop-color:#4FACFE"/>
</linearGradient>
<path style="fill:url(#SVGID_1_);" d="M256,512c-68.38,0-132.667-26.629-181.02-74.98C26.629,388.667,0,324.38,0,256
	S26.629,123.333,74.98,74.98C123.333,26.629,187.62,0,256,0s132.667,26.629,181.02,74.98C485.371,123.333,512,187.62,512,256
	c0,50.531-14.998,99.674-43.374,142.116c-6.138,9.182-18.559,11.651-27.742,5.511c-9.182-6.139-11.649-18.56-5.51-27.742
	C459.335,340.044,472,298.589,472,256c0-119.103-96.897-216-216-216S40,136.897,40,256s96.897,216,216,216
	c39.504,0,78.143-10.756,111.737-31.106c9.446-5.723,21.745-2.704,27.469,6.745c5.723,9.447,2.703,21.746-6.744,27.468
	C348.616,499.243,302.812,512,256,512z M303.85,376.902C317.927,365.64,326,349.638,326,333s-8.073-32.64-22.15-43.902
	C290.873,278.717,273.88,273,256,273s-34.873,5.717-47.85,16.098C194.073,300.36,186,316.362,186,333s8.073,32.64,22.15,43.902
	C221.127,387.283,238.12,393,256,393S290.873,387.283,303.85,376.902z M286,333c0,10.654-14.019,20-30,20s-30-9.346-30-20
	s14.019-20,30-20S286,322.346,286,333z M395,201c0-19.071-3.87-37.315-10.898-51.371C375.005,131.435,360.753,121,345,121
	s-30.005,10.435-39.102,28.629C298.87,163.685,295,181.929,295,201c0,11.046,8.954,20,20,20s20-8.954,20-20
	c0-20.749,6.112-34.262,10-38.831c3.888,4.569,10,18.082,10,38.831c0,11.046,8.954,20,20,20S395,212.046,395,201z M218,201
	c0-19.071-3.87-37.315-10.898-51.371C198.005,131.435,183.753,121,168,121s-30.005,10.435-39.102,28.629
	C121.87,163.685,118,181.929,118,201c0,11.046,8.954,20,20,20s20-8.954,20-20c0-20.749,6.112-34.262,10-38.831
	c3.888,4.569,10,18.082,10,38.831c0,11.046,8.954,20,20,20S218,212.046,218,201z"/>
<g>
</g>
<g>
</g>
<g>
</g>
<g>
</g>
<g>
</g>
<g>
</g>
<g>
</g>
<g>
</g>
<g>
</g>
<g>
</g>
<g>
</g>
<g>
</g>
<g>
</g>
<g>
</g>
<g>
</g>
</svg>
