<?xml version="1.0" encoding="iso-8859-1"?>
<!-- Generator: Adobe Illustrator 19.0.0, SVG Export Plug-In . SVG Version: 6.00 Build 0)  -->
<svg version="1.1" id="Capa_1" xmlns="http://www.w3.org/2000/svg" xmlns:xlink="http://www.w3.org/1999/xlink" x="0px" y="0px"
	 viewBox="0 0 511.999 511.999" style="enable-background:new 0 0 511.999 511.999;" xml:space="preserve">
<linearGradient id="SVGID_1_" gradientUnits="userSpaceOnUse" x1="2.862243e-004" y1="257.9973" x2="512.0023" y2="257.9973" gradientTransform="matrix(1 0 0 -1 -2.862226e-004 513.9953)">
	<stop  offset="0" style="stop-color:#00F2FE"/>
	<stop  offset="0.021" style="stop-color:#03EFFE"/>
	<stop  offset="0.293" style="stop-color:#24D2FE"/>
	<stop  offset="0.554" style="stop-color:#3CBDFE"/>
	<stop  offset="0.796" style="stop-color:#4AB0FE"/>
	<stop  offset="1" style="stop-color:#4FACFE"/>
</linearGradient>
<path style="fill:url(#SVGID_1_);" d="M492.531,466.131l-0.519,0.577c-0.239,0.267-0.485,0.526-0.739,0.78
	c-29.131,29.132-69.826,44.51-117.739,44.511c-0.374,0-0.747-0.001-1.122-0.002c-35.468-0.177-75.35-9.387-115.332-26.633
	c-10.142-4.375-14.818-16.144-10.443-26.286c4.375-10.143,16.144-14.819,26.286-10.443c35.084,15.133,69.557,23.211,99.689,23.362
	c0.304,0.002,0.609,0.002,0.912,0.002c36.871,0,67.652-11.204,89.101-32.433l0.141-0.157c13.046-14.535,12.252-36.545-1.811-50.105
	c-53.701-51.783-79.053-48.028-102.517-25.145l-37.346,37.068c-5.858,5.814-14.687,7.434-22.226,4.075
	c-2.114-0.941-52.428-23.709-109.125-80.408l-2.632-2.629c-56.706-56.706-79.473-107.018-80.415-109.132
	c-3.358-7.54-1.739-16.368,4.075-22.226l37.075-37.353c22.88-23.463,26.63-48.814-25.151-102.511
	c-13.56-14.062-35.57-14.856-50.108-1.808l-0.153,0.138c-21.404,21.626-32.617,52.739-32.431,90.014
	C40.36,211.24,81.095,294.683,148.98,362.645c0.063,0.061,0.125,0.123,0.187,0.185c12.963,12.963,27.768,25.848,44.004,38.296
	c8.766,6.721,10.423,19.275,3.702,28.041c-6.722,8.765-19.276,10.423-28.041,3.702c-17.54-13.449-33.607-27.432-47.757-41.563
	c-0.064-0.063-0.129-0.126-0.192-0.19C45.602,315.838,0.413,221.808,0.003,139.589C-0.239,91.187,15.151,50.085,44.511,20.727
	c0.253-0.253,0.513-0.5,0.78-0.739l0.574-0.516C60.614,6.233,79.648-0.661,99.446,0.051c19.803,0.714,38.285,8.964,52.041,23.229
	c26.934,27.931,42.481,51.333,48.929,73.646c8.886,30.749,0.805,59.227-24.016,84.641c-0.038,0.039-0.076,0.077-0.113,0.115
	l-26.84,27.041c9.516,16.881,30.432,49.747,65.939,85.253l2.632,2.63c35.744,35.744,68.424,56.527,85.235,65.971l27.066-26.865
	c0.038-0.038,0.077-0.076,0.115-0.113c25.414-24.821,53.892-32.903,84.64-24.016c22.314,6.448,45.715,21.996,73.646,48.929
	c14.265,13.756,22.514,32.238,23.229,52.042C512.663,432.356,505.767,451.383,492.531,466.131z M327.858,184.142
	C331.763,188.047,336.881,190,342,190s10.237-1.953,14.142-5.858l60.858-60.858l60.858,60.858c3.905,3.905,9.023,5.858,14.142,5.858
	s10.237-1.953,14.142-5.858c7.811-7.811,7.811-20.474,0-28.284l-60.858-60.858l60.858-60.858c7.811-7.811,7.811-20.474,0-28.284
	s-20.474-7.811-28.284,0l-60.858,60.858L356.142,5.86c-7.811-7.811-20.474-7.811-28.284,0c-7.81,7.811-7.811,20.474,0,28.284
	l60.858,60.858l-60.858,60.858C320.048,163.669,320.048,176.332,327.858,184.142z"/>
<g>
</g>
<g>
</g>
<g>
</g>
<g>
</g>
<g>
</g>
<g>
</g>
<g>
</g>
<g>
</g>
<g>
</g>
<g>
</g>
<g>
</g>
<g>
</g>
<g>
</g>
<g>
</g>
<g>
</g>
</svg>
