<?xml version="1.0" encoding="iso-8859-1"?>
<!-- Generator: Adobe Illustrator 19.0.0, SVG Export Plug-In . SVG Version: 6.00 Build 0)  -->
<svg version="1.1" id="Capa_1" xmlns="http://www.w3.org/2000/svg" xmlns:xlink="http://www.w3.org/1999/xlink" x="0px" y="0px"
	 viewBox="0 0 512.001 512.001" style="enable-background:new 0 0 512.001 512.001;" xml:space="preserve">
<linearGradient id="SVGID_1_" gradientUnits="userSpaceOnUse" x1="0" y1="258.0005" x2="512.001" y2="258.0005" gradientTransform="matrix(1 0 0 -1 0 514.001)">
	<stop  offset="0" style="stop-color:#00F2FE"/>
	<stop  offset="0.021" style="stop-color:#03EFFE"/>
	<stop  offset="0.293" style="stop-color:#24D2FE"/>
	<stop  offset="0.554" style="stop-color:#3CBDFE"/>
	<stop  offset="0.796" style="stop-color:#4AB0FE"/>
	<stop  offset="1" style="stop-color:#4FACFE"/>
</linearGradient>
<path style="fill:url(#SVGID_1_);" d="M492,471.981H234.001l188.016-184.734c7.879-7.741,7.99-20.404,0.249-28.283
	c-7.742-7.879-20.405-7.99-28.283-0.249l-50.084,49.21l-139.96-139.763L320.277,51.697c15.597-15.596,40.973-15.596,56.569,0
	l83.438,83.438c15.596,15.596,15.596,40.973,0,56.569c-7.811,7.811-7.811,20.474,0,28.284s20.474,7.811,28.284,0
	c31.192-31.192,31.192-81.945,0-113.137L405.13,23.412C373.938-7.78,323.186-7.78,291.985,23.42L23.432,292.267
	C8.322,307.378,0,327.466,0,348.835c0,21.312,8.277,41.351,23.311,56.447l80.59,83.166c0.086,0.089,0.174,0.178,0.262,0.265
	c14.948,14.861,34.788,23.124,55.865,23.266c0.186,0.001,0.368,0.002,0.553,0.002c0.986,0,1.97-0.018,2.951-0.053
	c0.485,0.035,0.975,0.053,1.469,0.053h327c11.046,0,20-8.954,20-20S503.046,471.981,492,471.981z M51.937,377.344
	c-0.073-0.075-0.146-0.15-0.221-0.224C44.161,369.564,40,359.52,40,348.835c0-10.685,4.161-20.729,11.724-28.292l123.947-124.082
	L315.365,335.96L188.337,460.77c-15.51,14.962-40.518,14.816-55.855-0.308L51.937,377.344z"/>
<g>
</g>
<g>
</g>
<g>
</g>
<g>
</g>
<g>
</g>
<g>
</g>
<g>
</g>
<g>
</g>
<g>
</g>
<g>
</g>
<g>
</g>
<g>
</g>
<g>
</g>
<g>
</g>
<g>
</g>
</svg>
