<?xml version="1.0" encoding="iso-8859-1"?>
<!-- Generator: Adobe Illustrator 19.0.0, SVG Export Plug-In . SVG Version: 6.00 Build 0)  -->
<svg version="1.1" id="Capa_1" xmlns="http://www.w3.org/2000/svg" xmlns:xlink="http://www.w3.org/1999/xlink" x="0px" y="0px"
	 viewBox="0 0 512 512" style="enable-background:new 0 0 512 512;" xml:space="preserve">
<linearGradient id="SVGID_1_" gradientUnits="userSpaceOnUse" x1="20.4949" y1="258" x2="491.5051" y2="258" gradientTransform="matrix(1 0 0 -1 0 514)">
	<stop  offset="0" style="stop-color:#00F2FE"/>
	<stop  offset="0.021" style="stop-color:#03EFFE"/>
	<stop  offset="0.293" style="stop-color:#24D2FE"/>
	<stop  offset="0.554" style="stop-color:#3CBDFE"/>
	<stop  offset="0.796" style="stop-color:#4AB0FE"/>
	<stop  offset="1" style="stop-color:#4FACFE"/>
</linearGradient>
<path style="fill:url(#SVGID_1_);" d="M330.666,456.88c7.798,7.823,7.777,20.486-0.046,28.284
	c-3.902,3.891-9.012,5.835-14.119,5.835c-5.13,0-10.257-1.96-14.165-5.88c-6.09-6.11-15.901-15.951-25.835-25.915V492
	c0,11.046-8.954,20-20,20s-20-8.954-20-20v-33.347l-26.956,26.586c-3.896,3.843-8.972,5.761-14.043,5.761
	c-5.165,0-10.327-1.988-14.24-5.956c-7.757-7.864-7.669-20.527,0.195-28.283l55.044-54.289V290.624l-95.887,56.898l-19.782,74.607
	c-2.377,8.958-10.469,14.875-19.318,14.875c-1.698,0-3.423-0.218-5.143-0.674c-10.676-2.833-17.034-13.784-14.201-24.46
	c2.204-8.306,5.749-21.667,9.341-35.212L63.636,393.2c-3.201,1.899-6.717,2.803-10.188,2.803c-6.828,0-13.481-3.499-17.219-9.797
	c-5.637-9.499-2.505-21.769,6.994-27.406l28.435-16.873l-36.271-9.592c-10.679-2.824-17.046-13.771-14.222-24.449
	c2.822-10.678,13.763-17.048,24.448-14.222l74.276,19.643l97.353-57.768l-96.692-57.115l-75.155,18.967
	c-1.643,0.414-3.29,0.613-4.909,0.613c-8.944,0-17.089-6.043-19.377-15.111c-2.703-10.71,3.788-21.583,14.497-24.286l36.01-9.088
	l-29.287-17.3c-9.511-5.618-12.666-17.881-7.049-27.392c5.618-9.511,17.883-12.666,27.393-7.048l28.852,17.043
	c-3.603-13.748-7.161-27.32-9.371-35.751c-2.801-10.685,3.59-21.617,14.275-24.418c10.684-2.801,21.616,3.589,24.418,14.274
	l19.59,74.786l96.063,56.744V109.532l-55.048-54.296c-7.862-7.758-7.946-20.421-0.188-28.284c7.759-7.862,20.421-7.947,28.284-0.189
	c6.332,6.248,16.62,16.399,26.952,26.592V20c0-11.046,8.954-20,20-20s20,8.954,20,20v33.347l26.956-26.586
	c7.862-7.757,20.528-7.67,28.283,0.195c7.757,7.864,7.669,20.527-0.195,28.283l-55.043,54.289v110.848l96.076-57.01l18.536-73.275
	c2.711-10.707,13.591-17.19,24.297-14.479c10.708,2.711,17.191,13.589,14.48,24.297c-2.074,8.191-5.392,21.3-8.771,34.654
	l28.248-16.762c9.5-5.636,21.77-2.506,27.406,6.994c5.637,9.499,2.505,21.769-6.994,27.406l-29.771,17.665l36.665,9.815
	c10.67,2.856,17.004,13.822,14.147,24.492c-2.392,8.937-10.475,14.833-19.307,14.833c-1.713,0-3.451-0.221-5.185-0.685
	l-74.41-19.919l-115.417,68.486v135.675l24.171,24.231L330.666,456.88z M466.329,293.68l-72.851,19.502l-50.805-30.01
	c-9.51-5.617-21.774-2.463-27.392,7.048c-5.618,9.511-2.463,21.774,7.048,27.392l49.926,29.49l19.899,75.969
	c2.356,8.985,10.46,14.933,19.333,14.933c1.679,0,3.386-0.213,5.085-0.659c10.686-2.801,17.076-13.733,14.275-24.418
	c-2.273-8.672-5.973-22.786-9.681-36.934l29.162,17.226c3.192,1.886,6.695,2.783,10.153,2.783c6.842,0,13.507-3.513,17.238-9.831
	c5.618-9.511,2.463-21.774-7.048-27.392l-28.954-17.103l34.954-9.357c10.67-2.856,17.004-13.822,14.147-24.492
	C487.964,297.158,476.995,290.822,466.329,293.68z"/>
<g>
</g>
<g>
</g>
<g>
</g>
<g>
</g>
<g>
</g>
<g>
</g>
<g>
</g>
<g>
</g>
<g>
</g>
<g>
</g>
<g>
</g>
<g>
</g>
<g>
</g>
<g>
</g>
<g>
</g>
</svg>
