<?xml version="1.0" encoding="iso-8859-1"?>
<!-- Generator: Adobe Illustrator 19.0.0, SVG Export Plug-In . SVG Version: 6.00 Build 0)  -->
<svg version="1.1" id="Capa_1" xmlns="http://www.w3.org/2000/svg" xmlns:xlink="http://www.w3.org/1999/xlink" x="0px" y="0px"
	 viewBox="0 0 512 512" style="enable-background:new 0 0 512 512;" xml:space="preserve">
<linearGradient id="SVGID_1_" gradientUnits="userSpaceOnUse" x1="0" y1="258" x2="512" y2="258" gradientTransform="matrix(1 0 0 -1 0 514)">
	<stop  offset="0" style="stop-color:#00F2FE"/>
	<stop  offset="0.021" style="stop-color:#03EFFE"/>
	<stop  offset="0.293" style="stop-color:#24D2FE"/>
	<stop  offset="0.554" style="stop-color:#3CBDFE"/>
	<stop  offset="0.796" style="stop-color:#4AB0FE"/>
	<stop  offset="1" style="stop-color:#4FACFE"/>
</linearGradient>
<path style="fill:url(#SVGID_1_);" d="M512,256c0,11.046-8.954,20-20,20h-20c-11.046,0-20-8.954-20-20s8.954-20,20-20h20
	C503.046,236,512,244.954,512,256z M256,80c11.046,0,20-8.954,20-20V20c0-11.046-8.954-20-20-20s-20,8.954-20,20v40
	C236,71.046,244.954,80,256,80z M60,256c0-11.046-8.954-20-20-20H20c-11.046,0-20,8.954-20,20c0,11.046,8.954,20,20,20h20
	C51.046,276,60,267.046,60,256z M256,432c-11.046,0-20,8.954-20,20v40c0,11.046,8.954,20,20,20c11.046,0,20-8.954,20-20v-40
	C276,440.954,267.046,432,256,432z M44.164,150.069l34.138,20.848c3.254,1.987,6.852,2.934,10.405,2.934
	c6.739,0,13.317-3.407,17.087-9.579c5.758-9.427,2.782-21.736-6.645-27.493l-34.138-20.848c-9.426-5.757-21.734-2.782-27.492,6.645
	C31.762,132.003,34.737,144.312,44.164,150.069z M467.836,361.931l-34.138-20.848c-9.426-5.756-21.735-2.782-27.492,6.645
	c-5.758,9.427-2.782,21.736,6.645,27.493l34.138,20.848c3.254,1.987,6.852,2.934,10.405,2.934c6.739,0,13.317-3.407,17.087-9.579
	C480.238,379.997,477.263,367.688,467.836,361.931z M381.421,432.99c-5.528-9.563-17.764-12.833-27.324-7.305
	c-9.563,5.528-12.833,17.762-7.305,27.325l10.01,17.315c3.706,6.411,10.425,9.994,17.333,9.994c3.396,0,6.84-0.867,9.991-2.688
	c9.563-5.528,12.833-17.762,7.305-27.325L381.421,432.99z M358.333,88.836c3.259,1.995,6.863,2.945,10.424,2.945
	c6.731,0,13.304-3.399,17.076-9.561l10.442-17.058c5.767-9.421,2.806-21.733-6.615-27.5c-9.42-5.767-21.732-2.805-27.5,6.615
	l-10.442,17.058C345.951,70.757,348.912,83.069,358.333,88.836z M130.667,78.947c3.705,6.416,10.427,10.002,17.339,10.002
	c3.394,0,6.833-0.865,9.982-2.684c9.565-5.523,12.843-17.755,7.319-27.321l-10.001-17.32c-5.524-9.566-17.756-12.842-27.321-7.319
	s-12.843,17.755-7.319,27.321L130.667,78.947z M153.339,422.963c-9.408-5.784-21.727-2.849-27.513,6.562l-10.476,17.037
	c-5.785,9.409-2.848,21.727,6.562,27.513c3.268,2.009,6.883,2.966,10.457,2.966c6.717,0,13.279-3.385,17.056-9.527l10.476-17.037
	C165.686,441.066,162.748,428.749,153.339,422.963z M425.277,177.173c3.425,0,6.896-0.881,10.066-2.732l34.543-20.169
	c9.538-5.57,12.756-17.817,7.187-27.356c-5.57-9.54-17.817-12.755-27.356-7.187l-34.543,20.169
	c-9.538,5.57-12.756,17.817-7.187,27.356C411.706,173.622,418.399,177.173,425.277,177.173z M76.656,337.559l-34.543,20.169
	c-9.538,5.57-12.756,17.817-7.187,27.356c3.719,6.368,10.412,9.919,17.29,9.919c3.425,0,6.896-0.881,10.066-2.732l34.543-20.169
	c9.538-5.57,12.756-17.817,7.187-27.356C98.442,335.207,86.195,331.99,76.656,337.559z M256,100c-86.019,0-156,69.981-156,156
	s69.981,156,156,156c19.266,0,38.082-3.476,55.926-10.33c10.312-3.961,15.459-15.531,11.498-25.842s-15.533-15.458-25.842-11.498
	C284.334,369.419,270.344,372,256,372c-63.963,0-116-52.038-116-116s52.037-116,116-116s116,52.038,116,116
	c0,16.009-3.194,31.503-9.495,46.052c-4.39,10.136,0.269,21.911,10.404,26.301c10.137,4.389,21.911-0.268,26.301-10.404
	C407.697,298.353,412,277.51,412,256C412,169.981,342.019,100,256,100z"/>
<g>
</g>
<g>
</g>
<g>
</g>
<g>
</g>
<g>
</g>
<g>
</g>
<g>
</g>
<g>
</g>
<g>
</g>
<g>
</g>
<g>
</g>
<g>
</g>
<g>
</g>
<g>
</g>
<g>
</g>
</svg>
