<?xml version="1.0" encoding="iso-8859-1"?>
<!-- Generator: Adobe Illustrator 19.0.0, SVG Export Plug-In . SVG Version: 6.00 Build 0)  -->
<svg version="1.1" id="Capa_1" xmlns="http://www.w3.org/2000/svg" xmlns:xlink="http://www.w3.org/1999/xlink" x="0px" y="0px"
	 viewBox="0 0 512 512" style="enable-background:new 0 0 512 512;" xml:space="preserve">
<linearGradient id="SVGID_1_" gradientUnits="userSpaceOnUse" x1="71" y1="258" x2="441" y2="258" gradientTransform="matrix(1 0 0 -1 0 514)">
	<stop  offset="0" style="stop-color:#00F2FE"/>
	<stop  offset="0.021" style="stop-color:#03EFFE"/>
	<stop  offset="0.293" style="stop-color:#24D2FE"/>
	<stop  offset="0.554" style="stop-color:#3CBDFE"/>
	<stop  offset="0.796" style="stop-color:#4AB0FE"/>
	<stop  offset="1" style="stop-color:#4FACFE"/>
</linearGradient>
<path style="fill:url(#SVGID_1_);" d="M151,256V105C151,47.103,198.103,0,256,0s105,47.103,105,105v51c0,11.046-8.954,20-20,20
	s-20-8.954-20-20v-51c0-35.841-29.159-65-65-65s-65,29.159-65,65v151c0,35.841,29.159,65,65,65s65-29.159,65-65
	c0-11.046,8.954-20,20-20s20,8.954,20,20c0,57.897-47.103,105-105,105S151,313.897,151,256z M441,256c0-11.046-8.954-20-20-20
	s-20,8.954-20,20c0,79.953-65.047,145-145,145s-145-65.047-145-145c0-11.046-8.954-20-20-20s-20,8.954-20,20
	c0,95.253,72.361,173.923,165,183.926V472h-59c-11.046,0-20,8.954-20,20s8.954,20,20,20h160c11.046,0,20-8.954,20-20
	s-8.954-20-20-20h-61v-32.074C368.639,429.923,441,351.253,441,256z"/>
<g>
</g>
<g>
</g>
<g>
</g>
<g>
</g>
<g>
</g>
<g>
</g>
<g>
</g>
<g>
</g>
<g>
</g>
<g>
</g>
<g>
</g>
<g>
</g>
<g>
</g>
<g>
</g>
<g>
</g>
</svg>
