<?xml version="1.0" encoding="iso-8859-1"?>
<!-- Generator: Adobe Illustrator 19.0.0, SVG Export Plug-In . SVG Version: 6.00 Build 0)  -->
<svg version="1.1" id="Capa_1" xmlns="http://www.w3.org/2000/svg" xmlns:xlink="http://www.w3.org/1999/xlink" x="0px" y="0px"
	 viewBox="0 0 512 512" style="enable-background:new 0 0 512 512;" xml:space="preserve">
<linearGradient id="SVGID_1_" gradientUnits="userSpaceOnUse" x1="60.5005" y1="258" x2="451.4995" y2="258" gradientTransform="matrix(1 0 0 -1 0 514)">
	<stop  offset="0" style="stop-color:#00F2FE"/>
	<stop  offset="0.021" style="stop-color:#03EFFE"/>
	<stop  offset="0.293" style="stop-color:#24D2FE"/>
	<stop  offset="0.554" style="stop-color:#3CBDFE"/>
	<stop  offset="0.796" style="stop-color:#4AB0FE"/>
	<stop  offset="1" style="stop-color:#4FACFE"/>
</linearGradient>
<path style="fill:url(#SVGID_1_);" d="M394.382,56.268C357.791,19.947,309.378,0,257.904,0c-0.438,0-0.887,0.001-1.325,0.004
	C256.13,0.001,255.693,0,255.247,0C203.406,0,154.58,20.15,117.626,56.831c-36.837,36.566-57.125,85.021-57.125,136.437
	c0,77.352,44.406,119.026,76.831,149.455c22.425,21.045,36.169,34.733,36.169,50.277v59c0,33.084,26.916,60,60,60h45
	c33.084,0,60-26.916,60-60v-61c0-0.795-0.047-1.579-0.137-2.349c1.973-11.793,11.945-23.293,28.793-39.318
	c8.004-7.613,8.321-20.272,0.708-28.276c-7.613-8.003-20.272-8.321-28.275-0.708c-16.524,15.717-31.772,31.659-38.276,51.652H275.5
	V202.284l20-20l25.858,25.858c3.905,3.905,9.023,5.858,14.142,5.858s10.237-1.953,14.142-5.858c7.811-7.811,7.811-20.474,0-28.284
	l-40-40c-7.811-7.811-20.474-7.811-28.284,0l-25.858,25.858l-25.858-25.858c-7.811-7.811-20.474-7.811-28.284,0l-40,40
	c-7.811,7.811-7.811,20.474,0,28.284s20.474,7.811,28.284,0l25.858-25.858l20,20V372h-25.305
	c-7.363-22.661-26.008-40.159-45.492-58.445c-31.564-29.622-64.203-60.253-64.203-120.288c0-40.675,16.09-79.048,45.305-108.048
	C175.21,56.031,214.038,40,255.255,40c0.391,0,0.784,0.001,1.175,0.004c0.099,0.001,0.197,0.001,0.296,0
	c0.39-0.003,0.778-0.004,1.168-0.004c40.846,0,79.27,15.833,108.308,44.657c28.211,28.003,44.181,64.937,45.242,104.403
	c-0.291,1.356-0.443,2.765-0.443,4.208c0,23.132-4.647,43.228-14.208,61.437c-5.135,9.78-1.369,21.871,8.41,27.005
	c9.779,5.136,21.871,1.37,27.005-8.41c11.978-22.813,18.125-47.506,18.741-75.348c0.36-1.502,0.551-3.071,0.551-4.684
	C451.5,141.485,431.215,92.831,394.382,56.268z M278.5,472h-45c-11.028,0-20-8.972-20-20v-40h85v40
	C298.5,463.028,289.529,472,278.5,472z"/>
<g>
</g>
<g>
</g>
<g>
</g>
<g>
</g>
<g>
</g>
<g>
</g>
<g>
</g>
<g>
</g>
<g>
</g>
<g>
</g>
<g>
</g>
<g>
</g>
<g>
</g>
<g>
</g>
<g>
</g>
</svg>
