<?xml version="1.0" encoding="iso-8859-1"?>
<!-- Generator: Adobe Illustrator 19.0.0, SVG Export Plug-In . SVG Version: 6.00 Build 0)  -->
<svg version="1.1" id="Capa_1" xmlns="http://www.w3.org/2000/svg" xmlns:xlink="http://www.w3.org/1999/xlink" x="0px" y="0px"
	 viewBox="0 0 512 512" style="enable-background:new 0 0 512 512;" xml:space="preserve">
<linearGradient id="SVGID_1_" gradientUnits="userSpaceOnUse" x1="0" y1="258" x2="512" y2="258" gradientTransform="matrix(1 0 0 -1 0 514)">
	<stop  offset="0" style="stop-color:#00F2FE"/>
	<stop  offset="0.021" style="stop-color:#03EFFE"/>
	<stop  offset="0.293" style="stop-color:#24D2FE"/>
	<stop  offset="0.554" style="stop-color:#3CBDFE"/>
	<stop  offset="0.796" style="stop-color:#4AB0FE"/>
	<stop  offset="1" style="stop-color:#4FACFE"/>
</linearGradient>
<path style="fill:url(#SVGID_1_);" d="M432,512H80c-44.112,0-80-35.888-80-80c0-11.046,8.954-20,20-20s20,8.954,20,20
	c0,22.056,17.944,40,40,40h352c22.056,0,40-17.944,40-40c0-11.046,8.954-20,20-20s20,8.954,20,20C512,476.112,476.112,512,432,512z
	 M408.17,156.114c7.795-7.826,7.771-20.489-0.056-28.284L297.426,17.574C286.094,6.241,271.026,0,255,0s-31.094,6.241-42.426,17.574
	c-0.034,0.034-0.067,0.068-0.101,0.102L103.757,127.959c-7.754,7.866-7.664,20.529,0.203,28.284
	c7.866,7.754,20.53,7.664,28.284-0.203L240.898,45.817C244.671,42.065,249.677,40,255,40c5.342,0,10.364,2.081,14.169,5.886
	L379.886,156.17c3.903,3.888,9.008,5.831,14.114,5.83C399.131,162,404.263,160.037,408.17,156.114z M276,365V120
	c0-11.046-8.954-20-20-20s-20,8.954-20,20v245c0,11.046,8.954,20,20,20C267.046,385,276,376.046,276,365z"/>
<g>
</g>
<g>
</g>
<g>
</g>
<g>
</g>
<g>
</g>
<g>
</g>
<g>
</g>
<g>
</g>
<g>
</g>
<g>
</g>
<g>
</g>
<g>
</g>
<g>
</g>
<g>
</g>
<g>
</g>
</svg>
