<?xml version="1.0" encoding="iso-8859-1"?>
<!-- Generator: Adobe Illustrator 19.0.0, SVG Export Plug-In . SVG Version: 6.00 Build 0)  -->
<svg version="1.1" id="Capa_1" xmlns="http://www.w3.org/2000/svg" xmlns:xlink="http://www.w3.org/1999/xlink" x="0px" y="0px"
	 viewBox="0 0 512 512" style="enable-background:new 0 0 512 512;" xml:space="preserve">
<linearGradient id="SVGID_1_" gradientUnits="userSpaceOnUse" x1="26.3082" y1="258" x2="485.6918" y2="258" gradientTransform="matrix(1 0 0 -1 0 514)">
	<stop  offset="0" style="stop-color:#00F2FE"/>
	<stop  offset="0.021" style="stop-color:#03EFFE"/>
	<stop  offset="0.293" style="stop-color:#24D2FE"/>
	<stop  offset="0.554" style="stop-color:#3CBDFE"/>
	<stop  offset="0.796" style="stop-color:#4AB0FE"/>
	<stop  offset="1" style="stop-color:#4FACFE"/>
</linearGradient>
<path style="fill:url(#SVGID_1_);" d="M236.309,394v-82h-15c-11.046,0-20-8.954-20-20s8.954-20,20-20h35c11.046,0,20,8.954,20,20
	v102c0,11.046-8.954,20-20,20C245.263,414,236.309,405.046,236.309,394z M384.858,228.855c-0.33,0.667-0.691,1.308-1.083,1.922
	C409.638,260.61,425.308,299.51,425.308,342c0,22.352-4.276,44.088-12.711,64.604c-4.199,10.216-15.887,15.094-26.103,10.894
	s-15.093-15.887-10.894-26.103c6.441-15.667,9.707-32.286,9.707-49.396c0-71.682-58.317-130-130-130s-130,58.318-130,130
	s58.317,130,130,130c23.918,0,47.288-6.544,67.585-18.924c9.429-5.753,21.736-2.771,27.489,6.66
	c5.752,9.43,2.771,21.737-6.659,27.489C317.15,503.433,286.577,512,255.309,512c-93.738,0-170-76.262-170-170
	c0-42.937,16.001-82.207,42.353-112.161c-0.181-0.321-0.355-0.649-0.52-0.984l-98.766-200c-3.062-6.199-2.704-13.54,0.945-19.412
	C32.971,3.571,39.395,0,46.309,0h129.383c7.611,0,14.563,4.32,17.933,11.145l37.617,76.175c4.891,9.904,0.827,21.897-9.077,26.788
	c-9.905,4.89-21.897,0.827-26.788-9.077L163.263,40H78.491l80.122,162.247c23.138-16.059,50.437-26.524,79.922-29.425
	l79.841-161.677C321.746,4.32,328.697,0,336.309,0h129.383c6.914,0,13.338,3.571,16.987,9.443s4.007,13.213,0.945,19.412
	L384.858,228.855z M282.481,174.17c25.935,4.184,49.925,14.256,70.551,28.796L433.509,40h-84.771L282.481,174.17z"/>
<g>
</g>
<g>
</g>
<g>
</g>
<g>
</g>
<g>
</g>
<g>
</g>
<g>
</g>
<g>
</g>
<g>
</g>
<g>
</g>
<g>
</g>
<g>
</g>
<g>
</g>
<g>
</g>
<g>
</g>
</svg>
