<?xml version="1.0" encoding="iso-8859-1"?>
<!-- Generator: Adobe Illustrator 19.0.0, SVG Export Plug-In . SVG Version: 6.00 Build 0)  -->
<svg version="1.1" id="Capa_1" xmlns="http://www.w3.org/2000/svg" xmlns:xlink="http://www.w3.org/1999/xlink" x="0px" y="0px"
	 viewBox="0 0 512 512" style="enable-background:new 0 0 512 512;" xml:space="preserve">
<linearGradient id="SVGID_1_" gradientUnits="userSpaceOnUse" x1="32" y1="258" x2="480" y2="258" gradientTransform="matrix(1 0 0 -1 0 514)">
	<stop  offset="0" style="stop-color:#00F2FE"/>
	<stop  offset="0.021" style="stop-color:#03EFFE"/>
	<stop  offset="0.293" style="stop-color:#24D2FE"/>
	<stop  offset="0.554" style="stop-color:#3CBDFE"/>
	<stop  offset="0.796" style="stop-color:#4AB0FE"/>
	<stop  offset="1" style="stop-color:#4FACFE"/>
</linearGradient>
<path style="fill:url(#SVGID_1_);" d="M440,342v-74c0-22.056-17.944-40-40-40H112c-22.056,0-40,17.944-40,40v164
	c0,22.056,17.944,40,40,40h288c22.056,0,40-17.944,40-40c0-11.046,8.954-20,20-20s20,8.954,20,20c0,44.112-35.888,80-80,80H112
	c-44.112,0-80-35.888-80-80V268c0-44.112,35.888-80,80-80h23.963v-70.534C135.963,52.695,189.795,0,255.963,0s120,52.935,120,118
	c0,11.046-8.954,20-20,20s-20-8.954-20-20c0-43.009-35.888-78-80-78s-80,34.751-80,77.466V188H400c44.112,0,80,35.888,80,80v74
	c0,11.046-8.954,20-20,20S440,353.046,440,342z M236,347L236,347c0,11.046,8.954,20,20,20c11.046,0,20-8.954,20-20l0,0
	c0-11.046-8.954-20-20-20S236,335.954,236,347z"/>
<g>
</g>
<g>
</g>
<g>
</g>
<g>
</g>
<g>
</g>
<g>
</g>
<g>
</g>
<g>
</g>
<g>
</g>
<g>
</g>
<g>
</g>
<g>
</g>
<g>
</g>
<g>
</g>
<g>
</g>
</svg>
