<?xml version="1.0" encoding="iso-8859-1"?>
<!-- Generator: Adobe Illustrator 19.0.0, SVG Export Plug-In . SVG Version: 6.00 Build 0)  -->
<svg version="1.1" id="Capa_1" xmlns="http://www.w3.org/2000/svg" xmlns:xlink="http://www.w3.org/1999/xlink" x="0px" y="0px"
	 viewBox="0 0 512 512" style="enable-background:new 0 0 512 512;" xml:space="preserve">
<linearGradient id="SVGID_1_" gradientUnits="userSpaceOnUse" x1="0" y1="258" x2="512" y2="258" gradientTransform="matrix(1 0 0 -1 0 514)">
	<stop  offset="0" style="stop-color:#00F2FE"/>
	<stop  offset="0.021" style="stop-color:#03EFFE"/>
	<stop  offset="0.293" style="stop-color:#24D2FE"/>
	<stop  offset="0.554" style="stop-color:#3CBDFE"/>
	<stop  offset="0.796" style="stop-color:#4AB0FE"/>
	<stop  offset="1" style="stop-color:#4FACFE"/>
</linearGradient>
<path style="fill:url(#SVGID_1_);" d="M492,382H389c-11.046,0-20,8.954-20,20v90c0,11.046,8.954,20,20,20h103
	c11.046,0,20-8.954,20-20v-90C512,390.954,503.046,382,492,382z M472,472h-63v-50h63V472z M308,382H204c-11.046,0-20,8.954-20,20v90
	c0,11.046,8.954,20,20,20h104c11.046,0,20-8.954,20-20v-90C328,390.954,319.046,382,308,382z M288,472h-64v-50h64V472z M123,382H20
	c-11.046,0-20,8.954-20,20v90c0,11.046,8.954,20,20,20h103c11.046,0,20-8.954,20-20v-90C143,390.954,134.046,382,123,382z M103,472
	H40v-50h63V472z M71,340.846c11.046,0,20-8.954,20-20V301c0-22.056,17.944-40,40-40h105v60c0,11.046,8.954,20,20,20
	c11.046,0,20-8.954,20-20v-60h105c22.056,0,40,17.944,40,40v19.846c0,11.046,8.954,20,20,20s20-8.954,20-20V301
	c0-44.112-35.888-80-80-80H276v-91h32c11.046,0,20-8.954,20-20V20c0-11.046-8.954-20-20-20H204c-11.046,0-20,8.954-20,20v90
	c0,11.046,8.954,20,20,20h32v91H131c-44.112,0-80,35.888-80,80v19.846C51,331.892,59.954,340.846,71,340.846z M224,40h64v50h-64V40z
	"/>
<g>
</g>
<g>
</g>
<g>
</g>
<g>
</g>
<g>
</g>
<g>
</g>
<g>
</g>
<g>
</g>
<g>
</g>
<g>
</g>
<g>
</g>
<g>
</g>
<g>
</g>
<g>
</g>
<g>
</g>
</svg>
