<?xml version="1.0" encoding="iso-8859-1"?>
<!-- Generator: Adobe Illustrator 19.0.0, SVG Export Plug-In . SVG Version: 6.00 Build 0)  -->
<svg version="1.1" id="Capa_1" xmlns="http://www.w3.org/2000/svg" xmlns:xlink="http://www.w3.org/1999/xlink" x="0px" y="0px"
	 viewBox="0 0 512 512" style="enable-background:new 0 0 512 512;" xml:space="preserve">
<linearGradient id="SVGID_1_" gradientUnits="userSpaceOnUse" x1="0" y1="258" x2="512" y2="258" gradientTransform="matrix(1 0 0 -1 0 514)">
	<stop  offset="0" style="stop-color:#00F2FE"/>
	<stop  offset="0.021" style="stop-color:#03EFFE"/>
	<stop  offset="0.293" style="stop-color:#24D2FE"/>
	<stop  offset="0.554" style="stop-color:#3CBDFE"/>
	<stop  offset="0.796" style="stop-color:#4AB0FE"/>
	<stop  offset="1" style="stop-color:#4FACFE"/>
</linearGradient>
<path style="fill:url(#SVGID_1_);" d="M437.02,74.98C388.667,26.629,324.38,0,256,0c-0.269,0-0.537,0-0.806,0.001
	C255.13,0.001,255.065,0,255,0c-0.125,0-0.25,0.002-0.374,0.004C186.759,0.358,123.009,26.953,74.98,74.98
	C26.629,123.333,0,187.62,0,256s26.629,132.667,74.98,181.02C123.333,485.371,187.62,512,256,512
	c46.812,0,92.616-12.757,132.462-36.893c9.447-5.723,12.467-18.021,6.744-27.468c-5.724-9.449-18.021-12.467-27.469-6.745
	C334.143,461.244,295.504,472,256,472c-119.103,0-216-96.897-216-216c0-112.019,85.714-204.395,195-214.987V256
	c0,11.046,8.954,20,20,20h216.064c-3.33,35.495-15.499,69.683-35.69,99.885c-6.14,9.183-3.672,21.603,5.51,27.742
	c9.185,6.14,21.604,3.671,27.742-5.511C497.002,355.674,512,306.531,512,256C512,187.62,485.371,123.333,437.02,74.98z M471.082,236
	h-54.018l44.958-44.958C466.572,205.44,469.651,220.485,471.082,236z M444.997,151.499L360.495,236h-57.99l118.84-118.84
	C430.281,127.785,438.215,139.281,444.997,151.499z M275,149.892l83.823-83.812c12.1,6.577,23.504,14.277,34.074,22.959L275,206.936
	V149.892z M275,93.327V40.828c15.156,1.327,29.868,4.226,43.972,8.532L275,93.327z"/>
<g>
</g>
<g>
</g>
<g>
</g>
<g>
</g>
<g>
</g>
<g>
</g>
<g>
</g>
<g>
</g>
<g>
</g>
<g>
</g>
<g>
</g>
<g>
</g>
<g>
</g>
<g>
</g>
<g>
</g>
</svg>
