<?xml version="1.0" encoding="iso-8859-1"?>
<!-- Generator: Adobe Illustrator 19.0.0, SVG Export Plug-In . SVG Version: 6.00 Build 0)  -->
<svg version="1.1" id="Capa_1" xmlns="http://www.w3.org/2000/svg" xmlns:xlink="http://www.w3.org/1999/xlink" x="0px" y="0px"
	 viewBox="0 0 512 512" style="enable-background:new 0 0 512 512;" xml:space="preserve">
<linearGradient id="SVGID_1_" gradientUnits="userSpaceOnUse" x1="62.0031" y1="257.9954" x2="450.0041" y2="257.9954" gradientTransform="matrix(1 0 0 -1 -5.724372e-004 513.9924)">
	<stop  offset="0" style="stop-color:#00F2FE"/>
	<stop  offset="0.021" style="stop-color:#03EFFE"/>
	<stop  offset="0.293" style="stop-color:#24D2FE"/>
	<stop  offset="0.554" style="stop-color:#3CBDFE"/>
	<stop  offset="0.796" style="stop-color:#4AB0FE"/>
	<stop  offset="1" style="stop-color:#4FACFE"/>
</linearGradient>
<path style="fill:url(#SVGID_1_);" d="M122.288,512c-15.968,0-31.518-6.31-42.813-17.407c-11.268-11.071-17.474-26.076-17.474-42.25
	V79.999C62.002,35.888,97.889,0,142.001,0h227.997c44.111,0,79.999,35.888,79.999,79.999v272.997c0,11.046-8.954,20-20,20
	c-11.046,0-20-8.954-20-20V79.999c0-22.056-17.944-40-40-40H142.001c-22.056,0-40,17.944-40,40v372.345
	c0,5.512,1.853,10.127,5.508,13.718c3.883,3.816,9.53,6.051,15.14,5.936c5.568-0.098,10.045-1.964,13.686-5.706l105.333-108.244
	c3.765-3.869,8.935-6.052,14.333-6.052c5.398,0,10.568,2.183,14.333,6.052l105.332,108.244c3.668,3.77,8.112,5.635,13.587,5.705
	c5.549,0.044,11.222-2.193,15.132-6.054c3.726-3.679,5.615-8.371,5.615-13.947c0-11.046,8.954-20,20-20c11.046,0,20,8.954,20,20
	c0,16.199-6.218,31.261-17.51,42.41c-11.528,11.384-27.507,17.755-43.743,17.588c-16.176-0.205-30.612-6.362-41.748-17.806
	L256,400.673l-90.998,93.514c-11.057,11.363-25.458,17.519-41.649,17.804C122.999,511.997,122.643,512,122.288,512z"/>
<g>
</g>
<g>
</g>
<g>
</g>
<g>
</g>
<g>
</g>
<g>
</g>
<g>
</g>
<g>
</g>
<g>
</g>
<g>
</g>
<g>
</g>
<g>
</g>
<g>
</g>
<g>
</g>
<g>
</g>
</svg>
