<?xml version="1.0" encoding="iso-8859-1"?>
<!-- Generator: Adobe Illustrator 19.0.0, SVG Export Plug-In . SVG Version: 6.00 Build 0)  -->
<svg version="1.1" id="Capa_1" xmlns="http://www.w3.org/2000/svg" xmlns:xlink="http://www.w3.org/1999/xlink" x="0px" y="0px"
	 viewBox="0 0 512 512" style="enable-background:new 0 0 512 512;" xml:space="preserve">
<linearGradient id="SVGID_1_" gradientUnits="userSpaceOnUse" x1="31.9845" y1="258.0197" x2="479.9843" y2="258.0197" gradientTransform="matrix(1.0001 0 0 -1.0001 0.0025 514.0327)">
	<stop  offset="0" style="stop-color:#00F2FE"/>
	<stop  offset="0.021" style="stop-color:#03EFFE"/>
	<stop  offset="0.293" style="stop-color:#24D2FE"/>
	<stop  offset="0.554" style="stop-color:#3CBDFE"/>
	<stop  offset="0.796" style="stop-color:#4AB0FE"/>
	<stop  offset="1" style="stop-color:#4FACFE"/>
</linearGradient>
<path style="fill:url(#SVGID_1_);" d="M460.011,226.985c-5.11,0-10.222-1.946-14.126-5.84L270.16,45.851
	c-7.815-7.816-20.505-7.815-28.302-0.018L66.115,221.144c-7.819,7.8-20.483,7.786-28.285-0.035
	c-7.801-7.82-7.785-20.484,0.035-28.286L213.589,17.531c23.376-23.377,61.443-23.377,84.839,0.018l175.707,175.276
	c7.82,7.801,7.836,20.465,0.035,28.286C470.264,225.026,465.137,226.985,460.011,226.985z M276.001,491.999V128.98
	c0-11.047-8.954-20.001-20.001-20.001c-11.047,0-20.001,8.954-20.001,20.001v363.018c0,11.047,8.954,20.001,20.001,20.001
	C267.047,512,276.001,503.045,276.001,491.999z"/>
<g>
</g>
<g>
</g>
<g>
</g>
<g>
</g>
<g>
</g>
<g>
</g>
<g>
</g>
<g>
</g>
<g>
</g>
<g>
</g>
<g>
</g>
<g>
</g>
<g>
</g>
<g>
</g>
<g>
</g>
</svg>
